<mxfile host="app.diagrams.net" modified="2022-10-14T22:25:14.231Z" agent="5.0 (X11)" etag="CLgruz2WnCFPqtpcjfas" version="20.4.0" type="github">
  <diagram id="ZgbCgze32-gDC7uf-_a3" name="Page-1">
    <mxGraphModel dx="720" dy="1788" grid="1" gridSize="10" guides="1" tooltips="1" connect="1" arrows="1" fold="1" page="1" pageScale="1" pageWidth="850" pageHeight="1100" math="0" shadow="0">
      <root>
        <mxCell id="0" />
        <mxCell id="1" parent="0" />
        <mxCell id="wXIIDTwPPoFRgF2ShjLG-12" style="edgeStyle=orthogonalEdgeStyle;rounded=0;orthogonalLoop=1;jettySize=auto;html=1;exitX=0.5;exitY=1;exitDx=0;exitDy=0;strokeWidth=3;" edge="1" parent="1" source="wXIIDTwPPoFRgF2ShjLG-1" target="wXIIDTwPPoFRgF2ShjLG-2">
          <mxGeometry relative="1" as="geometry" />
        </mxCell>
        <mxCell id="wXIIDTwPPoFRgF2ShjLG-1" value="Open a new or old Narrative" style="rounded=1;whiteSpace=wrap;html=1;fillColor=#d5e8d4;strokeColor=#82b366;strokeWidth=5;" vertex="1" parent="1">
          <mxGeometry x="120" y="60" width="130" height="40" as="geometry" />
        </mxCell>
        <mxCell id="wXIIDTwPPoFRgF2ShjLG-3" value="" style="shape=image;verticalLabelPosition=bottom;labelBackgroundColor=default;verticalAlign=top;aspect=fixed;imageAspect=0;image=data:image/png,iVBORw0KGgoAAAANSUhEUgAAAksAAADfCAYAAADm1Zd+AAAABHNCSVQICAgIfAhkiAAAABl0RVh0U29mdHdhcmUAZ25vbWUtc2NyZWVuc2hvdO8Dvz4AAAAtdEVYdENyZWF0aW9uIFRpbWUARnJpIDE0IE9jdCAyMDIyIDA0OjE3OjAzIFBNIE1EVO4FfrwAACAASURBVHic7N13fFPV/8fx103SvWkplL1HkS1LkCEoQ4aIiKKCEwVEcaE/UHF8URDcCxQcoKIIyihTluyy9yizAygddO8k9/dHaGiaNE3blBb8PB8PHpJz18klNu+ec+45iqqqKsU4f3yvVVn90NuLO0wIIYQQolI6f3yvw1lGU851EUIIIYS4qUlYEkIIIYSwQ8KSEEIIIYQdEpaEEEIIIeyQsCSEEEIIYYeutAfaekJOCCGEEOJWozgydYAQQgghxH+VdMMJIYQQQtghYUkIIYQQwg4JS0IIIYQQdkhYEkIIIYSwQ8KSEEIIIYQdEpaEEEIIIeyQsCSEEEIIYYeEJSGEEEIIOxyawVtm6xZCCCHEraZ+6O0O7Vfq5U4cvYAQQgghRGVTkoYg6YYTQgghhLCj1C1LQgghhBAAqqpiNOgB0Gi0KBontMWoKmrGFchOQVUNdndVNDpw90fxqgooZb92IRKWhBBCiFuQqqrk5WaDqqJzdUOj0ZbbtfR5uRiNpkCjoMfV3aPM51TTYyEnBbyCTWHIHmMepF9BRbkWmJzrhoSlhIQEEhISSE1NJTc3F4PBfkK8EXQ6Ha6urvj7+xMUFERAQEBFV0kIIYRwivygpKoqAPrcnHIOTGoRfy+D7GTwCUFx93esBiqQlQg3W1hKTk7mzJkzZGRklOdlSkWv16PX68nMzOTSpUv4+fnRuHFjvLy8KrpqQgghRKkVDkpgii/lH5icSzXq0WhcHD9AqwOjvlzqUm4DvC9dusThw4crZVCyJSUlhQMHDpCQkFDRVRFCCCFKxVZQMm/DFJjyu8uE48olLMXGxnL69Gmb/1iVmcFg4Pjx4yQnJ1d0VYQQQtwCjAY9ebk55OVmY9DnlaispOwFJfM+lD0wqUYj+rxcVKPRoTrp83IxVoLhN2Xh9LCUnp5ORESEs097w6iqyrFjx8jNza3oqgghhLjJGQx6jEYDRqPRHIJslumty0rCkaBk3pfSByZVNZoCnUFvup6dwJRfJ4NBT15eTukDkyEPctLs/1GLD25l4fQxS+fOnbvpWpQK0+v1REZG0rhx44quihBCiFtEeX0z2gpKiqKYt4HpYXpFo8F4LdxcH8PkjqYEj/kbDUbz+1CBvNxsXFzdHaqT0ahHoy35eCk1JwU1/YrdfTRVGpb4vCXh1LCUmZlJUlKSM09ZYWJjY2nQoAHaUvzDCiGEEACKogFMAUWjaKzKlPwyjQYMlmWOMhr0VkHJxdUdfV6ORbmLqzt5udkWgcloyEOjcXP4WlqdDqNBj1G9fo683GxQLOc2sgpvKGh1riV6X+ZjPYNQPIOK39GQU6rzO8KpYSkxMdGZp6tQRqORpKQkgoIc+AcSQgghbNC5uKJzcS1VmaM0Wh3KtcCUH5QUxfbEjAUDkwJotSV42iz/HG5u5OXkWAQmCj15R6Gg5OLmVmSdbgZOHbN0szz55qhb7f0IIYS49eQHJJ3O1W5Qyufi6o7O5dq+pZpp2xR+NA60gF0PSjf36mpOrX1eXulG8FdWt9r7EUIIcWtSFAWtTudw641WqyvjkiTFB6ayBiVFo0VVSzBvktEAxc30XUpOPavRgccIbyaVYaZxIYQQonJSrLrkrm9xQouSm9+1JUxAUezHFdWYBxlx4F4+q3HI2nBCCCGEKCUFF1c38nKvByZndb0pPiGoaZch9WKx0xxcX0g3uEzXLIqEJSGEEOIWZNElV56Dq5Vrgena03curk4ao6RoUHxrAjWp6KHhlToseXt7ExQUhLe3N+7u7uh0OnQ6HRqNxqF+2YyMDPbt23fTz/skhBBClJTOxQ2N1gioDg3GLpNrg8xvVZUyLOl0Opo0aULVqmVbOdjLywtXV1dycspv7gUhhBCisirJhJOiaJUuLOl0Olq3bo23t7dTzieDtIUQQghRFpUuLDVt2tQpQSknJ4fExET0+hI8diiEEEIIUUilCksBAQElmjE7NjaWlJQUfH19CQkJMZfHxcVx4sSJ8qiiEEIIIf5jKlVnZsHA44iUlBRzYCpIJpMUQgghhLNUqrDk7+9f0VUQQgghhLBQacKSVqvFxaXkC/oJIYQQQpSnShOW5PFGIYQQQlRGlSah6PV6mTxSCCGEEJVOpQlLqqqSkZFR0dUQQgghhLBQacISQGJiYkVXQQghhBDCQqUKS5cuXZIZt4UQQghRqVSqsJSbm8u5c+cquhpCCCGEEGaVKiyBqXXpwoULFV0NIYQQQgigEoYlgMjISA4dOmQ1M7cQQgghxI1WqdaGKyg5OZmDBw/i5uZGQEAAnp6eBAYG4unpWdFVE0IIIcR/SKUNS/lycnKIjY0FQFEUCUtCCCGEuKEqZTecEEIIIURlIWFJCCGEEMIOCUtCCCGEEHZIWBJCCCGEsEPCkhBCCCGEHRKWhBBCCCHskLAkhBBCCGHHTRWWsrKyLF5nZ2db/Leo/YQQQgghSqvST0pZ0KVLl0hOTkaj0aDX680hKSUlhfDwcHQ6HUajkczMzAquqRBCCCFuFTdVWAKKDEKFW5eEEEIIIZzhpuqGE0IIIYS40SQs2aEoSkVXQQghhBAVzKlhycXFxZmnq3C32vsRQgghRMk5NSy5u7s783QV7lZ7P0IIIYQoOaeGpYCAAGeersLdau9HCCGEECXn1LDk7++Pm5ubM09ZYXx9faVlSQghhBDODUuKolCvXj1nnrLC1K9fv6KrIIQQQohKwOlPw1WvXp2goCBnn/aGqlWrFv7+/hVdDSGEEEJUAuUydUCzZs3w8/Mrj1OXu6pVq9KwYcOKroYQQgghKolyCUtarZbWrVsTEhJSHqcvF4qiULduXUJDQyu6KkIIIYSoRMptuRNFUWjSpAkhISFERUVx9epVjEZjeV2u1HQ6HYGBgdStWxcPD4+Kro4QQgghKplyXxvOx8eHFi1aYDQaycjIICcnB6PRiKqq5X3pIimKglarxc3NDS8vL5mpWwghhBBFumEL6Wo0Gnx8fPDx8blRlxRCCCGEKDNZG04IIYQQwg4JS0IIIYQQdkhYEkIIIYSwQ8KSEEIIIYQdEpaEEEIIIeyQsCSEEEIIYYeEJSGEEEIIOyQsCSGEEELYIWFJCCGEEMIOCUtCCCGEEHZIWBJCCCGEsEPCkhBCCCGEHRKWhBBCCCHskLAkhBBCCGGHhCUhhBBCCDskLAkhhBBC2CFhSQghhBDCDglLQgghhBB2SFgSQgghhLBDwpIQQgghhB0SloQQQggh7JCwJIQQQghhh4QlIYQQQgg7JCwJIYQQQtghYUkIIYQQwg4JS0IIIYQQdkhYEkIIIYSwQ8KSEEIIIYQdEpaEEEIIIeyQsCSEEEIIYYeEJSGEEEIIO3TlcdKVK1dy4MCBUh//1FNPERISwhdffEFqaqrFtvvvv5/Q0FCbxy1YsIDIyEiLsp49e9KtWzfz62+++YarV69a7DNo0CBat25t85yqqnL8+HEOHz5MXFwcWVlZeHl5UbNmTVq3bk3Dhg1L8xZJS0vj888/typ//vnn8ff3t3lMbm4u+/fv58SJE1y9ehWDwYCvry/169enXbt2VK1atVR1sWX58uUcPnzYokyr1TJp0iS0Wm2pzpmUlMTXX39d5HYXFxf8/Pxo0KAB7du3JzAwsMh9ly1bxpEjR0pch/z7W1RdXnrpJby8vBw6V1nrYMuhQ4dYsWKFVfmoUaOoU6eOw9dITk5m3759nD59mtTUVDQaDQEBATRt2pT27dvj4eFh87iDBw8SFhbm8HXy2ft/CMBgMDBjxgyMRqNFee/evenSpUuRx33//fdcuXLFoqx58+YMGzaszPff3ntVFAU3NzeqVKlC06ZNadeuXZH3zJbS3v/S/FwA0/09cuQIhw8fJjExEYPBQGBgIM2aNaN9+/a4uroWeayt++Dn58eECRNs7h8VFcX8+fMtyjQaDZMnTy7yGkLc7MolLG3bto0///yz1McPGTKEkJAQ/vjjD6sflG3atCkyLK1evZrdu3dblAUEBFiEpcWLFxMVFWWxT/Pmza1+0BuNRhYvXsy3335LdHR0kXUNDQ1l4sSJ3HXXXQ69t3wZGRn89NNPVuWPP/641Q/FjIwMvv32WxYuXEhKSorN82m1Wrp3786kSZNo3Lhxiepiy8cff8zFixetynv16kXnzp1Ldc7U1FSb79kWrVbL3Xffzeuvv07t2rWttm/ZsoVly5aVuA7597eoujz77LMOh6Wy1sGWBQsWsHTpUqtyHx8fXnzxxWLPHRMTw6xZs1izZg16vd7mPp6engwdOpSXXnrJqh4REREO/xsVZOv/oYK0Wi2HDh1i3759FuWXL18uMixlZmby8ccfW72Pd999Fyj7/S/Je/X29mbEiBG8+OKLeHp6FrlfWe9/SX4uAOj1ehYsWMCcOXNISEgosu6jR49mzJgxNj/bRd2Hxo0b069fP6vyK1euWO2v1WolLIlbmnTD2ZCVlcWzzz7L5MmT7QYlgOPHjzNmzBjef/99VFV1el2ioqIYPHgws2fPLjIogek3y02bNjFo0CBWrlxZpmseOnTIZlACUyC9EQwGA2vWrGHAgAFs27bthlyzouXl5bFx40ab2xy575s3b6Z///6EhYUV+UUNphDy66+/MmDAAE6fPl3q+paUrS/enTt3YjAYbO6/a9cuq/eh0Wi4++67y6V+9qSnpzNv3jwGDhzIpUuXbO5zo+9/QkICjzzyCNOmTSsyKOXX/euvv2bo0KGcO3fO4fPPmDGD3Nxcq3Kdrlx+xxaiUpOwZMN7773Hpk2bSnTMzz//zO+//+7UeuTm5jJmzBirrkV79Ho9r7zyCqdOnSr1ddesWVPktnXr1ll1pZSnrKwsxo4dS0xMzA27ZkXZvn27VbdzvjNnznDmzJkijz1//jwTJkwgKyvL4evFxcUxZsyYEh1TFv369UNRFIuy1NRUjh49anP/LVu2WJW1a9eO4ODgcqmfI6KiohgzZoxVwLvR9z8rK4snn3zSqqXOnnPnzjFq1Cji4uIc2j86Opoff/zRqlyjka8N8d9TLr8idO/eHV9fX4uy06dPW/3w8/X1Zfjw4VbHO3PsTUnFxsayZMkSq/KAgACGDBlCQEAAUVFRrFq1yuqH3DfffMNDDz1k9YVQWmvWrLH5Bdm4cWN69+6Ni4sLx44dY9OmTRatWnq9nu+++46PP/64VNe114oRHx/Pvn376NChQ6nObcsjjzyCu7s76enphIeHc+HCBYvtWVlZfPvtt0ybNs3ueZo3b84dd9xhdx8fH5+yVrfc6lBc69Hq1auLHEcyd+5cm1+63bp1o3379mRnZ7N9+3arYBIdHU1YWJjN/w/z+fv7M2zYMLt1a9Kkid3tACEhIbRq1YpDhw5ZlG/bts1mF56tFsW+ffvavUZZPwMF32tCQgL//vsvycnJFvucPHmSlStXMnjwYHNZed5/W2bOnMnx48etymvVqkX37t3R6XTs2rWLiIgIi+2xsbG88cYb/PDDDw5d55tvvmHYsGEEBQWZy6RlSfwXlcunvn///vTv39+ibMmSJVZhyd/fn//7v/8rjyqU2oEDB6xaTlxdXVm6dCk1a9Y0lw0ZMoRRo0ZZ7Hf58mWioqKoW7euU+pi67fGZs2a8ffff+Pi4mIu+/TTT60GK+/atatU1zx69GixrTirVq1yalh6/vnnzQE5Ly+PZ555xuqL0pGWvjZt2lT456m0dTAYDGzYsMHuPvbCkq3PysMPP8z7779vfv3qq68ycuRI9uzZY7Hfrl277H5ZV6lSxWn3tW/fvjbD0vjx4y3KLl68aBWaFUWx2ZVXUFk/A4Xfa0JCAoMGDSI+Pt5iv82bN1uEpfK8/4VduXKFhQsXWpUPHDiQmTNnmn82qKrKjBkzmDt3rsV+W7ZsYe/evdx+++3FXisjI4NPPvmEDz74wFwmLUviv0g+9YXY+u3Q19eXGjVqWJR16dIFd3d3q32TkpKcVpfs7GyrsgYNGlgEJcDm4PLS1sNeF1y+tWvXlsv4LDA9EffEE09YlcfHxxc5tuVWsGPHDqsWjMIiIiKKHHNi67PSrFkzi9eKotCzZ0+r/Qo/HVqeCv8SBaZfUDIzMy3Ktm7darVfq1atCAkJKbe62RIUFMTQoUOtyi9fvmzx+kbe//Xr15OXl2dR5unpyTvvvGPxs0FRFF599VVq1apldQ5H/j/Pt3jxYk6cOGF+LS1L4r9IwlIhth7PTkhIYNKkSRaDKBVFYc+ePRw+fNjij70ngpxRl7Vr1zJv3jxycnLMZa1atbKqR0nGMhRk64dovXr1LF7HxcWV+vyOcHNzsyrz8PAo9ZQFNwNbXXCF73tR+4Htz8oXX3xhNWD86aeftvqszJkzp3SVLoXatWvTvHlzizK9Xm/VEmorLBXXqlRebH0evb29LV7fyPtva1qWnj172nxaTqfTMWTIEIfOURSj0cj//vc/82tpWRL/RTfdrwgpKSnExsba3GbryY2Satu2LbVq1bLqivr7779ZuXIl/fv357777qNLly4lmnelNAYMGMAXX3xh0aJiMBj48MMPmT17Nvfffz+DBw+mRYsWdh9ndtSJEyesuj4aNmzIfffdZzX+ac2aNQ4145eUqqosXrzYqrxly5bFHrt//36LH+oFNW7cmBEjRpS5fuVRB4PBwD///GNRpigKr732mlX31Jo1a6zKwDTP0Y4dOyzKEhMTGTNmDA0bNmT48OEMGDCAGjVqlPizkpiYWOR7cnV1ZdKkSSU6X//+/S1aKsA0uD2/hdRgMLBz506bxxXH2Z+BzMxMVq1aZVVe+PNYnve/MFtPvtmbg8vWsIDC3YqFBQYGkpiYaH4dHh7OunXruOeee6RlSfwn3XSf+qlTpzJ16tRyO79Wq2XmzJk8+eSTVl1yubm5LFu2jGXLluHn58eQIUN47LHHqF+/frnUpX79+rz22mtMnz7daltSUhLz5s1j3rx51K5dmxEjRvDQQw/ZnbiuOLZaLe688066detmMyxNmTLFKYPZP/vsMzw8PMjKyuLgwYM2n+QbN25csec5depUkU8B9urV64aEpdLUYdeuXVbdps2aNaNPnz74+PiQlpZmLs8PtIVbnYYNG8Y///xjc+qBs2fPMn36dKZPn07btm0ZOXIkgwcPdrilLiUlpcj5iDw8PEoclvr27csnn3xiUVZwjNrhw4etngps0aKFze6kwsr6GSgYDJOTk9mxY4fV02O+vr5W4xXL8/4XZmuoQOGWroJsDWgv3O1ZWH4LecH3M336dHr16nVLt/AKURRpT7WhQ4cOLFq0yG5rRkpKCvPnz6dfv3689dZbpKenl0tdnn76ab788ku7j0tHR0cza9YsevXqxY8//ljqR/vXrl1rVdatWzduu+02AgICLMpjY2M5ePBgqa5T2B9//MFPP/3EH3/8YfVFpygKkyZNomvXrk65VmVkq+uzW7duaLVam0922dpfo9Hw7bff8sILL9jsNsp34MABXnvtNe655x6bXV03QsOGDa0mTj179qy5xbgiu+Dyg+FPP/3E0qVLrYKSp6cn33zzjdUvJTfT/XeEwWBg8uTJFq1IUVFR/PTTTxKWxH+ShKUiNG/enL/++ouvv/7abneTwWBg4cKF3HfffUV2D5ZV//792bBhA1OmTLH7pF1aWhrTpk1j7NixVgNAixMREcHZs2ctylxcXOjUqROKoljMgp7vRkxQ2blz52IfW7+ZGY1Gqy44wBwO77zzTqttRd13rVbLCy+8wKZNm3jyySfx8/Mr8rqRkZE88cQTzJ49u5Q1Lxtb4Se/dakyjVcq7KGHHqJdu3Y2t91M9784BoOBevXq8dhjj1mUf/3118U+iCDEreim64a7kRRFoW/fvvTt25ezZ88SFhbGihUrrMb1AFy4cIGJEyc6fWLKfB4eHjzxxBM8/vjj7Nmzh7CwMFatWmXzB9eGDRv48ssvefnllx0+v63WitDQUFJSUkhJSaFFixZWa5atWbOm3Jc42LlzJ8OGDWPRokXFTkbYvHlzunfvbnNbadfwK6mS1mHPnj1WY1B0Oh21a9cmNjbW5tI1x44dIzo62uYyMADBwcFMnjyZl19+mY0bN7Jy5Uo2bdpkc0zfrFmzaNmypd2WO39//yK7r+ytOWZP3759+fLLLy3Ktm/fTt++fa3WJGzatKnDXd3l/Rn44YcfOH/+PLNnzy6yhcXZ978wWwOs7T0pams28eLGHeW3Tk+YMIGlS5eau4nT09Ntrl0nxK3upgtLn332GQMHDrS5beTIkVZrw5VUQkICGRkZFmWBgYE0bNiQF198kRdffJE9e/bw0UcfWT1RsnfvXg4fPkyrVq3KVId8MTExVj8Ea9asSceOHenYsSNvv/02K1eu5KOPPrJaQ2/BggW88MILDg/GtDWI9dChQzZblPJdunSJQ4cOlfkJwMceewxPT09ycnI4ceIE4eHhFttjYmKYPn261TiXwtq0acNrr71WprqUVUnrYOu+6/V6evfubfe41atXM2bMGPP+hZen0Wq11KpViwEDBjBgwACSk5P57bff+Oqrr6y+tH/88Ue7X9ZVqlRx+n1t1qwZ9erVs/jFY/v27Wzfvt3qM1/cRJQFlfUzUDAYpqWlsXv3bquJYTdt2sTixYvN+5X3/S+scJc4UOQSLEVts3WOgvIDlq+vLxMnTrQYJ7p+/XpHqyrELeOmC0vl7dVXX7WaEPGtt95i9OjR5tcdOnRg/vz59OzZ0+KJETAFDGeFpT59+lj9VhgWFmaevyX/seAGDRpYzQWTlpbGuXPnHJpZ+ezZs3aX0rBn9erVZQ5L48aNs5i1fc6cOcycOdNin5UrV/Lee+/ZHch6symqC84RBcPS4cOHefDBBy22+/n5WUzv4O/vz7hx43B1dbV6YMBZY89Kql+/fhbdUFevXuX777+32s+Rp+CcpXAwNBgMjB071mrg9h9//GEOSzf6/tuaUuLAgQOoqmrzgYv9+/c7dI6CCo57fOihh/j111+tZgMX4r9ExiwVYus3rsIzDoOpW6zgEgD5invKpCSqVKniUF2K6o5xdM2psow9Ksnkdo4aOXKkVZnBYCh2UeObzb59+xxep6uwI0eOmFszbH1mU1JSbHYX2/qs3Ki14QqzNQ6p8Ofb1mDwG0mr1dqcXfv8+fPmv9/o+9+jRw+rsoiICJv/H584ccJmILc1Fq6ggq17Wq2WKVOmlKiOQtxqpGWpkNatW1uNzQkLC6NWrVoMGTKE4OBgUlJSWLx4sc1HlB15vLkkdSn8g27WrFloNBq6dOmCv78/Fy9e5NNPP7V5fOFZx4tSlsATExPD0aNHue2220p9jsJ8fHxwdXW16q4oblby7Oxsh+aPsTepXnGzKbu4uNidnqEkdShr0FyzZg1PPfUUderUISAgwOr+TJgwgVdeeYXQ0FDc3Nw4efKkza7M4j6zBoOh2Pfk6+tr9ykwW2677Tabc5oVVJIuOHDOZ6AwW2tVpqWlYTAY0Gq15X7/C+vYsSMtWrTg2LFjFuWvv/46Fy9epHfv3ri6urJr1y5mzZpl9XRslSpVbE5UWVDhY7p27cpdd91lc2oEIf4LJCwVMmjQID7//HOLuW2MRiPffPMN33zzjd1jvby8bP7WV1ojR460CktJSUkOrX3VsWNHhxYkvnDhAidPnrQqX7BgAV26dLEq79mzp9WX2+rVq50alsAUSgqHpYKzltvy999/8/fff9vdZ9u2bVSvXr3I7ffee6/d4zt27Mhvv/1W5jpUq1bNZlh6/vnnmThxolX566+/brXA86pVq3jqqafQarWMGDHC6smqEydO8PTTT9utCxT/niMjI21+Fgr6+OOPi/0CtqVv377MmzevyO0l7YJzxmegsMLLC+XLzc01zyxfnve/MEVRmDp1Ko888ojFU69ZWVnMmDGDGTNm2D1+8uTJeHl52d3H1oDxyZMns2XLFpsDxoW41Uk3XCGBgYF8+OGHJZ6lVlEU3n33XaeOqbnzzjttrpNWHG9vb9577z2H9rXVdO/l5VXkQrm21rYqjykEbHVtFLfA783kwIEDVoPywfb9BdOEioUdPnzYvEbZhAkTaNu2bYnr0axZM/PYp4pgb0qAOnXqWC2NUhGKGgxdsFv4Rt//du3aMX369BLPeTR+/Hjuu+++YvezFZZsTSUgxH+FhCUb+vXrx/z582nUqJFD+1etWpWvvvrKoR9CJTVlyhTee+89h2fmDg0NZdGiRQ7X3VbQ6dq1a5Fh0daXdlRUFMePH3foeo6yNZ/Upk2bnHqNimTrvvv7+xf5cEC3bt2s/k1UVTW3Trm5ufHLL78wevRoh4N+//79+e2332wuCH2jtGnThmrVqtncVlnmVqpatarNpY0Kfh4r4v4PGTKEBQsWFDlmsSB/f39mzpzJSy+95NC5i5rYdsKECcU+SSfErUi64YrQsWNHVq5cydatW1m3bh2HDx/m0qVLZGRk4OrqSlBQEKGhofTs2ZN7773XKWuzFWXkyJEMGTKENWvWsGnTJo4fP05CQgI5OTl4enpSo0YNWrZsSb9+/ejevbvD4zGio6NthpyiWjfANElk/tIkBa1evZrQ0NASvS97Ro8ezY4dO1BV1Vy2ZcsWtm/ffkvM5m1rtvQePXoU+W/n7e3N7bffbrXg7OrVq82tj25ubrz11ls888wzLF++nJ07dxIREUFycjIGgwEfHx/q1q1L+/btGTJkiFP/vUorfy6z+fPnW22rLGHJxcWFRx55hLlz51qUf/7554waNcocpCri/nfs2JH169cTFhbGxo0bOXToEImJiRiNRgICAmjatCk9evRg2LBhxXa9FVRUV5utqQSE+C9Q1ILfRkU4f3yvVVn9UOcvoiqEEEIIcSOcP77X4Swj3XBCCCGEEHZIWBJCCCGEsEPCkhBCCCGEHRKWhBBCCCHskLAkhBBC647zXwAAIABJREFUCGGHhCUhhBBCCDskLAkhhBBC2CFhSQghhBDCDglLQgghhBB2SFgSQgghhLBDwpIQQgghhB0SloQQQggh7JCwJIQQQghhh660B54/vteZ9RBCCCGEqJQUVVXViq6EEEIIIURlJd1wQgghhBB2SFgSQgghhLBDwpIQQgghhB0SloQQQggh7JCwJIQQQghhh4QlIYQQQgg7ip1nSWYWEEIIIcStSlGUYvcpMizlhySj0Wj+Y2u7EEIIIURlVzgUaTQa8x9b2wuyGZbyg5DBYCAvL4/hWx53UlWFEEIIISqHP7v/hIuLC1qtFlVViwxMVmEpPyipqorRaCQ9Pd3mgWF9/3BidYUQQgghbpyBa0eQnp6On58fGo0GRVGKDEwWA7wLBiVVVdHr9WRnZ9+YWgshhBBC3EDZ2dno9Xpz7gHbw4xstizltyoZDAb0en3511YIIcRN7Xx8HJ+sXs6Wk8eITkzERaulbtWq9G7Rihf7DqS6n39FV1EIK3q9HoPBgNFotDt2yRyWCiap/LBkNBrJy8sr8cVN51JQUcnMNfDvmSusPn6Z/ZGJJGTmluLtlI8gT1fa1q3CgNAa9GhUDU9XLQoKUHS/pRBCCEsHIs/Tb8Z7pOdc74nI0edxLCaaYzHR+Ht68frAoRVYw/+u/LHH7u7u5XqdmJgY5s+fj8FgYODAgbRt27bM58zJyWHq1Kn8+eefJCYm2t23WrVqjBo1ijfeeAOtVuvwNfLy8sx5R1EU83d/4e44i5YlW61KhZ+CK05+6MrRG1hxJIaXluzjcnImWlcdGgUq0zN0UckZ7L2YxOzNpwjx9+TTYe0Z1LIWbjqN3YFeQgghrpu+4i/Sc7Lx9/Ti13ETaVW7HsmZGUQmxPFH+A4e7nJnRVfxPykyMpLevXsTHx/P0qVL6dWrV7lda/z48SxfvhyAOXPmEBMTU+Zzvv766yxZsoSpU6cSFBRkd9+LFy8ydepUNBoN//d//+fwNYxGo7l1qWBYKvz979RuuPygpDeq9P1qIzvOxaFx0aJ1NaU8Y2VKSlwPblpXLfFZuYz8cRt3NAhm/Qu90WmKHuglhBDiurNXYgHo2LAxPZvfBkAVb28aBFejV2hL835DPv2Q9UcP069VW5a8OMlc3nzSBKISExjfpz8fPTwKgMiEeN5buoh/jhwiMzeHRtVCeO6uvjze3fSFn5mbw4wVf/Pn7h1cTk6iVpVAht7emdcHDsXLzY30nGymr/iLxeE7uZKaTM2AKjzR/S5e6j8YzbWf6wu2bebLf1ZxLu4KPu4eNKtRi1cHDKZ3i1bk6POYtmwJi3fv4EpKMlV9/OjUqDFvDnmAxtVr3JD7WhaRkZH06NGDyMhIAAYOHEhYWFi5BaaCLT8JCQlOOeevv/7Kl19+yUMPPWRRHhcXh5eXF15eXhblRqORb7/9tkRhqWA3XH7+KXaAd76C3XCOtiypqoqKKSi1eGcZO6MSULQaTPmpsgcOBVUFRathZ1QCLd5Zht5oej8yn5QQQthXv2owADsiTrLuyMEyny/i8iW6vjeZ33duIzE9DRetjiPRkXyxbiVgCkp9Z7zHrFXLiEyIx1WrIzIhno9XLSMzJ4c8g4H7PpnOp6tXEH01AU9XN87Hx/H2kt9588/fAFh1aD/P/TiHYzHR+Hl4kpWXy5aTx1h/7DAA7yz5g49XLSM6MYEgH1/iUlNYvHsnZ64Fw8qscFACyMzMZODAgWzatKkCa1YyCQkJVK9e3ar8gQce4PPPP7cqDwkJIS4urkTXKJh17H3fF9mypKoqBoMBg8Hg8EXz9Ebu/mojF9JyQFEqf0Yq7FqavJCWQ+8vNvDP83fhqpMVYYQQwp5JA4ey4dgR0nOyGfrZDGpXCWJoh06M7HInLWvXLfH5Jv76A0kZ6dQJDGLxC5NoUas28ampHI0xffl/sXYl+y+cw0Wr5efnXmBw2w5k5eWy/uhhqvr68s36New8c4oq3t6EvTKF1nXqcSQ6kp7T3uKrf1Yxrk8/Vh/aD8C4Pv2Y+fBowDRIPf8LM3/7r+NeYnC7DhhVlf0XztGsRk1n3LJyYyso5csPTOXZwnQjlKQhpzj5Oadg9rHF7tQB9g4sTFVh2ZEYdp6LA+Umb41RVHaei2PZkRikYUkIIezr0KARW9+axj0t26AoCtFXE/hi7Uo6v/MGI7/+lPjUVIfPlZSRzpaTxwF4e+iDtKhVG4Cqvr7mLr2/94YD8HCXOxnSriOKouDp6sbgdh0AWBS+HYAHO3alXlAwKZmZ1Amsyu31G2EwGtl0/AhuOlNbwcbjR9ly8hiqqlK/ajANgqsB4Opi2v7rji1EXL6ERlG4vX5DvN1KNlB64cKF9O/fn379+vH2228D8Msvv5jLpk6dCsDPP/9sLnv33XdLdI189oJSPme0MB08eJAJEyZw+PDhYveNj4/nlVdeYcWKFaW+XnmylXccmjrA1gkckZ6rZ+KSfWh02ko1iLt0FDQ6LROX7KNfaA183V2cfoU73viO3RExeLm7kvLbm04/vxBC3EgtatXm74mvE5WYwF97dvLzts1EXL7Esv27iUyMZ9tb0xw6T1Rigvl7p23d+jb3iUyMN22v18Dm9ojYSwDM3riW2RvXWm2/nJzEs3fdwx/h2zl5KYb+M/9HncAgXug7kOfuugdFUZh071Ce/P4rwg7sJezAXjo0aMSbQ4bT57ZWDr2PfN999x2bN28GYOPGjbz33nvMmTOHbdu2AbBlyxbeffddZs+eza5du8xl+SHKUY4EpXxlaWE6ceIEPXv2JCUlhV9++YX169fTvn17m/vGxcXRq1cvjh8/zmeffcaiRYsYNmxYia4HcOTIEbZv325+HRsby549e5g9ezZgGoxdeFyToxzNOsUupOuorWfjuZKUidbNaaesUCpwJSmTrWfjubdF0YP5Rn68iEXbjwJw8NPx3Fa3mtU+RlWl9lMzuZKcTmjtqhz+fEKJ65Odp2fBpoPM33yQ87FXSUjLxNfDjUY1ArmndSPG9u9INX/vEp/XnllLt/HG/HUMaN+E5VMedeq5bcnKzeOLsF3M/HsryRnZtGtYg90zn7N7zNbjF5i1dDvhEdFkZOdRv1oAI7u34uUhXXHV2X98tO87P7Ph8Fmb21rVq87+T8aV+r0I8V9VJzCIif0G8ULfgYz/6Tvmb9vMwcjzHI2Jcuh4nab4x74d2Qfg8e69eKhzN6vyukHB1AkMYve7H/Hp6hX8suNfohITePW3nzh1+SKfPfokD3TsQoPgany8ahkrD+5jz7kz3PfZdH4c8zzDO97h0PXBspUiv+vI0TJHXb582SooNWjQAK1Wy+nTpwFwcXHhzjvvZOPGjcD1wLRu3Tq6du3q8LU2bNhASkoKAMnJydx9992sX7/ear+CQSn/Pa1YsaJUYWnXrl189tln5teXLl0iJSWFU6dOAaaw1KNHjxKftySsBuQUTleOtiytPn4RjavjcxvcDDSuWlYfv2h3n9F3XZ9LYuFW202SW45d4EqyadmYR3q0AeD9kb359eXh/Djh/mLrkZKZTedJcxg7ezk7T0YRm5yO3mDkanoWuyNi+N+fm3nlx9WOvi2HhUeU/dFPRx04d5mm4z5jyi//kJzh2KzxP6zfT++3fmTl3lMkpGaSlZvH8eg43vx1PXe99QM5efaf5EzLzilym59n+c5JIsStTqMoDLrWLQaQnJmJq9b0y3RWnuV8e/mvXXQ66lativba5ICHo20HrIbXusqORNtuRWlULQSAtKws7mwaavWnTqDpMfQQ/wA+engU5z6ZzVv3DQdg7ub15vmi2tVrwK/jXuLMx98wsO3tqKrKl+tWleg+tG7d2vz3/LmHCpbl/93Wfo5atGiRVVDatGkTwcHB5jKNRkNYWBi9e/c2l2VmZppbZxz1+OOP06VLF/PrpKQk+vTpQ1TU9X8rg8FgEZQAatSowZtvlq4X5ZlnnuHkyZPmP+3atePFF180vz5x4gTNmjUr1bkdzTxOG728PzIRjeZmG9Ftn0ajsD/S/kRYd7dpRM0qvgD8vvWIzRv957WWJ0VReLi7qQm3d6uGjOjWkvu7hBZbj4+Xbudo5BUAujavy2+vPMjad0az6LWHeOfhu2hTP4THerYp0XtzxO4bGJYiLiVw6WoaXZrVcSioxCSmMuH7MIyqire7K2892JOvnx3E7Y1Mgy93nYrmg8X/2j1HWqYpLH397CDCZz5r8ee78UPK/qaE+I/4ZPVynvjuS/7eG87pK5e5kpLMnnNn+GyNaZyKTqMltGYtGlU3hZi9585w+splAP45esg8pqlpSA283dzp3cL0c/KDZYs5H296uik9J5u1h01P2t3XvhMAC3duZdPxI4CpBX/pvt0APNDB9GW+dN9u/tq7y1zPQ1EX+HjVMgDCz54m/OxpjKqKu4sLQ9p3NO+nURRWHNjLuTjTz90gH1/uujZeSlPC6WQ+//xz9Ho9eXl57NmzB4Cvv/7aXBYebhp/NWfOHHPZzp07S3SNESNGUK9ePeB6UKpTp47Vfh4eHqxYscIcmLy8vBg3rmQt6N7e3qxZs4bOnTuby5KSkoiOjja/1uv1FkEpJCSETZs20ahRoxJdqzIpts/M0XmGEjJzb7nB0KpKsTOOaxSFR3u2ZsZfW4mMT2bHySi6Nr/+9IfBaOTvXaYPTfcW9agT5AdcH7Pk5+lO4i+T0RuMuA9/B4AXBnahcY1AZizZwqAOzYi4dD2wzXt+KI1Cqphf308obw7vaVWvfWcv8sHiLew4EUVKZjbV/b3p264xU4b3pFagr3m/7pPnsuNkFK3qVeeLp+/l+e/DiI5PJiXzeqvLqn0R6O43DUzcPv0ZOjUxDbhMTMvkw8VbWBp+nEtX06jq68V9nZvz7sO98fcyBZ63f9tgDi2HPnueV39aw9ZjFzj33SsE+12fI6Nl3Wrsnvkc7RrWoOGzn5CSab91ac6a3eaWoy+eGcioXqaw+GiP1jQd9xmxyel8tTKcKcN7Ftkdl5Zleo/tGoTQvmHlfsJFiMrsj13bORoTxaLwHTa3v3nfAwR6+zCm1z38tGUTqVmZtH/zVQK8vElIMwWlBsHVGHYt5Hz08Cj2njcFqtveeJFqfv4kpqUR4O3F+U9mM7ZPP/7eF86+82cZ+PEHVPH2Jjs3j8zcHPa9P5Pnevdl2f7d7DoTwWPffs54j+9RUUnLykKn0TL6zl7M3rCWReHbcdO5ULNKFa6kJAPQt2UbPF3dePnXH7mUdBVvdw+q+fpxIcEU2obe3qnE98fWjNKOljmievXq7NixgyVLlvDAAw/YfNw+n4eHB2FhYcyfP5/OnTvTqlXJxmAB+Pr6snbtWu655x5z2LNXt02bNtGkSZMSX+dGcDTjOHWAkaJwSwUmR3+BGNWrLTP+2grAwq1HLMLSv0cvEJeSAcAj3VvbPL6wP7YdMXfbJWdkU9XP07zt0IXLFmHJlrA9pxj+0e/kFZj2ISohhe/X7WXF7pNsnva01TlOX0pk0LRfSMvKwcfDlcEdm7F890kAqvl706lJLQACvE11uZKcTo8pczlz+ar5HBevpvL1qnC2n4hi2/RncHex/Hjd885P5veVkpltEZZCawdTEmF7TX3VOq3GonXOy92VAbc34Yf1+0nJzGbXqWi6t6hn8xyp18LSxHmribiUQHaunnYNa/Dew3fR4zbbA0uFENZ+fnYCczevZ+upE1yIjyNHn0eIfwAta9dlwj0DuLOp6f/R+lWD2f72B/xv2WJ2nj5JXGoKjapVp2/Ltrw+yDSZJEDjaiFse8u03/qjh0jOyKBR9RBG39nT3BK0+rW3mLlyKUv27CTmaiLVfP0Z3bYnwb7+uOp0hL0yhU/XrGDx7p1ciI9Dp9VwR+OmjLnrHoJ8fBnbpy9G1Uj4mdNEJybg6+HJvW3am6cRmDb8ERZs28zh6EgiE+IJ8Q/gkTu6M/7u/hV2n+0JCQnh+eefd2hfd3d3xowZU6brFQxMu3fvtrlPflBq2rRpqa4REBBgc5mThx9+mBYtWliVJyQkEBgYWKprFceJYenW6oK7rvj31bRmEJ2a1CY8IprFO47y6VP9cbn2G8KfO0xdcO4uOobdUXyXG5iCyLN9O/D4XW2pXdWfPadj+H2rqal55Md/MrjjER64owUD2jfBx8PN4tj07Fye/PIv8gwGArw9+GrMQNrUDyFs7ykmL/iH2OR0nvt2Gevfe8LiuKzcPLqF1uWdh+6iTlV/GlQLMLcmtW9Yg7/eGGmx/4tzV5qD0jsP38WDXVtyJDKWZ75eysHzl/l8xU5ev99yiQOdRsOi1x4itE4wdauWflFNg9HIyRjTDLFNagTi7e5qsb1tgxqAaY6UI5FXigxL6VmmVsPwiOvNx9tPRNL33Z9ZPuVR7mlz8zYZC3EjNatRi1kjH3do3wbB1fjhmfHF7lc3qCrfPzW2yO1ebm68c/8I3rl/hM3tHq6uTB48jMmDbQ8o7tigMR2fbVzk+R/sdAcPdnJ8IPd/kZ+fH+vWrePuu+82dzHmq1atGhs3biz1WCKAYcOGmWfjLhiC8oNS/lOGYBr0/f777/PEE5bfbc5yazy6VgmMvqsN4RHRJKRm8s/Bswxo3wSD0cjSXScAGNSxmcODhmsH+fHlmIHmvvFBHZrx5ZiBvP7zWjJz8vh713H+3nUcdxcdQzo1Z8rwHuaWmaXhJ7iangXAjFF9GdHN1M/etGYQZy9f5bt1e9h89DxnY6/SsLpl69Lc8UOLbbUCiE1O56+dpq7Fkd1bmbsBm9QIJPxUDJ8s387PG/dbhaW3H+rl0Bit4qRm5phbzXxt3NP8LkAwdRXaojcYGdGtJScvxvN/w3rQuWltlu8+wYtzV6E3GHl+zgpOfjOxxOMThBDiv6RgYNq7dy9gCkqbNm2iefPmZTr3p59+yksvvcQzzzxDUlKS3X2rVq3Ko48+ap7LytlkemonGdGtJR6upvmYFm4xPRW3+eh54lNL1gUH0KxWVasv6bH9OnL+u1eY9UQ/8yDm7Dw9f2w7QtuXvuGjv03dgPvPXjIfM7ijZaIv+Hpfgf0A3Fx0DgUlgD2nYzBe629tVa86F+KSzX+C/U1daxGXEknNtHzarEUJu9qKUrCnN09v/YitUqA1sKgnG3RaDQteeoA9s8Zyf5dQalTx4bl+HXmwq2ldq3NXkjh8ofIvayCEEEVp0KCBzb87m7+/P//88w99+vQhNDSUjRs3ljkogWkw+ffff8/Vq1etJo8s/CcuLo5PPvkEV1fX4k9cCtKy5CR+nu4M6dSM37ceYfmek2Rk55qfggvy9aRvO8e7dDxcbf+zBPp4MnHQHUwcdAfnryQxZ+0ePl2+A4PRyJRf1nNPm0YkZ5halTSKQqCPh8XxBccI5e+Xr/D4InuS0q8Pvn5j/jremL/O5n75LVzX35dzJvf09XBDq9FgMBpJtTEQ/Gr69dakAG8Pq+32dG1exzwFxLnYJNrUDylbZYUQooLMnTuXZ599FoPBUKqB3CWRH5huVRKWnGh0r7b8vvUIGdm5/LXrOEvDTV1wD3ZtaR7D5Cz1qwUwfdQ96LQapi/ZgqqqbDxyztzVZ1RVrqZnEehzfXB4fisXODaPUH4gKaxgN9fLg7vStbn1I6pgGc6cSafV0CikCqcuJnDuShLp2bkW45aORl5fSLFFnZK1ZuXorw+Kv9WmwhBC/Le4urqWaMJJUbRKG5YUuOmWTenduiG1g/yITkjh/+avIyHV1MLxaA/Hu+BsSc3MQUW1GXAKhiEF5drgZpO1B84wsvv13yZW7Ysw/71dw6JnJc/n5+nG1fQsi2kEANo3qoGiKKiqSq7ewJBOZW9uLU50Qgq+nm7me9CvbWNOXUzAYDSyfPdJ8/tMy8phabhpPJWXu6vFk4kRlxKpF+xvnkpg2/FIuoVaLvK5Zv9p89+b1CifpyqEEELcXJwYloqONqqqOjyXAapqemTfeC0waZSSHV+BNIrCoz1a8+GSLcRee0S+cUggHa89dl9aP286wFu/rmdA+yZ0blqbOteeJDsSeYVPlpnWy1EUhd6tGlC/WgCv/OhBUnoWr/20Bl8PN1rVr87Kvaf4fp1p8F33FvVoHFJ8EGhWqyo7Tkax/+wl/tx+lOa1qtK4RiA1q/gy8PamrNhzkm/X7KZWkC/Du96Gl5srZy4n8tPG/Tzao41VECmthVsPM/qzJQR4e7Dn47HUCfJjbP9OfL06HL3ByITvwohNTqNmFV++XhVunqrh6T7tzd2L42av4Lt1e+jYpBbbPnyGo5FX6PnmPPq0bshDd7bCz9ONpeEn+OfgGcDUIlXS6QyEEELcmpwWluaO7Ex6Th73zd2CioJqVLmvVS3G3tmYr/6NYPWJS+Rk5qF11aLRFjWuXEUxGvlqRCcebFcXg2rklz0XeGnxXrTFrPNVWYy6qy0fLtlifj2yjK1KAMt3nyQ9O5dF24+a16Er7K0He9Kqnmkisrnj72PErD+4kpzOfR/+arFfsJ8Xc8Y5Njv1g91uY8fJKLJy83j440UAhM98lvYNa/LNc4M4ERPHmctXbY5bSsvKdVpYCttzCqOqkpiWya5T0dQJ8qNRSBVmPt6Pl+atIiUzm0k/WS6W2apedd4deX1a/+W7TV2iuyNiiE/J4HDkFTSKwvpDZ1l/yHJ9OA9XF+aMlRm8hRBCmDjtaTg/DxfuaV6D+oHeKKqKajTSPzSEHg2DiU7KYPBttbg44wE+HNwWY4HJEgvSorBp4j083rkBvu4ueLu68HD7umAsXYeciqlVS280YrhBs2U2DgnkjmbXx/A84oSwtOi1Ecx8vB+9WzUkJMAHV50WF62W2kF+PNj1Njb970neHnF95eghnZqzZdrTDO7YjCBfT1y0WmoF+vJUn/aEz3zOoVYlgHH9O/H2iF40qBaAi1aLp5sLGdl5AIQE+LDro+d4c3hPWtQJxsPVBTcXHc1qBjFp6J188cy9ZX7f+cb260h1f29ub1TTYu6jCfd2ZtXbo7i7TSOqeHvg7qKjac0gpgzvwbYPn7EYxzTp/jvx8XDjid7tqObvzaM9WnPg0/E816+j+f0F+ngytHMo26c/Q+emtZ1WfyGEEDc3Rb32bLWqqhiNRgwGA3q9npycHNLT04mLi2NqwkdWB4b1/cPi9bfbIhjbrQnPLgzn5/Dz6HP1bHj5blrVCKDa5CV891AnHulQj4MxSXSZtQaNjZai1tV8CX+9P0ZVpffH6ziekMbtdQJZHxGLoil5rlOA2n4ejOvRlJNXUvhh17kSzZujKFDX34uItweV+NpCCCGEqLwGrh3Bu0GTCA4OxtvbGzc3N3Q6HVqtFo1GYzH8x2ktSwdjTBNG9WpSDRUVrZuOhkE+XEzJRJ+Tx4Qle5m29ihPLwxHsdENZzSqNKruiwIsPRTDrotJpOYa2HAmzmrdEYXi59VWMI3jqenrzku9mjG8bR2rpVgci0032zBzIYQQQjiT08YsnYpLQ1VV7qhfFRWo6edBDT8PDsUkgU5Ljt7Ih/+YnlJS8heRU0zTB6oqeGgVDEbTQG6dVrGIKPnpTlVVFECnMR2Xa1RN+ynXpyE0n0+nkG1Q0WC6ltGocv1JcBVFVXDTQLaNLKRcu5abRoP2JhhYLoQQQojy47SWpStp2WTlGQj2ccdVo3B7rQA0isLuyER0Oi3B3m6ceXsQ7w1ohT5XT9cGwZybOphHOtTl50c788sT3TgbmYhRhfta1aaWl5tFy4+qgmo0Mu7OJsR+MIyrMx/ky+G3oxqMaFAJ8XHj7NuDWPFsDx7rUI/Ejx6kSbAPC582LbnRtUFVFjzWBVAJcHdl20t3k/rJQxyc1B9fFy1gmgX03wm9OfhGf+r6e3Jx2v00DPZx1i0SQgghxE3IaWFJ1RvYcT4erUbBQ6PQqlYAADvPxqNVTI/V1/DzwM/DBVBw02mo4efBh4PaMqJ9XfQGI4fi0/jrYBR5egM7Xu9PVXcXcw+cVoHBLWszY0gbVCAhPYcnOjfkg8Ft0QBaRaGmvyfdGwYzd2QnQMWgqiRlmOYIyjUYSc7KQ5+j5+8x3WlZw5+Np2IJDfHj4OR7cVEUFEUh2MedhoHeHJo8EB93l9KOLRdCCCHELcJ5a8OpKtvOJaDVKHh6utGqRgCZuXr2X0rCaOpxQ1Owu0xR0CgKeoORRm8v5fFfdqJxdeGJX3ZyIi6NIG83/nmxDwGuOhRArzfw/sBWuGg1DJm9mQ4zVoOqMrFXU1y1WnNXXZ7BSJv/hRH0+mLOxqfz7K+7UK61cL3w516a1vCnQ51AFu67QN8vN/DH/khq+nnQorqfuV6KovDMwnCCJv3Jufg0p90iIYQQQtx8nNeypFHYdjYOjaJQt4oX1X3dOZuQTlKGafbpovwYfo6LqdnkGFRUVHKMRrrMXMOB6CQaB/vw8+g7MBoMaIxQzceD7DwDR2NTSMzK5cLVDFy0GgLcrw29UiEqKZMjl5PJNFxbpuPaQCXFlNboXC8InUZh74UEFAWWHo4GoHkNf4zXjsnMNbBk9zkyDAbzgrFCCCGE+G9yXlhSNFy4Nsi7ba0q+Hu6ciouFQxGUIseJJ2SnWdeGd7UOqSgB/p/vYGYpEx6N63O/W3qotGAq05Djt5ArsGIalRJzc5DURQ8XXTmR+QMqmqaFFPF6ik6VVWp7W9aHmRc96ase6EPr/UORQVq+HmQ/+SbimmeKFMXnAzwFkIIIf7LnNcNByRm5aICdzUJpqqXG/ujr6K42J95W0GxyiMqkKY38unGk+g0GkZ1rg96o/kI0/7Xl0DJz0SOxBr12p8svYH0HD0XU7JYc/wS5xLSC4UrxekxSa/Xm4OhcFx8XCwZGekVXQ1xEzAaDVyKicZoYwHo8pSXm3tDryeEuLGcOGYJMvUGLiSm06dpCH4erhyKuoq2yKVNbJzi2tQApkdJ38phAAAYeElEQVT74cTlZFRVJdjLHQymx//zA4yqKGgwrRunN6gOT4eUZzCiAF9vPsmwH7YybN5WHvppO8uOXLRqiXLUssULmfm/t+zukxAfx8RnR5GSnFSqaxSWnZ3FjPcmW5QtXjifOV9+bHHNzz56n5fHPsGyxb9zaP9eXh3/lFOuXxIfTH2DTf+sLvXxM96dwplTJ51Yo/8evT6Pn+d+w6QXnmHWtLcrujpFKutn9FJMDNPenkROdrYTa2Xfru3/Mu3t12/Y9YQQN55TW5YUFVYfv4yLztQqExGfVqI5HbWKgrtOg96gos/T06VhVQCikjIwaBWy8vT4uLtQ1dMNV52G+kFeKIpCcnauQ81KiqJw+KIprDSvUQXVqBJa3ZcrHwzj/ta1sJq10plU1amtSklXE0lMiLcoa9SkGbe1amt+vX5NGAD/m/UVg4eNIKhqMF179OZGu71TF2rVds46caJ0Dh/Yx7FDB5j01jRe/r93Kro6Raqoz2hZ3OhWLCHEjee0SSnBlItWHrvEc90aczkti+iULHNWyl+nzfz6WnhQMbUKKYC7VsOZd4aw9FAUOq2Woa1qoTeqfPnvKbQeLqw4epGnujTkg8FtOB+fho+bjj2RiaTmGvDyUM3nvF4h1eJaRlVl27l4EjNyGdGuNpuPX+S1/i1x02k4FnMVjUZjGq+k5te48kpOumpV1qZ9R4vX8VdiadCoCZ5eXgDUrF2HobVH3pD6FXTPAFmUtqLFXblMtZAaBFUNruiq2FVRn1EhhLDHuWFJgV0XEtAbjOw6n4BBb0CxWAPO3Ilmc5yRQVXJzNXzdJdGqIpCdp6BWRuOs+1MHBqdltf+2k/HukE80LYOCgqXU7N4YN4WjObzWDcv5ZdoFAXVCFm5Bj7ZeIK3+7dk1Qt9MBqN/LDzLCfj01Gv7ecM2/7dwLqVy0hNTaFho6bc1XeAxfb0tFQW/fYzRw/uR6fT0alrd4Y+OBKNRsvlizHMmvY2L//fOyxf8jvnzkbg5uZOv0FD6dajN6uWL+GfVSvIy8s1d1lM/fBT1q5cSmJCPM9OeIUpr4wnNSWZMxEn2bJhHY8++SyKomHBvG+Z9fU8wPQbcdjSP9m5dTNZWZk0b9GKh0c9ha+fPwCnjh9lyR8LiIu9jJe3D21v78QDD4+yeB+Lfv2JSxejmTjJshvyz99+4lJMDC9OepMPpr5Bl2496HV3f36fPw+/gABysrPZtnkDL7w2hezsLFYv/5tLMVHk5uYSUrMW9494hEZNmhd7n/Nyc/lz4c8c3Lcbg95ASM1aDB85mrr1GwIQHXmeRb/9TNT5c/j5+9N/8P106dbTfHzEyWP89fsvxF6+SECVQAbdP4Ilvy9g+MjRtGnfkVfHP8VjT42ldbvbzccsmPctAI89NRaAPbu2s3r5XyQmxFGjVm1GPPok9RqYFvyd+81n1GvQEKPRyI4tm0lPS6Veg0aMfmYcPr6m6Sry8vJY8dcf7Nm1nezsLGrVqcfDo56iRs3adj8nAJv+Wc3GdatIS02hSlBV+t47hE53dLe4Rz/M/oJD+/diNBp4dfxTdLmzJ/UaNGLH1k107tqD5Ut+p0fvvvTpN5Ds7CyW/rmQA3vDycnOonbd+gx98BEaNGoCwLxvP6dBoyYoisKGtStJS0uleWhLRo8Zz6H9e1gTtpTkpKs0btqcUU+Pw9vbclLXaW9Pom37TgwYMsy6/PZO1KxV1/wZTUtNYcor43ntrf/x6w9zCKgSyLMvvMrWzevZtnk9CfFxKIpCw8bNeOixJwmoUvwC0faO/XfjOk4cPUSXbj1ZE7aUuCuXqVIliJGPP0P9ho0B07jDvxf9yp6d2zAajbTt0IkaNWXRZSFudU4NS4qikJ6TR+vpq0jJzoP88UoKxKdlc9sHYaRk69G6aNlxPoEW01YSn5kDGtPyJtkGI43fXU7/0BoEe7uxPuIKUYnp5kV3s4wqHWet4a4m1fDQaVl3Kha90dQ6dTk1h9s+CCPHoP5/e3ceF1W5P3D8c2aGmQHZVxdEcgEEl8hMcc1d09Qyu2bXyuynVlq22b3dunUr7Xe9WkmZy1Vb1NRS3LfUzDQLl1BRFBdEQFTcYECRZeb8/hgYGQZk5EW/l9D3/Xrxejlznuc558wc53zP83zPc9DpreUtQML5HKKmbOBGkRnrs3gVpm1L4vuDabQP8ePUpVwOpF1Bq9OgoNB31o9oFQVV71Ltz+Hggb0sX/Qljzw+ktB7mnHsaCLfzJ9tV2ZO7HR0Oh2vvfUvCgsLWLxwLq5ubjw0eBgarYabN/NZMHsmI556lvHhb3Aq+Rix06cS2aotDw0eRoOGwSz9Zj7TYv9b4TZMmTGLT//9Pi0iIhk45DHAmg9S1rq479j76y6efu4FfHz9WBu3nC/nfs7Lk98m/8YN5n3+MX0fGkxM1wfJNZm4fCnLYT0PxHRh+pR/kpN9DS9v60Skqqpy8MA+Bg59zKG8olHYtWMbAYH1GTVmPAFB9Uk7k0Kb6HYMGf4EBoOBbZvWMf+LT/nokzl2DzKsyOYNqzmZfIyXXn8bdw8P0s+m2oKQXJOJmdM+pEPnbox6djzn0s+y+Mu5+AcE0SK8JVcuX+KLT6fx6ON/pcuDPcnMyGDhnFjyck23XWdZSYmHWLxwLsOffJqIyNbsj/+FWZ/8L+9Pi8XV1Q2NVsumtato37Ezk9/5EJ2LjoVzYlmzchl/HT0OsAYzmRlpPDl6LAEBQZw+mWybxuJ2x0ly0hHWrFjKcy++QkiTe7iUdbHCz+vZ8S+xYc0KTh5PYtKb1nyl3/f9xrn0s6xf9R0Dhz5GWEQUqqoy77MZ5JpMjB43AQ8PT/bs2sFn06fy9of/wc8/AI1Gw48/bMTXzxpEaBQNX/13FrM++TdXL19i2IhReHp58e1X89m0diXDRz5jty3tO3bht1922gVLWRcvkJmRztgJr5KZkXHrWFEUzGYz87/4lE5dexDZqo1tWe/+g2jYqDHFxcUsW7SAlcsW8dwLk5z6ziqrq9VoOXEsifwbNxg9biL+AYFs3biWr/47i/c++gRFUVj13WIS9sUz4qkxuHt4sGvHNjati8PNzd25A0YIUSvVaLAE1sGr1GvXSx79duuH26xCytXrtrSg/CIzKVfzrLfn2+5qswZNW45fAMCiqo4P3VUUfjqVhYKCxTasp1Csqtb2y23PzWILKVfzylRXQGOdjykjOx8VFY1WQ2kfVHr2Det+ON6k57QNa1bQu/9Aeva19iY1bRFOrimHXT9tAyDx4O9kpJ/lg2mxthP7iFHPMm/Wx/QfNBSNNarj8SefISwiCoAWEZEEBAZx7MhhOnfvWc0tuyXXZGLH1o08+/zLRES1BmDUmPH849UXSUs9A6jcvJlP9979MBpd8fTyplHjEId2Qps2xz8giN/3/UaPPgMASE05RV5uLtHtOjiUV7CeAF94ZTIGgxGA8MhWhEe2spUZMHgYv/3yM9nXrlbZW5BxNpXWbe8jOMSaE+Xt42tbtnXTWvwDgxg+8mkAAoPqk3kunW2b19MivCU7tm4iPCKKbj37ABAc0oThTz7N5zM+cvZjZG3ccrr17EOXkjyb/oMe4fjRRPb8vINe/QaiUTQ0DG7MiKduJS2379CZlcsXA3A8KZEjhxJ4Z8p0AoPqAxDUoCFQ9XGSnpZK/YbBtjy10h5BZyiKQq7JxPh3JhNa0guXePB3TiYf5/1pM22f+/CRz5CRlsYPG9bwxNPPoSgaXFz0THz9LXQ66wVFp6492Lx+FW+8/YGtR61z95789stOh/W279iZtSuXkZF21vadJeyPJ7RpcwIC69sFS6W/C12696LPgIdtb3d9sLddm9169GXz+lVO7fft6pYOw4+b+Lpt6Dqm64OsjVvOpayLGIxGdv+0nXETXyeydVsAWoRHMuWdyRQXFzu1fiFE7VSjCd5g/RG2VHJzWun7pUFUZY8SMatqyXxJVHilbFGxLXdoX3WsY1EpmUXcPigzq6rd+xWVvVMFBTfJzEinTfT9du9Ht+9o+/fpk8dpEtrMdgIECG3WghvXr3Pt6q1cpPoNG9m14eHphcmUXa3tKi/tbAoWi8Xuat1odKVBo2Ayz6XRoGEwXt4+LJwdS1LiodveGt0+pjP74/fYXifsjyeqzb24urk5FlYUmtzT1BYolXczP59LWdZgubi4qMr9iIhqzZ6fd7B9ywZbvVKnTxynddv77N5r2iyMzIw0AM6cOmEXpAFERLa2DXFVpbCwgIy0VFrfa7+Oe8qsA6B+g3Lfo5cXuSYTqqpy5FACzcMibIGS3fZXcZyEt4ziXHoaK5Z+Q+qZ03d0A4GiKOgNBlugBHDs6GGah0U4BKhtottx+lRyST1oFhZuC5TAmpTt4elpC5TAGrTmmnIc1uvj60fzsAgO7L11vBw8EE/7jp0dt7HkciUsIrLS/TDlZJOTc61awUpFdT29vG2BEmD77E052aSnpqBoNLQs839GURSHXEEhRN1T4z1Lf3a5OdYTRNkTHIBnmdc52dc4c/oEr0+wv0XaxcWF3FwT9cr8WJel1WkpLqqZK9ic7GtYLBb+Nmm83fvmYjN5ubm46PW89tZ7bFwTx4I5M1EUhYcfeZzuvfo5tPVATBdbzo6ffyAHD+zj0b88Wem69XqD3evreXlsWhfH4YQDFBYW3FESco8+AzAYjOz8cQtxyxfTIrwlz4ydgLePL9nZ19i6eR07tt2atsA6PYX1JJydfQ1XV/uATlEU3CoK8ipgyrZObTE3dgaKpkzAbbYQ1rLyE7xWq8NiMaOqFkymHHz9Ku49q+o4Cb2nGS+98Q+2bFjNx1PfxdvHj6eeG+9UrheA3kVv9zov14S3j49DOU8vL65dvVJ5O3o9imJ/3aXRaFAruRp6IKYrm9evYshjT3D1ymUy0tJ4YVLMbdq3P14yz6Wzed0qko8dxWg0Oiy/nTutqygKGo2G4uIiTKYc3N09HC6kPLy8KqkthKgrJFiqYZ7e1qEQU0623Uk/J+fW/ErePr60ahvN2AmvVdhG+R6SilS358u2Dd6+GI2uTP98QaVl/PwDGTVmPCOf+R/2x//C4oXzCGsZRYOGwXblAgLr0yS0KQf2/kpEZBtuXM8jqswUBlWZPXMaRqMrE179G4H1G2DKyebvrzzvdP1O3XrQqVsPrly+xKKFc1i5bBFjnn8Zbx9fevcfZBseLM/Ty8th3qvi4iL7CTAr/ZgVW47Wq39/l0bVnBrB3d2DixcyK1xW1XEC0CK8JS3CW5Kff4MNq1ewYHYsUz/+olrHh7u7Bxcq2BZTTg716nlUUKNEBeu63fqj7+/A8sVfcub0SVJOnSA8Msrh4qIyeXm5zJj6Ll269+adD/+Du4cnB+L3EPfdkj+0LoCXtw95udYewbL7Z8qumd5eIcTdq8aH4f7s9HoDDYMbOyRTH9j7q+3foU2bcyr5OPk3blR7PTqdjqKiqoepKhMc0oSiokJOnah6sketVkuHTt3w9fcn68L5Csu0j+nK/vg9HDwQz73tHsDFxbkE+fz8G5w5fZLBw0YQWL8BgMNwkkarcWpIzs8/gE5de9iCj9CmzUk8eKDS8qFNm3Mowf57Stgfb7d+b29fh6HP7OxrePn44KLX06hxCIdvs46qtIxqw6nkY1y9crnC7XP2OHF1daN3/0GYcrKrfVyFtYzi9InjDgFkwv54IqJaVVLrzrm6udGqbTT74/eQsL/iIbjKpJxMBhWGDn8Cdw9PALvnN2pKchwrOl6qqluVxiGhqKpKUuIh23uqqpKwP97pNoQQtZMES3+A/gOH8uMPG/hh4xqSjx1l9fffkpx0xLa8TfT9+PoH8PmMqSQlHuLsmdPs3rmd2OlTsFjMTq3D1y+AwoICDh88wOWsi3ecs+Hp5U23nn1ZOHsme/fsIv3sGRL2x/P5xx9x/lwGZrOZb+bP5tiRw2RdOM/un7aTffWKLSm3vHYPxHD+3Dl279x+Ryc/o9EVt3r1uHD+HGAdelry1Ty7Ml5ePhxPSqwwoPh190/s2LqJ9LRU0s+e4ecff6BJqDUPp+9Dg0lNOc2iBbNJOZnMqRPH2bQujmXfWHvTevUbRGZGOosXzuXk8ST2/LyDdXHf2w3NtL2vPds2r+f40USyLl5g146tnDiWZMuFGjR0OJvXrWLL+tWkpaaQlHiIpV/P55edPzq1/63aRtOsRTifzZjKkcMJXDyfye6ftpN65nSVx0la6hlWfbeElJPJXDyfyaa1cfgHBtnl3NyJNtH3ExwSyqxP/k1y0hHOpZ9l2aKFnM/MoN/AodVqszLtO3Zm36+7OZeRRtv72jtdz8fPn8LCQtuxkJaawsY1K2zLvbysvX2JB38nLy/3jupWxdPLm45durNo4Rz2/rqbpMRDzPtsBkVF8qgTIeo6GYb7A7Tr0Inc3Fy2b1nPxrVxhEVE8uKrf+P9t6zDKYqi8MKkyaxctoiFc2IpKiqiQcNGPNinv9PJxQ2DG/NAp658OfczFBTeePuDO97ORx4fiYtez+oVS8k1mfDx9aN9x874BwZhsVjw9PIibvliLl/KwtPbm1FjnsfPv+J8Ig9PT1pGtSYjLZWwllFOb4OiKIwZ/zIrly1iy/rVGI1G+jw0mBPHjtrK9BnwMN8v/Zqjhw8y9eMv7Or7BwTxw8Y1bN24loKCAiKiWjN0uHVSQy9vH16e/DZxy5cQO30KGo2We5q3sE2l4B8QyPOT3mDlskXs+2039Rs24pmxLzI3drqt/QGDHwVgyVfzyM01EVS/Ac+On2ibd6dN9P08OXocW9avZsOaFbi61SOydVui2tzr9P6Pnfgaa1csY/HCORQUFNAktCnNwyOqPE7cPTww5WTz9YLZ5GRfo1FwiNO3z1dEo9Hwwitvsmr5EhbMnklhYQGhTZsz6c1/4ucfUO12K9KqbTQqKq3aRGM0ujpdr3FIKEOHP8HMaR9iMBjw8vahV79BbFoXB0A9d3e69+zLd0u+JPnYEUaPm+h0XWc8NuIpFEXD999+hWpR6dC5Gx06d2P190ud33khRK2jqCVjDqqqYrFYMJvNFBcXU1BQQF5eHllZWbx7eZpDxfX9ltu9Dnt/HWezr/+hTwz5/6Yo0MS7Hif++XDVhUWd8eZLY3ni6efkLichhKjDBm35C//yn0xgYCDu7u4YDAZ0Oh1arRaNRmOXm1iDw3B1KEqyU1f3SwghhBDOqNGcpbrUqwR1b3+EEEIIcedqLFjyddVXdAdxraYo4O+mr7qgqFOGPj7SboJFIYQQf241FizdH+qHpbIpuWspi0XlviZVP5xT1C0xXR60e2yKEEKIP7caC5YGRDbCUujcbe+1haXQzIDIRlUXFEIIIUSdVWPBUtdmAQT5uFX74bN3GwUI8nGja7OavWVaCCGEELVLjQVL7nodnw5rh6XYTO2/g0zFUmzm02HtcNfLVFRCCCHEn1mNBUuKAkNaBxPTNBDUWt6/pCrENA1kSOvgOpe0LoQQQog7U6NTB7joNGx/qRehHgZArX333qsqoBLqYWD7S71w0cnTYIQQQog/uxrsWVJQAJ1G4eh7Q4gJ8Uc1W0p6Zu72oElFUUA1W4gJ8efoe0PQaaz7U52ntwshhBCi7qjRrpPSwEKnUdgyoSffju5CgKsec8ldchrFOlx3t/xpSuIgc6GZAFc9347uwpYJPdGVLJBASQghhBA1nr2sKAqqqmLQaRkWHcKAqEbsPHWRTUnn+f3sFS7fuHue0O3vpue+Jn4MiGxA9+ZBuOm1WPuTVAmUhBBCCAH8AcES3OqRUVBwN+gYGNWIgVG1ab4iCZSEEEIIYSUZzEIIIYQQt1FlsKTWtjvahBBCCCGc4GyMIz1LQgghhBC34RAslU9slkRnIYQQQtRFzsY8VSZ4V1Zx0Ja/VGOzhBBCCCHuDs52CFUaLCmKglarxcXFhdf048nPz6e4uBiLxYKqqrY/IYQQQoi7maIotj+NRoNOp8PV1RUXFxe0Wm2VQZNdsGS75b9Mo0ajEU9PT3Q6HQUFBRQVFUnAJIQQQohaoXyg5OLigsFgwM3NDaPRaLe8tHx5Dj1LZSvpdDoMBgP16tVDo9Gg1+spLCx06GESQgghhLgble9R0uv16PV6XF1dMRgM6HQ6h4CpvAqH4Uob1Wq1toBJVVXba7PZLMGSEEIIIe56ZYOl0vSi0t4lnU6HVqtFo9Hcdiiu0p6lso2WBkRlgyUZhhNCCCHE3a5sr1FpHOPi4oJer7flLJUGS071LJUWKg2UygZDpSsp26sEMmmlEEIIIe5eZXORyo6alfYwle9dum3OUukDcMs3WPq6fKAkvUpCCCGEqA3KJ3lrtVpb0FTRMFz5gOn/AIVO3P1y+AxsAAAAAElFTkSuQmCC;" vertex="1" parent="1">
          <mxGeometry x="170" y="140" width="437" height="166.02" as="geometry" />
        </mxCell>
        <mxCell id="wXIIDTwPPoFRgF2ShjLG-13" style="edgeStyle=orthogonalEdgeStyle;rounded=0;orthogonalLoop=1;jettySize=auto;html=1;exitX=0;exitY=0.5;exitDx=0;exitDy=0;entryX=0.5;entryY=0;entryDx=0;entryDy=0;strokeWidth=3;" edge="1" parent="1" source="wXIIDTwPPoFRgF2ShjLG-2" target="wXIIDTwPPoFRgF2ShjLG-4">
          <mxGeometry relative="1" as="geometry" />
        </mxCell>
        <mxCell id="wXIIDTwPPoFRgF2ShjLG-2" value="If there are already apps in your Narrative, delete them. Or label them as Release" style="rounded=1;whiteSpace=wrap;html=1;fillColor=#d5e8d4;strokeColor=#82b366;strokeWidth=5;" vertex="1" parent="1">
          <mxGeometry x="270" y="120" width="160" height="90" as="geometry" />
        </mxCell>
        <mxCell id="wXIIDTwPPoFRgF2ShjLG-5" value="" style="shape=image;verticalLabelPosition=bottom;labelBackgroundColor=default;verticalAlign=top;aspect=fixed;imageAspect=0;image=data:image/png,iVBORw0KGgoAAAANSUhEUgAAAaIAAADxCAYAAACJZrOCAAAABHNCSVQICAgIfAhkiAAAABl0RVh0U29mdHdhcmUAZ25vbWUtc2NyZWVuc2hvdO8Dvz4AAAAtdEVYdENyZWF0aW9uIFRpbWUARnJpIDE0IE9jdCAyMDIyIDA0OjE5OjIxIFBNIE1EVNCgekEAACAASURBVHic7N13dBRVH8bx77b0hBQCKZRQQu9VeOlNQAi9SRWpogIqdrGgiBQpKqAiClKCShNB6TX0EjoESUJLSK+QZDe78/6xyUJIAqQR1N/nHM/ZzN65984S98m9c2dGpSiKghBCCFFETp06lW1b/fr1La/VT7IzQgghxIO0OSWVEEII8aTIiEgIIUSxkiASQghRrCSIhBBCFCsJIiGEEMVKe/8SOiGEEKKwPWpRnIyIhBBCFCsJIiGEEMVKgkgIIUSxkiASQghRrCSIhBBCFCsJIiGEEMVKgkgIIUSxkiASQghRrCSIhBBCFCsJIiGEEMVKgkgIIUSx0hZ3B4QQorDp9Xri4uJwdHTEzs6uyNu7e/cugYGBREdH4+zsTL169XBycirydouayWRCrS768YoEkRD/IleuXKFSpUpP5Mvjcezdu5e0tLSHllGr1bRq1QorK6sCt3fjxg2+/vpr9u/fj16vR61WU6dOHcaNG0ejRo0KXH9OVqxYwffff8+dO3cs23Q6Hb1792bYsGG8++67TJ06lfLlyxdJ+0Vly5YtTJs2jRdffJFRo0YVaVsqRVGUIm0hDz5fu48PVu4AoHWtCuz85IVsZVIN6TgM+CTbdhudFk9XRxpX9mZkh4Z0qFspX+UzhUbGs+jPI2w/fZUb0Qkkp+gpYW+Nr1dJOtSpyOhOjfFydSyMwxai0PTu3Rt/f/9C+VIvKJPJxLBhw7h06dJDy7m7u7Ny5UpcXV0L1N7ly5cZO3YsycnJODo6UqFCBW7fvk1kZCRqtZoPPviA7t27F6iNB82aNYs1a9ag0+lo27YtFStWJCwsjN27d5OUlIRGo8FoNPLjjz9Su3btArU1Z84c1qxZg1arRaVSodFo8PX1ZfDgwbRr166Qjuienj17cvPmTQDGjh3L6NGj811XTnffvv/JD0/ViGj5rnud3Xc+lNDIeHxKOT/WvqmGdEIi4giJiOOXgHNM6NqU+aOey1f5dYcuMGTur+jTjVn2iU68S3TidQ5dus6RoJtsmTosH0cpRNFQFIXbt28Xdzcs1Go1CxcuZNy4cQQFBeVYxt3dnW+//bbAIWQymfjggw9ITk6mf//+TJo0yRLGmzZt4tNPP+Xzzz+nSZMmlC5dukBtZTp48CBr1qzB1dWVhQsXUrlyZct7gwcPZvDgwaSnpxdKW5n69u3Lm2++CYDRaGTXrl2899577N27t9D/+HjnnXeYPHkyer2eb7/9FpVKVWQjo0eO38PCwjh27FieKk1NTeXAgQNZhqqPsv9CKFfCYyw/K4rC8t0Pf4YFwOl5L3N63svs/OQF3uzVEq3GfEjfbDnCjtNX81w+RW9gzMINlhB6oX0Dfn1zIJs/GMqKyf14t29rapUvzcgODR/72ITIj1u3bjFx4kS6dOlCz549WbVqFQBTp06lW7dudO/enf79+3P06FHu3r3L+PHj0ev1vPrqq7z99tsAJCUlMXXqVPr06UP//v1Zv369pf7Y2Fhee+012rVrR48ePVi3bh2NGjXCaDT/7v/000/4+fnh5+fH6NGjuXLlCgDnzp1j4sSJzJw5k1atWrFgwQKmT5+epe+vvvoqv/32G05OTixevJgqVapkO77MECpXrlyBP6vjx48THBxMvXr1mDJlSpYv5e7duzN8+HD0ej0bN24scFuZ/P39AXj//fezhBDAp59+miWENBpNobV7f50dO3ZEpVIVyR8gTZs2Zc6cOZbPcvHixfzwww+F3g48YkR048YNfv31VwwGA7GxsTz77LOPrDA1NRV/f38iIiK4dOkSgwYNwt7e/pH7/bjzJAAatZpqZUpy/nokK/YE8kH/NqhUqlz3q1mulOV161oV0GrUTP9tLwB/HLtMixrl81TezdGO+DupAFT1Lsn3E3pma/OT59vzFM1oin+h9PR0Jk2aRK9evZg3bx6KohAZGQnA0KFD+eijj1Cr1WzevJm5c+eyevVqFixYQPPmzVmwYIHly+Ojjz7C29ub3377jaSkJEaNGkWlSpWoU6cOn376Kc7Ozmzbtg2TycRHH31kaX/9+vXs2rWL5cuX4+zszKFDh5gwYQJr164F4PDhw4waNYodO3YQExPDoEGDmDRpEnZ2diQlJXHy5Ek++cQ8Je7k5MSiRYsYP368ZWRUmCEEWKb/WrduneP3RZs2bVi6dCmXL18ulPYAxowZw/Dhw2nQoEG296ZMmUJycjJgDoxq1aoVWruZDAYDf/75J87Oznh6eha4vqCgIObNm5dtFOfg4EBsbCwAixYtAuDFF18scHv3yzWIoqKiLCEEEBgYCPDQMLo/hABiYmJYvXo1I0aMQKvNPfOSUtJYe+gCAC1rlKdzA1/eXr6N4Ig4Dly8RssaPo99QM9ULWt5HZ306BHZg+XdS9wLzfC4JMJik3I8F/SwcBSioPbv34+dnR3PP/88YP598/DwAMDX19dSztfXl5iYmBzriI6O5sCBA+zZsweVSoWTkxM9evRg165dlCtXjoMHD7J9+3bL/5tjx45l27ZtAKxevZrJkyfj7GyeGm/WrBlVq1Zl586dVK5cGXt7e0aNGoVKpcLT05O6deuybds2evbsyZ49e2jcuLFlX4ASJUrw4osv8tZbbwHmKabCCiHAcgx6vT7H9zMXTNja2hZam7Vq1cr1vRo1ahRaO/dbv349W7ZsAcwr9WrVqsXXX3+NTqcrcN179+7l6NGjjyy3aNEiWrdunW0UWBC5pkNaWppliJ7pYWH0YAjdX4/JZHpoJ9YcOMedVPMvUK9natCxXmXeXm7+H2LZrlN5CqLTofeGqJ4uj15M8GD5Mm5OtKtTkV1ngkm8m0btV7+i3/9q4tekOu3qVMRG91SdVhP/Ujdu3KBSpUo5vrd7927Wr19PcnLyQ7+AIiIi0Gg0li9/gOTkZGrVqkV4eDiurq44Ot77f+T+cydhYWHZVnl5enoSERFB5cqVKVGiRJY/xvr06cOSJUvo2bMnO3fupGvXrnk+5oLIXAiwdetWhg4dmu18yR9//AEUbkCMHTuWpKQkwDzqmT9/fpZzXSaTiZdffhm9Xs+SJUsKpc1evXpZzhFt27aNpUuX4uPjUyh1P249DRo0KNQ/IuAh54jKlClD9+7dsy0DDQwMZOvWrVm2paamsmbNmmwh5ODgwKBBgx55Ei1zWk6lUtHzmepU8XKjipcbAL8dPG8JqZzciE7gZkwiF25Esuivo8xYu8/y3nONquar/KrX+tO7mfkXNuFuKku2n8DvsxV4DJ/BkLm/cvZaRLZ6hShMXl5eXL9+Pdv2I0eOMHfuXN566y2WLl3KO++8k61M5rSxh4cHOp2OefPmsWDBAhYsWMDSpUt57bXXcHFxITY2Nst53KioKMtrDw8Py4qpTLdu3cp1CqhFixZER0dz8uRJzpw5Q6tWrfJ13PlVu3Zt6tWrR3BwMFOmTLGcM7l79y5fffUVGzduxNbWlp49s0+159eJEycICgoiKCiI2rVrZ1twsWbNGo4ePUqpUqVyqaFgOnToQHp6On/99Veh1NexY0cCAgLYt2+f5b9169bh5eVlKdOgQQPmz59f6AsjHrpYoVq1ao8Mo7S0NNasWZPtZFlmCD1qNcylW9EcCboBQGNfb7xdzReBdW9snlNNTtWz/sjFXPevMGYOPqNnU2fi17zy3R+W0BrdqRFtalXIV/mSTnb8MmUggXMnMNmvORVLu1j64r//LA1fW2hZZi5EUWjVqhWRkZGsW7cOMP91fePGDW7fvk3lypXx9vYG4OTJk5Z9dDod1tbWlj8I3dzcqF+/PgsWLLDMbly6dIng4GA8PDyoV68ec+fOJT09HYPBwPfff2+pq1+/fixatIiEhATAvEIsJCSEDh065NhftVpNr169+OCDD2jRogU2NjbZylhbWxfCJ5O7adOm4eXlRUBAAN26daN9+/a0adOGZcuWAZCSksJ3331XJG1HRkZagjs+Pp7Fixczd+5cbGxsGDt2bJG0qVarGT58OEuWLHnkrNPjsra2xs7ODjs7O+7cucOkSZMICwsDzMut58+fX6jTm5keOc+UeZJt06ZNWQ42MDAQo9FIVFRUvkMI4McdJyyvjwbdRNt7arYyy3adYkjrujnub2ulI9WQjlatxs3RlgaVvBjRroFlRFOQ8rXKl2bWiM7MGtGZc9ci+H77cRb+eRSTovD52n20rOlDp3qFN08qRCYrKysWL17MrFmz+Omnn9BoNAwYMAA/Pz/27t3LlClTUKlUVKhQwTJFplKpGDhwIKNGjaJkyZKsWrWKTz75hNmzZ+Pn54dKpcLHx4eJEycCMGPGDD777DM6d+6Mk5MTQ4YMYcuWLahUKvr3749er2fkyJGkpqZSunRp5s6d+9C7FHTv3p1vv/2WLl265Ph+8+bN8fPz4/fffy/8Dwzz1OGKFStYtmwZO3fuJCIiAg8PD5o1a0abNm348MMPWbFiBYqiMHny5EJps127dpw9e5Y9e/awZ88erK2tLeej7OzsmDFjRpFeyNq1a1e+++47tmzZQrdu3Qq17ilTplhG5UUZQpCHC1ovXbqULYxykpcQSjeaKD96NhHxyahVKqqVcc/y/q2YRBLupqJSqbj67WuUK1ki2wWq6euyX6x6v7yWf5SJSzbzzZYjAEzq3pzZL3QuUH1CPC1CQ0MZPXo027dvz9f+AQEBTJs2jS1btuR6ZweTycSMGTOoUqUKffv2LUh38yw4OJhx48YRGxvLG2+8wcCBAwtU386dO2nXrh1JSUn4+/uzd+9eIiMjcXR0pGnTpgwdOjTLtNY/zSeffMLvv/9OvXr1WLBgQYFulVRoF7TmNjK6X15CCGDz8ctExJuXOHaqX5k/3h+a5f0FfxzitaV/oigKP+8O5L1+rR+3uwVyIzqBsiVL5Piem+O9fwy1rJwT/xKJiYksXLiQli1b5mv/uLg4vvnmG1544YWH3l5IrVbz7rvv5rebBVKxYkUWL17MRx99RMmSJQtcX/v27QHz8vQxY8YwZsyYAtf5NHn//ffp0KEDDRs2LPJp1TwtAXtYGOU1hAB+3HVvfntEu+xr8Qe3rsvby7ehTzfy855TTySIFEWh3QdLsdJqeLa+L7XLl8bdyZ609HROXg1j/qZDlrKd6su0nPhne/XVVwkMDMTBwYFWrVrxyiuv5LmOefPmsW3bNvz8/Ojfv38R9LLwVKxYkeXLlxd3N/4R1Go1zZs3fyJt5Xktck5hlJ8QiohP5q+T5iu1XR1s6d44+wo3N0c7ujeuxtpD5/k7PJaAi9doWNk7r13Ok1PB4YRExAFw+VZ0ruVe8/tftvvTCfFPs2DBggLXMWnSJCZNmlQIvRH/Vfm6KOb+MLKzs8tzCAH8evAc6UZzkA1sWQfrXK7PeaF9A9YeOg/Aqn1nijyIGlTy4sDno/Hff5ZDl28QEhFLYkoaGrUaL1dHmlcrx+iOjbLdsUEIIUT+FOju2xEREdjb2+Pg4FCYfRJCCPEvUqR33y6su9gKIYT473o6np4lhBDiP0uCSAghRLGSIBJCCFGsJIiEEEIUKwkiIYQQxUqCSAghRLGSIBJCCFGsJIiEEEIUKwkiIYQQxUqCSAghRLGSIBJCCFGsJIiEEEIUKwkiIYQQxUqCSAghRLGSIBJCCFGsJIiEEEIUKwkiIYQQxUqCSAghRLHK9qjwsLAwwsPDi6MvQggh8qBOnTrcvHmT2NjY4u4KAK6urpQpUwadTpen/bIEUVhYGCkpKfj6+qJSqQq1g0IIIQpOURQUReHvv//m5s2b6HQ6KlasWNzdAiAqKoqbN29SoUKFPO2XJYjCw8OpVq0aWq1WgkgIIZ5S6enpADg7OxdzT7Jyd3cnODi4YEEEoNVq0el0EkRCCPEUUhSluLtQ6LIFkUqlsvwnhBBCFDVZNSeEEKJYSRAJIYQoVhJEQgghipUEkRBCiGIlQSSEEKJYSRAJIYQoVk8kiHbu3MkHH3zwJJoCYM2aNU+sLSGEEAXzRIKoevXq9OzZ80k0hdFoZOPGjU+kLSGE+KeKiIiw3KEhk6Io3L59+4n3JdsFrUXBy8sLLy+vJ9EUMTExmEymJ9KWEEL8EwUEBPDzzz/j6+vLK6+8gpWVFYqisGzZMg4dOkSXLl2e2OABCimIfvzxR+Lj45k8ebJlW0pKCqNGjWLatGmEhISwZ88epk2bxvbt2wkNDUWn07F7925mz55NbGwsS5YsISoqCltbW7p06YKfnx9gvv/djz/+yMWLF9FqtTRp0oQRI0Zga2tLWFgYs2bNokePHqxevZrWrVtz6NAhTCYTr7/+OgBz5szBZDLh7+/Prl27UBSF2rVr8+KLL+Lo6Jhjf9zd3QvjYxFCiKeOwWBg5cqVKIpCUFAQX331FRMmTMDf359Dhw4B8Oeff9K4cWO8vb2fSJ8KZWqubdu2HD9+nJSUFMu248eP4+Hhke2usGq1mv3795OSksL06dNxdXXlyy+/pFOnTvz000/MmTOHRo0aAaDX65k2bRrly5dn0aJFzJo1i9jYWL799lvAfDuiyMhIduzYwRtvvEGfPn14/fXXUavVzJkzhzlz5gCwYcMGrly5wqxZs1i8eDHOzs588803ufZHCCH+rXQ6HZ07d7b8HBQUxHvvvWcJIYBGjRo9sVksKKQg8vHxwcvLi8OHD1u2BQQE0Lp162xlVSoV1tbWjBkzxpK2SUlJloO2s7OzvN65cycODg4MHjwYBwcHSpYsybhx4zh8+DARERGo1WoMBgNjxozB19cXa2vrbO2ZTCY2btzIiBEjcHFxQafTMXjwYAIDA7lz5062/mg0msL4SIQQ4qnl5+dH165dLT8nJydbXjdq1IgXX3zxid5vtNDOEbVp04b9+/fTtm1b7ty5w7lz5xg7dmyOZT08PCxf+BqNhkGDBjFjxgxq1KhBkyZNaNWqFTqdjpCQEGrVqpVlXzc3N1xcXLh27Rrly5cHeOjwMSoqipSUFL7++ussH2yJEiWIi4vL1h8hhPgv8PPz4/Tp09y6dcuyzd7enqFDh6JWP9krewotiFq2bMmqVauIjY0lMDCQGjVq4OLikmPZB5O2e/futGjRgmPHjrF9+3b27t3Lxx9/jMlkyjWV79/+sOTOfO/jjz/Gzs4u2/tBQUFyp3EhxH9K5sKE+0MI4M6dO3zzzTeWBQxPSqHFnpOTE3Xr1uXAgQO5Tss9jIuLC506dWLatGlcvXqV6Ohoypcvz8WLF7OUi46OJj4+Hh8fnxzr0Wg0licYApQsWRIbGxvOnz+fr+MSQoh/m8zVcZk8PT0trzMXMDy4tLsoFer4q02bNmzfvp2QkBAaN2782Pvt3r2biIgITCYTZ8+eRaVSUaJECTp06EBUVBRr1qzhzp07xMTEsGjRIlq2bJnryjYXFxcURSEkJASj0YharaZ79+4sXbqUCxcucOfOHS5evMiiRYv+lQ+YEkKIhzEYDBw/ftzyc6NGjZg6dWqWc0ZXrlwhOjr6ifWpUK8jatiwId999x1NmzbN07Du9u3bbNy4kZiYGFxcXJg4caJl//fff59ly5axadMmrKysaN68OcOGDcu1LgcHB7p06cKHH36ISqVi4cKF9O7dm/T0dObNm0dKSgqlS5emU6dOBT5eIYT4p9HpdIwfP55FixZRr149Ro4ciVqtpkePHqhUKrZs2cKgQYPw8PB4Yn1SKfcNC06cOEHt2rXlUeFCCPGUUhQFg8HA2bNns10ekxdpaWk5rjTObfvjCg4OpmHDhlm2nTp1Klu5+vXrW17LTU+FEOI/KLewKUgI5ZcEkRBCiGIlQSSEEKJYSRAJIYQoVhJEQgghipUEkRBCiGIlQSSEEKJYSRAJIYQoVhJEQgghipUEkRBCiGKV5V5znp6e3Lp1y/KcHyGEEE+X+2/WHB8fj06nw97evhh7dE9UVFS+nnKdJYi8vLwICwvL8b5AQgghni5lypTh5s2bBAcHF3dXAHB1daVMmTJ53i/LTU+FEEKIwiY3PRVCCPFUkyASQghRrHJ9MF5ycjIODg5Psi9CCCGK0ZqQOPaEJ5FkMOZ5X0edhjaejgyo4JLnfbONiEwmE69MGE/DenU4c/p0nisUQgjxz7MmJI5N1+PzFUIASQYjm67HsyYkLs/7ZguiN994nV9/+YWEhAT69eklYSSEEP8Be8KTiq2ebEF0/yK6vIbR7Jlf4OHuRiWfcsTEROdarnvXLni4u9Grhx8ApwMD8XB3w8PdjRs3ruf1GPLkxo3rlrbOnTv70LJDnh+Eh7sbr74y4bHr79q5Ex7ubnw67ZNHlg0NDeHNN16naaOGlPX2pHKF8nTv2oXVq1byX1vMmNPvQMCBA3i4u/HmG69nKZuffxchxMPldyRUGPVkC6KZs+fQu09fy8/5GRnduXOHrxcsyPG93bt3cezY0SzbtDot7u7uuLu7o1FrHrudoubs7Iy7uztOjk6FXvfmP/6gbauWLF/2E9euhaLVaEhPT+fYsaNMnvgq58+fK/Q2n2Y5/Q7k9odCUf67CCGevGyLFTQaDV99sxCAdWt/A+6F0a9r11Onbt3HqvjHpT8w7qUJlC5dOsv22TO/yFa2Zs1anL1wKc+dL2pfL1xUJPWePXuG8WPHoNenUbt2HWbOnkP9Bg0AOHP6ND8vX0atWrWLpO2nVU6/A7mFcVH9uwghikeOy7czw6ggI6PU1FQWzJubZdvOHds5cfx4trL3T8uEh4VZtv/6yy90bN+Wct5e1KpelRdfGE5oaAjLfvoRD3c32rdpzQ9LvqdW9aqsXrUSgL179tDTrzuVfMrhU9abZzu2Z/26tTn28UpQEH1798SnrDdVfSsx8ZWXSYiPt7yfOQX02qSJAFy6eJHRL46kYf26+JT1tkylHdi//7E+k0yzZ36BXp+Gg4MDK/3XWEIIoE7dusya86Xl56SkJKa+/x4N69elrJcHdWpWZ/LEV4mIiLCUqV2jGh7ubly4cJ533n6TWtWrUr6MF0OeH0RCfDz+q1fRplULynp78r9nmrBxw/pC2bdXDz883N145+03Ldvun/o8cfw433272FJm3969dOvamfJlvKhdoxrz7/v9uP934Mjhw3i4u/GLvz8Ay5f9hIe7G/369Mrx3wUgPCyMVyaMp2a1qpTz9qJD2zb89eeflvcVRWH+vLk807gR5by9qFe7JsOGDObSxYt5+rcT4r9Io1LR0duJhc3LsaJ1BWw0hXvlT661PSyMTgcGPrTSevXro9Vq+Xn5csJu3bJsn5UxGqpdp84jO/bptE94ZcJ4zp45Q+XKlSlXvjzbt23n5o2bljKXLl3ko6kf4OnphYODA39u2cKgAf04fOggXt7eVK1WjdOBgYwfO4Yl33+XrY3JE18lODiYunXrkXI3hTX+qxk2ZDAmkynHPun1ejb9vhFFUWjUuDGeXl4cO3aUIc8PJDQ05JHHBGDQ69mzezcAAwc9T6lSpXIvazAwoF8fvvt2MfFxcTRo2Ij0dCOrV63E77muJCQkZCk/oG8fft+wkUqVfTEajezYvo2O7dsx6dVX0Gq0VKxYkatXr/LSuLFcv36t0PZ9HJs3bWJg/74kJydTubIvUVFRfP7Zp2zftjVbWUdHB+bMnUfVatUAaNb8f8yZO4/xL+V8Tig6OpquXZ7l119+Qa1W0aBhQ4KCghg5YhgHAwIA+Hn5Mj7/7FPi4uNo3aYN5cv7cOhgALGxsXk+FiH+ayo7WdPPxwVjzl+NBfbQWNNoNEz/fAZOTvfm4hMSEpg/78uH7AXly/vQp28/9Po05n45B4BtW/8i8NQpypYtR7/+Ax66f0hICAu//gqAL2bNZtfefWz5axunz56jSdMmlnJGo5GfV65m+67ddPfrwUdTP8BkMjHihZHsDzjE1u07mfbZdABmTP+M5OTkLO00a9acI0ePs/GPzfy5bRs6KyuOHDnMtq3ZvxwBatWuzYGDhzkZeIbf1m1g15592NrakpqaSsCBAw89pkyRkZGkpaUBWL5oc7N+3TpOnjiBvb09O/fsZeOmPzh4+Ajly/tw7Voo33+7OEt5L29vDh87zsZNfzAu40v7+vVrfPTJNHbs3sOOXXtwdnHBaDSyfdu2Qtv3cY/78y9msmffAXbu2UvLVq0AWJMx6rmfi4srg4cMxcvTCwBfX18GDxlKu/Ydcqx79qyZhIeFUbNmLQ4fO8GG3zfxw48/YjKZmDH9MwCOHjkCwJtvvc3PK1ex8Y/NnL90mSZNm+b5WIT4r7merOeVw9e5nJhaJPU/NIgSExMZNLA/iYmJlm2VKlVi+oyZj6x48uuvo9Vq8V+9imvXQi2joYmTJ6PV5HodLQAH9u/DZDLh6eXF8BEvWLa7uLpiZWVt+dnOzo42bdsC5hVo166FAjB+wr2/nF8Y+SI2NjYkJydz/NixLO2MHjsWnZUVYD5H0bZtOwD27duTY7/UajWVfX1RFIVr10LZs3sXVhn7Pzg6eRwqleqh7+/ba+5H1+eew8enAgDOLi48P2QIAHv27M5S/vnBQ3B0dASg7n3n8kaNHgOATqejXLlyAITdNwVa0H0fh7u7e5Z/y7r1zPeZKoxVkpmjqueHDLHchbhd+w5oNBqOHz+GXp9GlSpVAZj+6TTefectjh07ipWVNVrtw38XhRCQYjSRZiy6lby5BlFiYiID+vXh1MmTlm2VKlVi7Ybf8fDweGTFPj4V6NO3HwaDgSHPD+LsmTN4lynDgIGDHrlv5nkaLy+vh5a7/9bnsTH3plg8PT0tr7VaLe7u5umvB5eUe9xXDrAc1/113S8qKoqXXxpPjWpVaNqoISNHDCcpKW9r5kuVKoW1tTlMr/7990PLxsbEZPQz6+fg6WHud0x07kvkbWxsct5ubd6uzxiVFfa+j0urMa+MS00t+F9Y0VFRAHzw3rt4e5TC26MU5bw9MRqNmEwmbt68sCmeBAAAIABJREFUxfiXXmLM2HEYDOksXbKE7l274Pdc1yzn2oQQxSPHIEpMTKR/3975DqFMk157HY1Gw5WgIABenTgJnU73yP1KursDEB4e/thtObvcu61EZESk5bXRaCQ62vxF5fLAczKio7J+kd++fdvcfsmSObbx5huv8duvv9C4cRN27d1HyPWb2VYFZi49zu06IJ2VlWUUt8bfP8toM7djinzgyzKznw8ez5OmVptHdIrp3rHef35NrS7YCU1txu+K0fjw6xJc3dwAeO2NKezcvdfy3559B9iz7wBly5RBZ2XFJ59+RuDZs0z//AvKl/fh6NEjvP/uOwXqoxCi4LJ9UyQkJNC/b28C77ttd35CCKBChQr06dcPAE8vL55/fvBj7deiRUs0Gg1ht26xYf06y/akpCRSUlJybatsWfPU0f0LE35evoyUlBTs7Oxo3LhJln2W//Sj5Yvz3Lmz7N69C8ASFA/K/EzefPttatSomeO0TmY4hD9k+uqNKW+hs7IiNjaGkSOGERJyb6HD1atXmfXFDABatW4NwJ9bNlsWfSQmJrLGf5W5n21y7ueTUrq0+ffhzJnTluC9//fmwRFnXrln/EHyqIUg7dq1B2D/3r1UqFiRatWrU616dbzLlMHZxQWdlRXhYWHo9Wm4uroxctQo3p869bHqFkIUvWzfpGNGjSyUEMr04Ucf07NXb7y9vC3nYx6lTNmyvPzKq8yfN5fxY8ewdMkSHBwcOHHiOLO/nJvjPiqVig8/+YTRI19g8aKFBAQcwM7WjqNHM05Sv/0Ojo6OxMffuw/S3r17aNn8GUp7eHD82HEMej0tW7WifYeOObZRvXoNwsPDWbxwIS1atmTL5s3ZRm3tO3Rg29a/WL9uLcHBV3nt9Tfo9GznLGVq16nDwkWLeWXCSxzYv59mTRpRsmRJ7ty5Ywnart260adPX35c+gOnAwNp27ol9Rs04ML580RGRlKmbFnGjB33WJ9nURk8ZCgb1psXVLRp1QIvTy8CMlapPdu5c5Yp0vxo2aoVq1auIODAAZo3bUyHjp345NPPspV748232LF9G0eOHKZxg3rUq9+ApKQkzp45Tdt27fn+h6V8MeNz/tj0OzVq1KRU6dKcOGG+jKBNxnlBIUTxyTYiun9lUkFDCMDNrSTt2rV/5AqxB73z3vss+HohdevV4/TpQE6cPEHDRo3xqVAh1326devOSv81NH2mGVf//pvAwFPUql2brxcuYtz4l7KV/3rhYjy9vDhx/Dh29nYMGz6CH5f9nOsigllzvqRd+w78uWUzs2Z+Qfny5Xn51YlZyjz//GCGDhuOs4sLZ06f5vr1nE/Gd/frwe59Bxg2fARly5YjISEBlUpFvfr1+eiTaVSu7IvOyopf165n1Ogx2Nnbc2D/fhRFYcDAQfyx5a8s05HF4X8tWrB2/QbatG1LTHQ0hw8fwqeCD++89z7ffv9Dgevv0bMXL738CqVKleLatWu53mnB09OTv7bvZOiw4Wh1Onbv2kloaAgtW7XipQkvA9Ddz4+mzzQjJCSYv/7cgjE9nZGjRvHGlDdzrFMI8eTk+ITWxYsWsn7dWpb9vLJAISSEEOKfYcjewpumXtE664AhX09oHTf+JbZu3ykhJIQQosjJE1qFEEIUKwkiIYQQxUqCSAghBI66wnkET37qkSASQghBG0/HYqtHbrQlhBCCARXMl4PsCU/K11NWHXUa2ng6WurJCwkiIYQQgDmM8hMkBSVTc0IIIYqVBJEQQohilWVqLi4uLrdyQgghxGNxyePtx7IEUV53FkIIIQpKpuaEEEIUKwkiIYQQxUqWbwshhABgTUicXEckhBCieKwJiWPT9fh8759kMFr2z2sYydScEEII9oQnFVs9RRpEL40bi4e7G107d8rx/V/8/fFwd6OSTzlSUlIY8vwgPNzdePWVCUXZLSGEEA/Iz3RcYdVTpEE0YOAgAE6eOEFoaPan//3++0YAnuveHVtbW5ydnXF3d8fJ0akouyWEEOIpkmMQJcTHc/jQwceqIDQ0hEsXL+b4XstWrfDy9gZg/bp1WdtISGDv3j0A9Os3AICvFy7i7IVLfDr988dqWwghxD9ftiCKjY2hVw8/evXwY+WKnx+688WLF+j67LM81+VZjhw+lL1ytZp+/foDsG7tb1ne2/rnnxj0ejw9PflfixYAlqm51yZNBGDs6FF4uLvx9ltv8tqkiVQoV4Z1a3/Dw90ND3c3YmNjLPW9+soEPNzdGNS/H2AO09cmTaRurRqUL+NF4wb1mfL6ayQkJOTl8xFCiP88jUpFR28nFjYvx4rWFbDRFO5kWrbaRo18gQsXzqMoCm+8NjnXMLpw4Tx9evYkNjaGO3fuMGhAf6Kjo7OVGzDoeQCuBAVx7txZy/aNGzcA0KtPX9Tqhx/UiuXL2PT7RmrUrInJpDzWgb315hRWrVyBjY0trdu0xcXVhQ3r12FjY/NY+wshhDCr7GRNPx8XjKaiqT9bAvTq3QeVSgWQaxhduHCevr16ZRmRtGnbFldX12wNVKxYkcaNmwCwbu1awDwtt2/fXgD69uv3yE7a29tz8MgxNv+5FS8vr8c6sCNHDgPw088/s3zFSrbt2MXpcxewtrZ+rP2FEEKYXU/W88rh61xOTC2S+rMF0dBhw/n8i5m5hlFOIfRct258+/0PuY5sBgwyL1rYsH4diqLw159bMOj11KhRkxo1aj6yk42bNMXd3T1PB1a1alXAPN0398s5hIaGYGdnl6c6hBBCQIrRRJrx8Waj8iPH5BjxwkhmzJyVLYxmTP+MPr165hhCOp0u10Z69OyFjY0NYbduceTwIX7faF4t17d//8fqpL29/WMfUKZ5C76mQ8dO3Lp5ky8+n07zpk14ffIk0tPT81yXEEKIopPryZnhI17gi1mzs4TRvLlfEhcbaymTGUJa7cNv0ODo6EjX57oB8OPSpezbtxe1Wk3vPn3z3mG1yvL6/vNFisk8eanKGJV5eHiwYtVqAg4dYeKkydjZ2bFyxc+sWL4sz20KIYQoOg9dJTBs+IgsYXS/bt26P1YIZcq8pmjjhvUY9HpatGyJh4dHnjtcqvS9fU4HngLAaDRy9qx5IYSnpycA166FAlCpcmXeee99+vY3LxEPDQ3Nc5tCCCGKziNTZNjwEahUKt5843UUxTwC6datO4u/X/LYIQT3rikKu3ULgL4Z1w7lVcWKFflfixYEHDjAqJEv0KxZc65dv8bVv/9Gp9MxeMhQAPr36UNqagpVqlbFycmJXTt3AtC6bdt8tSuEEKJoPNZi8KHDhjNz9hxUKhXduvvlOYTAfE1R/4xRia2tLc9165b33mb4afkKJr/2Ol7e3hw8GEBSYiIdOz3L739soUHDhiiKwuixYylXrjynAwPZ+tdflC7twYyZs2jbtl2+2xVCCFH4VErmMOcxXLp4kcq+vnkOISGEEE+3IXuz34Ytv1a0rpDl51OnTmUrU79+fcvrPCVKterV89ktIYQQImfyGAghhBDFSoJICCFEsZIgEkIIgaNOU2z1SBAJIYSgjadjsdUjy9+EEEIwoIILYH7Ud36esuqo09DG09FST15IEAkhhADMYZSfICkomZoTQghRrCSIhBBCFKssU3NJSUk53uBUCCGEeFwODg55Kp8liBwdC2fVhBBCCPG4ZGpOCCFEsZIgEkIIUawkiIQQQhQrCSIhhBDFSoJICCFEsSq0OytkPl9PpVJhynitVqlISjOw6ewttl4I43R4PAkpBngaVogrUMJGRx0vZzrX8KJ7bW8crXVZ+n7/MQkhhCgahXeLH5UKFWA0KWjU5i/uxQeuMH/3RS7dTgAToFGD+in6UjcpnL4Ww89HrlLNowQT21ZnXAtf4N5xPPbja4UQQuRLnh4V/nBKxpe3moikVIYvP8jWwOtgrcXKSosKUBRQeGoGRKgAlcr8Wq9Ph7R0nq1XjmXDmlPa0QajyZQRqk9Dj4UQ4p/pUY8KL7RzREaTglqlIjIplY5f7WDr6RvYOtliZaVFMYHJpFhGF8pT8F9mP0wmBcUEVlZabJ1s2Xr6Bh2/2kFkUipqlQqjScZEQghRlAotiBTMYTTopwDOhsZg62iDwWhCMSn3hh5PI5UKVKCYFAxGE7aONpwNjWHQTwEY7wtPIYQQRaPQzhFp1Wq+3neZXadvYFvCFoPR9M86yZ9xjiszjHadvsHigCu83KoqQWEx1Hh5PgAHZ4yhSZUyWXa9HZ9MuRdnYVIUjs0ez1vLt7LrTDCv+f2PmSOezbXJa1HxzFy3nx2nr3IjOgFrnZbKnq50b1yNyX7NcbS1LtAhbT5+mR7TVzJ1QFumDmhboLoelKI3MH/TIWau30/i3TSWTezD4NZ1cyy773woH6/ZzYm/b6HVqGlZw4fPhnSkRln3HMsbjEZs+32c43u7po2kVU2fwjoMIcRToNCCKP6unlm7LqG20WE0Kf+sELqPKmM6Tm2jY9auSwxpVIEqXm40qVKGo0E3WXPgbLYg2nD4AiZFoYqXG/UreuLqYEtpZwcc7XIPkpCIOJpMWUxccgrWOi3ebk7EJqVwKjicwJDbDG1Tr8BBdOZaRIH2f5hn3vyW89cjH1luz7kQnv1oGUaTCSuthhR9OpuOXWLPuRCOzBpHFS+3bPskp+gBcHWwxad01mejlHbO280UhRBPv0ILog1nb3I9MhGrjCXQ/9QgAjApClqdhuuRiWw4e5MRTSsytE09jgbd5LeD55n1QmfU9x3fusMXABjYsg4A/m8MeGQbS7YfJy45BS9XR05+OYGSTnYAhMclsfNMMBVKF/zhVGdCbxe4jtw42loz98WufLkxgBvRCbmWe3/lDowmE35NqrFicj/SDOl0/ng5J67e4t2ft/HbW4Oy7XMnzQDAc42q8uOrvYvsGIQQT4dCO0f054UwUDJOufyDQwjM/VepACXjuIABLWpjpdVwKzaRgIvXLGVjku6y73woAINamYOo00c/oe09lXd/3g5A7xmr0PaeynsrttNvpj+OA6cRl5wKgIuDrSWEADxdHBnywBTXH8cu0/zt73AcOA3n5z+l44c/cfDSdcv78/84hLb3VDp99BMf++/CZfBnaHtP5deAcwB8smY32t5TeWnxJss+u88G0/q9H3AcOA23IdMZMvdXIhPuAHA65Dba3lOx6/8x6w9foMKYOUz7ZU+WPu2fPopXnnsGK60m188xKCyGw5dvAPDhgHbYWetwcbDljZ7/A2DLiSDupOqz7Zecsc3GSh4gLMR/QaEF0bnwBNCoKbTV4MVMURTQqM3HhXmaqEvDKgCsOXDOUm7jkUukG000qOSFr2f2aab7zdkYwN5zIdSv6En9ip4AnL8eSY/pK9lyIgh9evbnxP8acI5eM1ZxNOgmVb1LUs69BLvPBtNh6o9ZwgjM52JmrT9AJU9X3urd0jLt1a1xVb59qQdD2pgDbuupK3T+eDkBF69RxdsNbzdH/Pefpcf0lVnq06cbeX7Or5Swt8kSlvB4f2wEhoQDYGulo7ZPacv2RpW9LfUHR8Rl2+9uRhBdvhXNy9/9wbB5v/HNliOkGtIf2aYQ4p+n0P7kvKtPB7UKRVH9Ky67URQVqFXm48owtE09Nh65yNqD55k/qisatZp1h88DMChjWu5hvF2dODV3Ak521pgUhSNBN/hp1yk2H7/M5uOXcba3YWDLOrzfvw0ezg4oisJby7aiKArv9WvNx4PaAzBu0UaWbD/Buyu2s+fTFy31G00Kh2eOpl4Fc8gdunyDoLAYGlT04sUODS3lJi3ZgtFk4p0+rZg2uAOKoljCcMuJILxdnSxlvxjeiVe7NcvXZ3grJhEAFwebLFOZpUrYZylTu3zpLPvdSTMH0b7zoZbR5qp9Z/j14Dl2TRuZpS4hxD9foY2IVCoVKMpTu0o7r1QZV+De/5d/14ZVcHWwJSrxDrvPhpBwN5VdZ4JRq1QMaFH7kXW2ruWDU8YCBrVKxZKXe3Fk1ljGdGqMm6Md8XdSWfzXUWq+vIBjV24SFBbD9YzzL5O6N7fU82o38+tDl26QojdYtpcrWcISQrm5Eh7DlfAYACY890zGsaro3MB8R4nML/5Mfk2qP/K4cpN5uyRDuinLdvV9d9cw5TCCruThxtQBbfnx1d7ErXyPLVOHYaPTcuDCNZbvDsx3f4QQT6fCnYT/t6RQpgeOx0qroX+L2iz+6yhrDpzldnwy+nQjrWtVwMv10U+3dbDJvgquYSVvGlbyZv7orqw9eIEJ324i4W4q767YwceD2gFgo9Pi4mBr2cfbzdyW0WQiNjnFst3exuqRfYjKOA8EUH7UbMvrzCnVa1HxD/T50XXmJnNklXA3NeMuFea/e6IT72Yrcz8vV8csy8071atMr2dqsHr/GQIuXmNEu/rZ9hFC/HPJ2eA8GtqmLov/OsqGIxcJj0sCHm9a7lF0Gg0DW9bm/PUIPl+7j6vhMZbwSTWkk3g3zTKauh2XDJhHVS72tg+tE8yBlcnN8d65nr2fvZhtibiTnTWxSSkUhswpN326kbPXIiyjtWNXbgGg1agfe3WgrbX5V/X+4BVC/DvIYyDyqGmVsvh6uhGXnMJfJ6+g02jo06xGnus5HXKbORsDCI2Mt4xGklP1HMpYZVa+lAtVvUtaRgwL/zxi2ffrzYfNfalaFjtrXa5tlHY2n4u5ejvWsq2Klxs+pZwBOHDxGjXLlbL8p9WoKVuyRJ6P5X5bTgTx3ortJN5No2a5Upbw+WLdfgxGI0kpacxcvx+AZ+v7WsJ1/h+HmP/HIQDOXYtg8V9HLavn/g6PZcPhiwDUeeB8khDin09GRPkwuE1dPlq9C4BnG1TOMm32uH7adZKvNh/mrWVbsdZpKVXCnsiEO6QZ0tFpNLzfvzVqlYoZwzsxdO5vvL9yB5tPBJGSZiAwJBydRsPnQzo+tI02tSqyat8Z/Pef5UxoBC+0b8Bkv+bMH/UcvWes5u3l2/Dff5Zy7iUIjYznTOhtjswai1ad+5LshzEpCv1n+pNqSKeEvQ1v9mrJtMHt8ftsJb8GnGPrqSukG03cTTNgZ61jekb/D126zutL/wSgWZWyrN5/hq82H2biki14ujgQHpeM0WSipJMdY55tnK++CSGeXoW3WIF7i+UURbn3LJ/7tj0OxfI8oHtPjHjaloQPaV3Psoghv9NyYzs3YULXppaRSER8Ml6ujjzfqg7HZo+jfZ1KlvrXvjWIxr5lOHU1jCvhMbSpVYFtHw+nRY3yD21jWNt6vNSlKe5O9ly+FU1QWDRgvlB05ycv8Gx9X0Ij49geeJV0o4mpA9pSxatkvo4HzFOF3RpXxc3RjlY1fADo0qAKf304jBY1ymM0KWg1ajo38GX/9NHULFcKgKpl3Kme8Z+vlxvv92/DhwPbUaOsO5EJd3CwsaJ742rs+WwUni6PPhcnhPhnKbTHQJSduoGbMcnodBrLSX6Toljuyq1Rq9BkPDQvtzsvKIr5GUDpJgWj3ggq0Gg1qNXmh9Q9yQtlVYDeaKKCmwPBH/o9sXaFEOLf5lGPgSi0qTl3B2uS0wyk6I0YM7LNWqPG0V5HisFIcpoBQ1o66LTotOpswaIoCmq1irTUdOztrKjq7YLRZOJKZBKp6SbLw/byIqc2/ul3fRBCiH+bQpua2zCqFUHvd6dKKSfSjSbSUw2Ma+HL+Xefo0PV0qjSTfRuXIGyLnYY040PBARo1Cr0qQZaVinNsTee5cSUzgS+1ZUjrz+LjVadZeXX41AwXx+jZIzKMkdhT9cknxBCiEILohvxd3B3tMG3lCOkm0CtonmFkrjZWxN4M573n6vD2hdbsmp484wn092LBJVKwZBuws3RljUvtKC6RwkOBEfx3f4gFMDRWospjw+oUykZoyyVCnsrDVYZtx9SPWXnm4QQ4r+u0KbmDgRH06yCOzU8nFhnNKGzt6KGRwmS0wyExCQTlpBKqsHI39HJ5oBABRkjFo1ajTFVT4vapfAsYcuhkCjazttOeooe+xJ25rtha+5N52kyHmZnyhjpgHn0o1bdyziNRkVKqoFGFdz59YUWrD19gym/HTffHRzzQojMEZNJubcgInMKUFEwtyOEEKJIFVoQnQmLQ61SUdvTGUwK7g42VCrpwLHrsShGE98HBLH+zA2ik1LR6jTojSYUgxGVlQa9EbibhncJW0wmhX1/R5KeasDB2Y67eiMqlXlFlkoF6UYFQ5renDjWWqy0ahTFvDDCkJoOGjVqjRp9qh5MCiaTgo+bAyXtrVFSDahsrFChkJaWDulG0GqwstaSub4vLS0dFNBZaTDeTSO9RN6XZgshhHh8hRZEQZFJJKYaqOFZAtQqyrnYY6XVcOJGDKSlU7q0E1VKORLtYE1QeAIeznbU8ipB4M04XO2s8KhQkmvxd1GrVTQu7wYaNYZ0E1q1yjLq0RuMONroaFvTCxudhgPBUYTF3kGj02Cj09C0ciluJ6ZwMz6FjnXKsP1iGI3KuWI0KZR2tMG3rCvXElLQG4w08ClJTQ8nLkYkcjwkGp2VBkWBZyqVQqtWcSg0mi4NyhOfanjEkQshhCiIQgui8MQULt5OoF4ZF9S2Oiq7m+8eHXgzHgxGans5s31CO5YfCWb41zvp9ExFfhrSjN8Cr9O7TllO3oyl1ZytRCen0a6KB292qcXM309j42QDqDCmG/FwtGHLS+2oX8bF0mav7/ZyJCiCsuXc2Plye07eiMVao6amlzNtFuzg24FNMRiNdK7hxfyBTej6xZ9M7F6XeX0aWfr+xvqTzNl6DitbK1YPb467gzU7Lt+mR52yDFkeUODPZvPmzXTs2BErq/zft00IIf6tCm2xQnJqOqdvxWGt1VDa0ZZqpZxQqVScCYuHjFVvJkXBYDSZrzPKmE7rVacMPx8L4bO/zpGSYmCs/xEUReELv/pM7FKb1OQ0tBoVxrR03uxYk/plXJi98yJj/Y/i6WTL5z3qW+76nWow0qCsKxHJqYxedZjAG7G8/OsxNGo12y6FM8X/KB6eznzRoz7nbyfQZvZfXLqdwOd+9fByd8SQbiQpNR07Ky3VSpfgzXUn+DsquUCfy5UrVzh37hwnTpwopE9aCCH+XQotiBQUTtyIRVEUfN0d8HV3JMWQztXoJMg4j3P/qX+joqAC/E9cY8Si3WwIvIG1ow3rjoYwevURTIrCvD4NGdqyCneTUrG2t6ZLdU/06UZm7rzAdzsucDkikf9VKImTqz0phnSstGquRifR/utdLNkbREJSKgeuRqFWqbgVn8L5KxE0qeiOtVbD9wF/s3f3Jb4/dBWtWkWzCiVR9OnoNOYl3r1/2M+s9Se5nZRaoM8lIMA8ojp27Bh6ffankWb6OyYF7Xt7uRB5N8f3fWcfYeHhMH44Hk6r73J/FEJSmpH3toVQ7cujOHy4nzIzDtHxh9NsvhRToOP4aEdogfYXQojcFNrUnE6j5kxYAiqVirplXPB1d+RyRCLxd9JArUZByXgEd+aqNPPPlyKTUFtrsbWzQp9uxMbBmh92X0KtVvPtgMYs7N+YgKuRxNzVU9bFjvgUvXnVnU7Dtbg7VC3thIejDUmp6ahVKq7H3oV0I45ONiTdScPRRouiKNho1ah1Wiq62aMoCl4lbOnStjreJWxRqVRUdXcEk4JOqyYt3URYwl20znb5upA2099//01ERAQAKSkpnDx5kmeeeSbHspXdbKnv5cDac1HUaJf11j3HbyZxPSGNvrXdiUsx4OGQ+xTf6HWXuRKTwvxulalc0pb4lHSO3EjiRkJavo/DYFSYue86H3XwyXcdebFnzx4CAgLQ6/U0bdqUrl27ZnlfURROnDjBzp07qVmzJt26dcvyflhYGFu2bOHWrVvodDratm1Ls2bmh/tdu3aNLVu2EBYWhoODA506dcpyhbcQ4skrtCCy1mq4EpVIutFEiwrulHO1Z/3pG2AwgVbNg1eSKhmBpFGrMCkZjypQqTAqYONkw/c7L/BMeTdGNqvEsKYV+WLHBay1GhJTDSiAyahgMpm/lKy1GhKVdMvdGQDzFCDmpdmqzFsLmUzY6DSoVCpeb1uNNzvUwJBuxGA0odOqLcvJM68/Sjfm7SJavV5PfHw8sbGxxMXFcfbs2SzvHzlyBIPBgKurKy4uLri6umJjY2N5f0CdUqw4FcEHDwTRb+eiaFfJmVL2OkrZ66haMutjuzOlmxQ2XYph6wt1aOFz7y7aDb0Ldn+2m4lpGJ/Q5VeHDh3i5MmTjB8/nrS0NBYuXEi1atWoWLGipUxiYiJXrlzBwcEBV1fXbHXcvn2b5s2bU758ea5evYq/vz81atRAo9GwfPlyevToQfXq1bl8+TL+/v7UrFlTzt8JUYwKMYjUhMXd4UpUEm19S+Nmb82h0GjzfJxyL3gyPTjOUKlUKBkPT1OjQqPT4H/yGi88U5HqpZ3QqtWWWweZy0NmuplHVw/evuf+27BmvFKpMJrMQTPht+NsOX0DK5uMWxClGlDb6jCfwlLdv9djuXz5Mhs2bHhomdTUVA4ePJhl2//+9z9atGgBmIPona3BBEWnUKXkvWXja89F8V5bczj9cDycZScj2DemHt8dDScwPAkbrZofT9zm+MvmBRghcalZguhBV2JSmPTH3+wPicdaq6ZnjZJ8+VxlHK01XI6+S98V53mjVVk+2B7C0Pql+e1sNEaTQp35xwE4M7ERRpPC1B2hLD0ejqJAu0rOLPDzpaSdLlu/Tr3SCB8Xm1z7k8lgMLBz504GDx5sCZhKlSoRHBycJYhKlCjBoEGD+Oqrr3Bzc8tWT4MGDSyv69Spw+rVq0lOTiYyMhJPT0/q1DHfqLZatWqYTCaMRuMj+yaEKDqFdo5Io1JBWjonb8Ti7mhDutHE6VvmhQqgPPIrPXOqLi1Fz900A8YUA/ZWWvPoR1G4k6on7q6eEjZWKBkXoLrZW6NSQewMswlsAAAMqUlEQVRdfbYptAevRc0MwqjkVBTAaFK4cS0GG62Gr/o2omWlUpjS0lHf/4nkYVauatWqeZ7i8fHxyTJVV7aENc+UdWLtuSjLthO3kghL0tOrZva7YqtVsCowksQ0IwfHN6C8szXvtS3P6HWXGbD6AkuP3yY4Nus5rhSDiWeXnqaOhz2hbzXjxMuNuJWoZ+z6yxl1qgiJS+X7Y+H8+nxN3mvrwy/P10CjVnFmYiPOTDSH3Rf7bnD4eiInX2lE6FvP4OFoxcjfLufYrzIlsj5874cffiA4ONjy88mTJ1m/fj1XrlzB5v/t3X1wFPd9x/H37t7ek/UAkhESekCAwGBbQCemIUOjhocKk8YGUtuh9I9mGNvjaZNpx5kkMxln2nQ6kxlTmjr/wHTSJI09E9cGu0PjTAgh8RAZjFEsU2FAlUGAjKRYupOEsE/3tNs/9nRIlnjs4RX085rRoLvd2907NPu5/f1++/uGw8ybNy+/rLS0lI8+mrrfLB6PT3lFNF5XVxfBYJCKigqi0SixWIxk0mumPHjwIA0NDUQiuldMxE+FKwNhGOC4vHNhiHTWofdigq7YJSzL8q6IciPmsrmpesZG0I1N3ZN1XaJBi3/YuJxPzS3nU4sr+ca6JZiGwdHzcZzhBG93x4mGAnx2wSzm18zkvqpSTvdfojf2IaGARTrrkMnNSTc2U8LYfjOO10TY3jOMaRg89gd1mGGbTUtr+OKyWsK2lb8BNpN1xr3++j+D5uZmHnjggWuviPdN/5FHHiEQmHhR+qWlFex593IQ7T7ez4OLyigNT754HZu+aNemRSyZFSVgGnzrc3W8/sRyZhfZ7PhtN4t2HGHVrjbe/b1XIvzfWnuZGbH57vr5lEUC1M0I8a+bF7Hn3QFOxxOYBoxmHHZtWsSna0uI2pP/RLKOyz8dPM+/fKGBquIg4YDJd9fPZ19nnMFEZsrjGq+2tpaenp7840OHDtHU1MTZs2eZO3dis2QqlSIUmlxiPZFIMDo6ysyZV67wmkwmefXVV1m3bh22bXPPPffQ2NjIjh07eO655+ju7mbr1q1XfL2IfDIK1jTnejOX8s77cWzLpPdigvjFUSIRm0TSxbZMbMukJBwAxyUcsLAtk2goAOP6ZL794P18+8HG/HbfeX+QHx56DyMa5J9/fYrP31fNfz7xx+SmNeXZAydxR9OEctufGQnmhnMbkJsayLZMioIBCAY41h3nlyd7aV5Sxentj1Ffdhfv9g7z8+MXMMM2MyJBisN2/vU3OsvP2rVrMQyDo0ePXnGdBQsWsHnzZi+kP+bRxll87eenORMfZX5ZmFeOD/CPzfOm2Ipnfll40ol+ZV0JK+u8yq5dg6N87bXTbHz+OB1P/yFtPZdYM3/GhPVrSkNUFQdp7/uQxkqvquuV+qEAzg0luZjM8pe7T024aKy4y6Z3JHXF48rvr6Ym33925swZysvLKS8vJxaLUVVVNWHdgYEBFixYMGkbsViMkpKSSUE+JpPJ8Pzzz1NdXZ1v+uzo6KC9vZ2VK1eSTCZ56623GBwcnLRPEflkFSyIHNcF26K9Z4idLZ282TWAiYvrghmw6B76iJ0tnRzu6seMBDnRN8zOlk7eON2PaXsn5NFUlsd+2MLWB+opDtkcOTfA9359iuFEGjsa4sDJXr6w63W2fWYBtmWy551u/v3IacyiELGPUuxs6aSzfwTTsnBcF9Oy6BlOsLOlkyNnY5gBCxf48x+38M0/uY8VdWX84kQPz/7qBIl0Fts22dnyHmV3BUllvYlbb2aO1Lq6uqsGUU1NzZQhBDC7KEhTfSl7jvfTvHAmfZdS/Oniyf0gY8xrJOW8mWG+/1AD9c++ybmhJNlxAzomb2vq3z9ubJe/eXzZlFdqb56/eNXjqqmpYd++fYA3vH3t2rXA5KufdDpNb28v9fX1k7YRj8en7B8CyGazvPDCC4TDYR599FEMwyCVSvHSSy/x5JNPMnu2V248k8lw9OhRHn5Y9aZE/FTAIDLAMhn4MMVf/eQQBCzskE3GcbBsi//5YOTy88Uhjpwd4EhHH9jeelnHxbRMXn6ri5ePngXLhHTWm08uaOE4DsFwgNeOdfPasW5vp66LHfFGO/VfSnrbt0zssLc9y7Y4M3Apt18TO2QDMJhI882XW8EyIOtC0MK2LVzX5Tt727xh3NGgN+z8JoJoYGDgqsv7+/uvuvxLSyv4QWsvI8kMDy8pn7J57EYMj2YAKIsGWFpZxMvtH0xYfn4oSd9IiqWVRRMGhIwZm2bJdb0QqisNURS0eP3MEBvvvfGKriUlJSSTSfr6+shms8yZMweAaDTK0NBQfr22tjYqKyu5++7J+4jFYlP2DzmOw4svvkggEGDr1q2YuU6/np4eIpFIPoQAAoHAtKv+K/L/UQH7iIBchdVIcZhQ7v6dsRmubcu8/LzjEgxY3uPQxPXC0RChiE3QtggXhQhaJo6TW+64hCLB3I9NOOp9e3bH7TccCU7YXiC/Xzs/NNu2TMJFIUJhm/BdIYIBK/caCEdDhIvDN900BxODxjAM6uvrJzQhXSuIvnj/LP679xI/+l0fW5ZWXPd+XRc2v3Cc7x+6wNH3R3h/OMnvLozwlb2dfP6ecmaEAzy+oopzg6P8/a/OMpjI0D2c5IlXOviL5bOvOLKtqiSE60JbzwjprPdZP/3ZWv72Z+9xsGuIodEMvz07zOOvdFx3cM+ZM4c9e/bQ1NSUf66+vp729naGh4e5cOEC+/fvZ/369YA36GD37t35dccPVDh8+DAtLS24rsvu3bvJZrNs2bIF8ILJdV2Ki4sZHBzk1KlTpNNpOjo6aG1tZfny5df9+YrIrVGwKyIg32aTcS6XZhj/7/jn3Susl3Gc/OOxodb54dSGQXbcctd1Jtwkez37Ba8Z0c3fIjRxH1nXBffycO+bMRY0DQ0NNDU1MWvWLEZGRnjjjTdob28nHo/jOE7+2/rHlUUCrGso4/D5YZoXXn1U2Hgu8Gf3zeInbb/ney3dfPBhmtlFNg8tvjt/M2pJyGLftmU8/dp77GjpJhIweWxpBds3TO6HGX88X/lMNat/cAwDOPONlXzrc3WkMg5b/+MkF0czzC+L8NSn51x34cGamhpOnjw5YVj2ihUr6OrqYvv27ZSUlLBhwwYWLlwIeEHU19eXXzcWi9HQ0ADAiRMnqKqqIp1O8/bbbwPwzDPP5Nfdtm0bixYtYuPGjezdu5eRkREqKyvZsmVL/mpMRPxjuAVqm5j/nb10xS55BegKsUGfGUAq6zCvvIgzf3djfQgHDhxg8eLFVFdXT1oWj8dpbW1l9erV2LZdoKMVEZm+2traJj03/naXwl4RCUC+830qZWVlNDc3f4JHIyIyvRWsj0hERORmKIhERMRXCiIREfFVYYPoTrsn4057PyIi01DhCuPl7na8U87drku+LISIiNw6BQuiaNCbNNQw7owTt2G44LhEgxpYKCJyKxUsiO6vmgHZyzeb3u4Mw4Csw/1VV67rIyIi/3cFC6IN984Bb1ac2745y83Nq4aRe18iInLLFCyINjXWUFdRQiadveaM0NOdaRhk0lnqKkrY1Fjj9+GIiNzRChZEM6JBvr5mCc5oGsu8fTv5xyZQdUbTfH3NEmZEg34fkojIHa1gQZRxHJ5a1cCaZbUkRkaxLdMLo9slkMbNzJ0YGWXNslqeWtWQr/gqIiK3RuHKQACWafDTL6+isb48H0aGaXjTQk/XQBqbbds08iHUWF/OT7+8Css0uL0bGUVEpr+CBZGVK55WURxm/1fXsX5ZLYmLCVKpDIYJ5riTujENfsaOwzQNDBNSqQyJiwnWL6tl/1fXUVEcxsk104mIyK1TsJtkXAws0yDruMwuDvOLv17DrpZOnvvNSU71DYODV3V1Op3YHReyDpiwuLKUv1m9hKf+yKt/k3VcLNMraTGNjlhE5I5TsHpEY5sxDO/KyMj9PpJM81/tF9h3oodjvUMMJ9LT48zuQmnEZlnVDNbfO4eHGqspDuWquOKNnBv/nkRE5OZcqx5RwYJIRERkKtcKIs2+LSIivlIQiYiIrxREIiLiKwWRiIj4SjUOruHcuXN+H4KIyA2ZO3eu34dwQxRE13C7/YeKiNxu1DQnIiK+UhCJiIivFEQiIuIrBZGIiPhKQSQiIr5SEImIiK8URCIi4isFkYiI+EpBJCIivlIQiYiIrxREIiLiKwWRiIj4SkEkIiK+UhCJiIivFEQiIuIrBZGIiPhKQSQiIr5SEImIiK8URCIi4isFkYiI+EpBJCIivlIQiYiIrxREIiLiKwWRiIj4SkEkIiK+UhCJiIiv/hcEuFEtRLovAwAAAABJRU5ErkJggg==;" vertex="1" parent="1">
          <mxGeometry x="60" y="340" width="418" height="241" as="geometry" />
        </mxCell>
        <mxCell id="wXIIDTwPPoFRgF2ShjLG-14" style="edgeStyle=orthogonalEdgeStyle;rounded=0;orthogonalLoop=1;jettySize=auto;html=1;exitX=1;exitY=0.5;exitDx=0;exitDy=0;entryX=0.5;entryY=0;entryDx=0;entryDy=0;strokeWidth=3;" edge="1" parent="1" source="wXIIDTwPPoFRgF2ShjLG-4" target="wXIIDTwPPoFRgF2ShjLG-6">
          <mxGeometry relative="1" as="geometry" />
        </mxCell>
        <mxCell id="wXIIDTwPPoFRgF2ShjLG-4" value="Click on the letter R in the app&#39;s tool box&amp;nbsp; " style="rounded=1;whiteSpace=wrap;html=1;fillColor=#d5e8d4;strokeColor=#82b366;strokeWidth=5;" vertex="1" parent="1">
          <mxGeometry x="60" y="310" width="110" height="80" as="geometry" />
        </mxCell>
        <mxCell id="wXIIDTwPPoFRgF2ShjLG-15" style="edgeStyle=orthogonalEdgeStyle;rounded=0;orthogonalLoop=1;jettySize=auto;html=1;exitX=0.5;exitY=1;exitDx=0;exitDy=0;entryX=1.013;entryY=0.693;entryDx=0;entryDy=0;entryPerimeter=0;strokeWidth=3;" edge="1" parent="1" source="wXIIDTwPPoFRgF2ShjLG-6" target="wXIIDTwPPoFRgF2ShjLG-5">
          <mxGeometry relative="1" as="geometry" />
        </mxCell>
        <mxCell id="wXIIDTwPPoFRgF2ShjLG-6" value="" style="rounded=1;whiteSpace=wrap;html=1;fillColor=none;strokeColor=#b85450;strokeWidth=4;" vertex="1" parent="1">
          <mxGeometry x="412" y="344" width="30" height="40" as="geometry" />
        </mxCell>
        <mxCell id="wXIIDTwPPoFRgF2ShjLG-7" value="" style="shape=image;verticalLabelPosition=bottom;labelBackgroundColor=default;verticalAlign=top;aspect=fixed;imageAspect=0;image=data:image/png,iVBORw0KGgoAAAANSUhEUgAAAaEAAAD+CAYAAACTB7pUAAAABHNCSVQICAgIfAhkiAAAABl0RVh0U29mdHdhcmUAZ25vbWUtc2NyZWVuc2hvdO8Dvz4AAAAtdEVYdENyZWF0aW9uIFRpbWUARnJpIDE0IE9jdCAyMDIyIDA0OjIxOjI3IFBNIE1EVNuSQHMAACAASURBVHic7N13VBRXH8bx72yhoxRRmopdsWOLiQVrjL3EbppGTWJPL8YUE40tapJXTdPYNbH3aOy9F6xYwAKIdJDO7rx/rGxAQEFWMcnvc47nwOyde+8suA/3zp0ZRVVVFSGEEOIxOXnyZI5tdevWBUDzpDsjhBBCZNLlllBCCCHEkyAjISGEEEVGQkgIIUSRkRASQghRZCSEhBBCFBld5jI5IYQQ4nF40AI4GQkJIYQoMhJCQgghioyEkBBCiCIjISSEEKLISAgJIYQoMhJCQgghioyEkBBCiCIjISSEEKLISAgJIYQoMhJCQgghioyEkBBCiCKjK+oOCCGEpRmNRqKiorCysqJ48eJPpL2AgABu3LiBtbU1NWrUwNPT87G3+7gZjUY0msc7VpEQEuJf5Pbt29jZ2VGsWLGi7goAZ86c4fbt2w8tV6dOHUqWLFno9pKSkvjpp59Yv349cXFxAJQpU4YBAwbQvXv3Qtefm4MHDzJx4kRCQ0OzbX/22Wf58MMP+fXXX6lduzadO3d+LO0/Lps2bWL8+PEMGjSI119//bG181SF0MSVe/h08V8ANK9Rju1fvpajTEp6Bg69v8yx3Uavw8PFkQYVvRjYuh6ta1d4pPKZgu/EMnvzYbadvsrNyDjuJqdR3N6aSp4laF2rPIPbNsDTxdEShy2Exfz666+0aNGCZ599tqi7AsDWrVtZtmzZA8vodDp++OGHQodQYmIigwYN4sqVK1hZWeHr60tSUhI3btxgwoQJnD17lnHjxhWqjfv99ddffPzxxxiNRurXr4+fnx9xcXEcOHCAAwcO0K1bNwwGA6VLly50W7t27eKDDz7A1dUVVVVRFIUqVarw5ptvUrlyZQscTXY//fQT6enpzJkzB1VVGTx4sMXbgKcshBbs+Pt233vOBRN8Jxafkk752jclPYOg8BiCwmP4ff9ZhrVvxMzXOzxS+VUHzzNg+h+kZRiy7RMZn0Rk/A0OXrzB4cBbbBr38iMcpRCPT1hYWFF3IZu3336bxMRE1q9fn+vrOp2OiRMnUr9+/UK3NXPmTK5cuYKfnx9ff/01bm5uAAQEBPDBBx+wbt06GjduTJs2bQrdFkBMTAxffmn6A3fChAm0bdvW/Fpqaiq9evUiJCTEIm1lKlu2LL///jsAaWlpzJ8/n5EjR7JlyxaLtgPw0UcfMWbMGNLS0vjxxx9RFOWxjIgeGkKhoaGEhITQoEGDfFeakpLCsWPHqFu3Lvb29vnaZ+/5YC6HRZm/V1WVBTtPMq53iwfud3rGcAAi4xP58+QVvl23nwyDkf9tOkynBlVp4lu2QOWfq1aGIbPWmAPotVZ+tK9XGTtrPTF3Uzh/8w7rjl5kYOt6+X4/hHgUKSkpTJ8+nT179mBjY0PVqlWZOHEiR44cYcaMGcTHx2M0GmnYsCGffvopkyZNIiAggB9++IFFixbx2Wef4ebmxrx589iyZQtGo5FnnnmG0aNHo9frMRqNzJgxg82bN6PX62nTpg0nT55k+PDhNGzYkODgYCZPnkxwcDA2Nja0bduWIUOGoNFoGDlyJM2aNWP58uVUrlyZCxcusGrVKnPfFyxYwIULF5g4cSKffvopqqqyYcOGbMeXGUAtWjz4/3h+JCUlsWHDBhwdHZk0aRLOzs7m12rWrMlnn33GsGHDWLFihcVCaN26dSQlJdGvX79sAQTw888/Zwugx3FexcrKii5duvDjjz8SHx9v8SnYRo0aMW3aNN555x3S0tKYM2cOiqIwaNAgi7bzwBC6efMmf/zxB+np6URHR/P8888/tMKUlBSWLVtGeHg4Fy9epG/fvvkKonnbTwCg1Wio6l2CczfusGjXKT7t5Y+iKHnuV73M30P45jXKodNqmLBiNwAbjl7KEUIPK+/qaEdsYgoAVbxK8POwrjna/LJfK1RVfegxCVEYU6ZMISkpiTVr1mBtbW0+51CxYkVmzpyJm5sbqampvPTSS+zZs4ePP/6YwMBAhgwZYp6OW7JkCYcOHWL+/PnY2Njw+eefs2jRIl577TWWLVvGiRMn+P3333FycmLZsmWcP38eMP2VPWrUKAYPHkzHjh1JSUnh3XffZd68eeYPoaVLlzJlyhTKlStH9+7dOXHiBH5+foBpmirzr2aNRsO4ceNQVZWNGzcClg0ggODgYNLS0mjYsGG2AMrUsGFD7OzsuHTpkkXaA2jRogXVqlWjevXqOV7r2rUrDRs2NH9ftWpVi7Wb1Y4dO6hVq5ZFAigwMJAZM2aQkZGRbbuDgwPR0dEAzJ49G8CiQZRnPEdERJgDCODUqVP8+eefD6wsawABREVFsXTp0hwHdb+E5FRWHjT98jf1LctL/nUAuBYew74L1/N/NMAzVf6ee41MSCxwebfifwdmWEwCodEJue73oGAUorDi4+PZvHkzn3zyCdbW1gDm1VYuLi7mqSYrKyt8fHzMHxL3W7FiBYMGDcLOzg6NRkO/fv3YsWMHAGvXrmXo0KE4OzujKAp9+vQx17t3715cXFzo2LEjADY2NgwdOpSVK1ea6+7Zsyfly5dHURS6devG6tWrAdPsya1bt2jcuLG5rEajYcyYMebv/fz8LBZAAFqtFjCFZ26MRiMZGRnY2tparM0yZcrQsGHDXP/I9vb2pmHDhuZ/lhql3Lp1i379+tGvXz/at2/PzJkz6du3r0Xq3r17N0eOHOHEiRPZ/t3/uzV79myuXLlikTbhASOh1NRUDIbs50ROnToFkOuI6P4AylqP0Wh8YCeW7ztLYorpl6fbM760qVORDxdsBWD+jpM09fV5+JHcczr475U4Hs4PXzhwf3lv12K0rFWeHWeuEZ+USs2R39Pzuep0bliNlrXKY6N/qk6jiX+pW7du4ebmhoODQ47XoqOj+e233zh79ixWVlbcvHmTRo0a5VpPeHg4c+fOZcmSJQBkZGSg1+sB0/kjHx8fc1lFUcwhFBISQtmy2WcRPD09iYiIMP9/zrr0uXPnznTp0oX4+Hi2b99O69atze08CeXKlcPe3p7Tp09z8+bNHAsB/vzzT9LS0vD19bVYmzNnzuTw4cPm70eMGJEteLOWmTBhQrb3+lF5e3ubf5YAZ8+eZeTIkXh6euY6IiuI/PbPz8+PMmXKFKqtrPL8RPX29qZTp06sX78+W4jkFkQpKSksX748RwA5ODjQt29frKysHtiJzKk4RVHo+kw1vFyKUdnTlcDQKFYcOMfM1ztgb5N7HTcj41AUhfikFHafC+ablXvMr3WoX+WRyi95uxdv/biOVQfPE5eUwi/bjvPLtuM42FjRsUEVPujejJplSz3wmIQoDHd3dyIjI0lOTs7x1/u7777Lc889x08//YROp+Pjjz82v3b/CN3d3Z3Ro0fn+uHr5OSU4wM7MjLSvN+ePXuylQ8JCaFUqVK5nt9wcnKiSZMmbNy4kb/++ovRo0cX/KALwcrKit69ezN37lxGjRrF559/Ts2aNTEYDGzdupVvvvkGwGKjBoBz584RGBgIQK1atahdu3a218+fP8/SpUtxcXGx6Id2VjVq1KBGjRqcOHGi0CHUpk0bmjVrlm3wERkZyfDhw81TwX5+fsycOfOhn+kF8cCzZVWrVqVTp045fumyTs2lpqayfPnyHNcCZAaQi4vLAztwMSSSw4E3AWhQyQsvF9OwtVMD0xzq3ZQ0Vh++kOf+5YZMw2fwVGqN+oERP20wj6gGt62Pf41yj1S+RDE7fn+vD6emD2NM52cpX8rZ3JdlewOo9/Ys81JyIR4HFxcXmjdvzuTJk81TTNevm6amb9++zXPPPYdOpyMuLo6rV6+a93NwcMj2x2DXrl357rvvzNfM3Llzh6NHjwLQqVMn5syZQ2xsLGCauouIiACgWbNmhIWFsXnzZgCSk5OZM2cOffr0ybPPPXr0YNGiRURHR1OnTp0cr+v1+sd64ePgwYNp3LgxN27cYODAgfj7+9OsWTPGjRtHUlISYFp2nJycbPG2ExMTuXjxIqqqkpaWxqZNmxg+fDgZGRkMHz78sR33uXPnOHv2rMXOOVlbW2NnZ4ednR2JiYmMHj3aHEB169Zl5syZFp3ShHysjss8uNxGRAaDgYiIiEcOIIB5fx03f30k8Ba67jnX8c/fcZIBzWvn2A5ga6UnJT0DnUaDq6MtfhU8ebWlH90b5z7sLkj5GmVLMeXVdkx5tR1nr4fz87ZjzNp8BKOqMnHlHppW96FtnYoPPUYhHsWnn37K999/T+/evQGoXr06X331FWPGjGHq1Km4u7uTnp6e7cr87t27M2nSJBYuXMikSZPo378/qampvPLKK6Snp+Ps7MzAgQMB08nllJQUevXqhV6vp0OHDlSoUAGNRoONjQ2zZ89m8uTJzJ49G4PBQPv27enXr1+e/fXz80Or1dK2bdtcz5na29szduxYxo8fb+F3ykSv1zNz5kxWrlzJunXruHr1Kg4ODtSoUYM+ffowZ84cTpw4wciRI5k5cyZ2dnaFak9RFKpWrYqVlRVnzpxhyJAhWFlZkZGRgdFoRFEUhg4dSvv27S10hKbFYl27mhZLGQwGHBwcGDlyZIFWL+fXe++9x40bN4DHF0AAiprPZV4XL17MEUS5KUgAZRiMlB08lfDYu2gUharebtleD4mKJy4pBUVRuPrj25QpUTzHxacZq3JeiJpVQcs/zKhfNvK/TaZ54NGdnmXqa+0KVZ8QTwtVVWnXrh2zZ8+mfPnyBd4/Pj6edu3asWjRogfuv27dOo4dO2a+xuZJSUxMZMSIEZw5c4YWLVowZcqUQtV35MgRqlatir29PRs2bGDTpk0EBwej1+upXr06ffv2zXVE+E/x5Zdfsm7dOurUqcN3331XqNA+efJkjm1169YFCnCxal4joqwKEkAAG49dIjz2LgBt61Zkw9iXsr3+3YaDvD13M6qqsnDnKT7p2Ty/3S2Um5FxlC6R+/2mXB3//kFoZIWc+JdIT09n8eLF2NraUq5czmns/Ow/ffp0mjRp8tAA69y5c5Hcwsbe3p7vv/+esWPH4u3tXej6si7B7tKlC126dCl0nU+TsWPH0rp1a+rVq2deofk4FGip14OCqKABBDBvxwnz16+29Mvxev/mtflwwVbSMgws3HXyiYSQqqq0/HQuVjotz9etRM2ypXArZk9qRgYnroYyc/1Bc9m2dWUqTvyzzZ07l99++w0rKytq1arFd999V+DLD3bt2sXXX39NgwYNGDt27GPqqWXY29szffr0ou7GP4JGo3kit38q8Hrj3ILoUQIoPPYuW05cBsDFwZZODXKuZHN1tKNTg6qsPHiOK2HR7L9wnXoVvQra5QI5eS2MoPAYAC6FROZZ7u3Oz+W435wQ/zQDBw40nyN6VP7+/vj7+1umQ+I/55EueskaRHZ2dgUOIIA/Dpwlw2AKsT5Na2Gdx/U3r7XyY+XBcwAs2XPmsYeQXwVP9k0czLK9ARy8dJOg8Gjik1PRajR4ujjybNUyDG5TP8edGIQQQhRcvhcm5CY8PBx7e/tcL6gTQgghwEILE3JTqpRcsCmEEOLRyeO9hRBCFBkJISGEEEVGQkgIIUSRkRASQghRZCSEhBBCFBkJISGEEEVGQkgIIUSRkRASQghRZCSEhBBCFBkJISGEEEVGQkgIIUSRkRASQghRZCSEhBBCFBkJISGEEEVGQkgIIUSRkRASQghRZCSEhBBCFBkJISGEEEUmx+O9Q0NDCQsLK4q+CCGEKIBatWpx69YtoqOji7orALi4uODt7Y1er8/3PtlCKDQ0lOTkZCpVqoSiKBbvoBBCiMJRVRVVVbly5Qq3bt1Cr9dTvnz5ou4WABEREdy6dYty5crle59sIRQWFkbVqlXR6XQSQkII8ZTKyMgAwMnJqYh7kp2bmxvXrl179BAC0Ol06PV6CSEhhHgKqapa1F2wqBwhpCiK+Z8QQgjxOMnqOCGEEEVGQkgIIUSRkRASQghRZCSEhBBCFBkJISGEEEVGQkgIIUSReSIhtH37dj799NMn0RQAy5cvf2JtCSGEeHRPJISqVatG165dn0RTGAwG1q5d+0TaEkKIf6rw8HDznRcyqarK7du3n2g/clys+jh4enri6en5JJoiKioKo9H4RNoSQoh/ov3797Nw4UIqVarEiBEjsLKyQlVV5s+fz8GDB3nhhRee2MDBIiE0b948YmNjGTNmjHlbcnIyr7/+OuPHjycoKIhdu3Yxfvx4tm3bRnBwMHq9np07dzJ16lSio6P55ZdfiIiIwNbWlhdeeIHOnTsDpvvZzZs3jwsXLqDT6WjYsCGvvvoqtra2hIaGMmXKFLp06cLSpUtp3rw5Bw8exGg08s477wAwbdo0jEYjy5YtY8eOHaiqSs2aNRk0aBCOjo659sfNzc0Sb4sQQjx10tPTWbx4MaqqEhgYyPfff8+wYcNYtmwZBw8eBGDz5s00aNAALy+vx94fi0zHtWjRgmPHjpGcnGzeduzYMdzd3XPc3VWj0bB3716Sk5OZMGECLi4ufPvtt7Rt25bffvuNadOmUb9+fQDS0tIYP348ZcuWZfbs2UyZMoXo6Gh+/PFHwHSLoTt37vDXX3/x7rvv0qNHD9555x00Gg3Tpk1j2rRpAKxZs4bLly8zZcoU5syZg5OTE//73//y7I8QQvxb6fV62rVrZ/4+MDCQTz75xBxAAPXr139is1cWCSEfHx88PT05dOiQedv+/ftp3rx5jrKKomBtbc2QIUPMKZuQkGA+YDs7O/PX27dvx8HBgf79++Pg4ECJEiV44403OHToEOHh4Wg0GtLT0xkyZAiVKlXC2to6R3tGo5G1a9fy6quv4uzsjF6vp3///pw6dYrExMQc/dFqtZZ4S4QQ4qnVuXNn2rdvb/7+7t275q/r16/PoEGDntj9Qy12Tsjf35+9e/fSokULEhMTOXv2LEOHDs21rLu7u/nDXqvV0rdvX7755ht8fX1p2LAhzZo1Q6/XExQURI0aNbLt6+rqirOzM9evX6ds2bIADxwyRkREkJyczA8//JDtTS1evDgxMTE5+iOEEP8FnTt35vTp04SEhJi32dvb89JLL6HRPLmrdywWQk2bNmXJkiVER0dz6tQpfH19cXZ2zrXs/QnbqVMnmjRpwtGjR9m2bRu7d+/miy++wGg05pnGWbc/KLEzX/viiy+ws7PL8XpgYKDcMVwI8Z+SuQghawABJCYm8r///c+8WOFJsFjcFStWjNq1a7Nv3748p+IexNnZmbZt2zJ+/HiuXr1KZGQkZcuW5cKFC9nKRUZGEhsbi4+PT671aLVa85MHAUqUKIGNjQ3nzp17pOMSQoh/m8xVcJk8PDzMX2cuVrh/+fbjYtExl7+/P9u2bSMoKIgGDRrke7+dO3cSHh6O0WgkICAARVEoXrw4rVu3JiIiguXLl5OYmEhUVBSzZ8+madOmea5gc3Z2RlVVgoKCMBgMaDQaOnXqxNy5czl//jyJiYlcuHCB2bNn/+seDiWEEA+Tnp7OsWPHzN/Xr1+fcePGZTtHdPnyZSIjI59Ifyx6nVC9evX46aefaNSoUYGGcrdv32bt2rVERUXh7OzMqFGjzPuPHTuW+fPns379eqysrHj22Wd5+eWX86zLwcGBF154gc8++wxFUZg1axbdu3cnIyODGTNmkJycTKlSpWjbtm2hj1cIIf5p9Ho9b775JrNnz6ZOnToMHDgQjUZDly5dUBSFTZs20bdvX9zd3Z9IfxQ1y3Dg+PHj1KxZUx7vLYQQTylVVUlPTycgICDHJTAFkZqamuuK4ry259e1a9eoV69etm0nT57MUa5u3bqA3MBUCCH+k/IKmsIE0KOQEBJCCFFkJISEEEIUGQkhIYQQRUZCSAghRJGREBJCCFFkJISEEEIUGQkhIYQQRUZCSAghRJGREBJCCFFkst07zsPDg5CQEPNzeoQQQjxdst54OTY2Fr1ej729fRH26G8REREFfjp1thDy9PQkNDQ01/v8CCGEeLp4e3tz69Ytrl27VtRdAcDFxQVvb+8C7ZPtBqZCCCGEpckNTIUQQjyVJISEEEIUmTwfanf37l0cHByeZF+EEEIUoeVBMewKSyAh3VDgfR31Wvw9HOldzrlA++UYCRmNRkYMe5N6dWpx5vTpAndECCHEP8/yoBjW34h9pAACSEg3sP5GLMuDYgq0X44Qev/dd/jj99+Ji4ujZ49uEkRCCPEfsCssoUjqyRFCWRfLFTSIpk6ehLubKxV8yhAVFZlnuU7tX8DdzZVuXToDcPrUKdzdXHF3c+XmzRsFOoCCunnzhrmts2cDHlh2QL++uLu5MnLEsHzX375dW9zdXPlq/JcPLRscHMT7775Do/r1KO3lQcVyZenU/gWWLlnMf23RYm6/A/v37cPdzZX3330nW9lH+bkIIR7sUUdAha0nRwhNnjqN7j1eNH//KCOixMREfvjuu1xf27lzB0ePHsm2TafX4ebmhpubG1qNNt/tPG5OTk64ublRzLGYxeveuGEDLZo1ZcH837h+PRidVktGRgZHjx5hzKiRnDt31uJtPs1y+x3I64+Ex/lzEUI8WTkWJmi1Wr7/3ywAVq1cAfwdRH+sXE2t2rXzVfG8ub/yxlvDKFWqVLbtUydPylG2evUaBJy/WODOP24/zJr9WOoNCDjDm0OHkJaWSs2atZg8dRp1/fwAOHP6NAsXzKdGjZqPpe2nVW6/A3kF8eP6uQghnrxcl2hnBlFhRkQpKSl8N2N6tm3b/9rG8WPHcpTNOhUTFhpq3v7H77/TplULynh5UqNaFQa99grBwUHM/20e7m6utPJvzq+//EyNalVYumQxALt37aJr505U8CmDT2kvnm/TitWrVubax8uBgbzYvSs+pb2oUqkCo0YMJy421vx65rTP26NHAXDxwgUGDxpIvbq18SntZZ4+27d3b77ek0xTJ08iLS0VBwcHFi9bbg4ggFq1azNl2rfm7xMSEhg39hPq1a1NaU93alWvxphRIwkPDzeXqelbFXc3V86fP8dHH75PjWpVKOvtyYB+fYmLjWXZ0iX4N2tCaS8PnnumIWvXrLbIvt26dMbdzZWPPnzfvC3rdOfxY8f46cc55jJ7du+mY/t2lPX2pKZvVWZm+f3I+jtw+NAh3N1c+X3ZMgAWzP8NdzdXevboluvPBSAsNJQRw96ketUqlPHypHULf7Zs3mx+XVVVZs6YzjMN6lPGy5M6Navz8oD+XLxwoUA/OyH+i7SKQhuvYsx6tgyLmpfDRmu5q3vyrOlBQXT61KkHVlqnbl10Oh0LFywgNCTEvH3KvVFQzVq1Htqxr8Z/yYhhbxJw5gwVK1akTNmybNu6jVs3b5nLXLx4gc/HfYqHhycODg5s3rSJvr17cujgATy9vKhStSqnT53izaFD+OXnn3K0MWbUSK5du0bt2nVITkpm+bKlvDygP0ajMdc+paWlsX7dWlRVpX6DBnh4enL06BEG9OtDcHDQQ48JID0tjV07dwLQp28/SpYsmXfZ9HR69+zBTz/OITYmBr969cnIMLB0yWI6d2hPXFxctvK9X+zBujVrqVCxEgaDgb+2baVNq5aMHjkCnVZH+fLluXr1Km+9MZQbN65bbN/82Lh+PX16vcjdu3epWLESERERTPz6K7Zt/TNHWUdHB6ZNn0GVqlUBaPzsc0ybPoM338r9HFBkZCTtX3ieP37/HY1Gwa9ePQIDAxn46ssc2L8fgIUL5jPx66+IiY2hub8/Zcv6cPDAfqKjowt8LEL811QsZk1PH2cMuX80FsoD40yr1TJh4jcUK/b33HtcXBwzZ3z7gL2gbFkferzYk7S0VKZ/Ow2ArX9u4dTJk5QuXYaevXo/cP+goCBm/fA9AJOmTGXH7j1s2rKV0wFnadioobmcwWBg4eKlbNuxk06du/D5uE8xGo28+tpA9u4/yJ/btjP+6wkAfDPha+7evZutncaNn+XwkWOs3bCRzVu3orey4vDhQ2z9M+cHI0CNmjXZd+AQJ06dYcWqNezYtQdbW1tSUlLYv2/fA48p0507d0hNTQUwf8jmZfWqVZw4fhx7e3u279rN2vUbOHDoMGXL+nD9ejA//zgnW3lPLy8OHT3G2vUbeOPeB/aNG9f5/Mvx/LVzF3/t2IWTszMGg4FtW7dabN/8HvfESZPZtWcf23ftpmmzZgAsvzfaycrZ2YX+A17C08MTgEqVKtF/wEu0bNU617qnTplMWGgo1avX4NDR46xZt55f583DaDTyzYSvAThy+DAA73/wIQsXL2Htho2cu3iJho0aFfhYhPivuXE3jRGHbnApPsXidT8whOLj4+nbpxfx8fHmbRUqVGDCN5MfWvGYd95Bp9OxbOkSrl8PNo+CRo0Zg06b5zWyAOzbuwej0YiHpyevvPqaebuziwtWVtbm7+3s7PBv0QIwrTS7fj0YgDeH/f0X82sDB2FjY8Pdu3c5dvRotnYGDx2K3soKMJ2TaNGiJQB79uzKtV8ajYaKlSqhqirXrweza+cOrO7tf/+oJD8URXng63t2m/rRvkMHfHzKAeDk7Ey/AQMA2LVrZ7by/foPwNHREYDaWc7dvT54CAB6vZ4yZcoAEJpl2rOw++aHm5tbtp9l7Tqm+0ZZYjVk5miq34AB5rsJt2zVGq1Wy7FjR0lLS6Vy5SoATPhqPB9/9AFHjx7Bysoane7Bv4tCCEg2GEk1PJ4Vu3mGUHx8PL179uDkiRPmbRUqVGDlmnW4u7s/tGIfn3L0eLEn6enpDOjXl4AzZ/Dy9qZ3n74P3TfzvIynp+cDy2W9fXl01N/TKh4eHuavdTodbm6mKa/7l427ZykHmI8ra11ZRUREMPytN/GtWplG9esx8NVXSEgo2Jr4kiVLYm1tCtKrV648sGx0VNS9fmZ/HzzcTf2Oisx7GbyNjU3u261N29PujcYsvW9+6bSmFXApKYX/yyoyUsjC0AAAIABJREFUIgKATz/5GC/3kni5l6SMlwcGgwGj0citWyG8+dZbDBn6BunpGcz95Rc6tX+Bzh3aZzu3JoR48nINofj4eHq92P2RAyjT6LffQavVcjkwEICRo0aj1+sful8JNzcAwsLC8t2Wk/Pft4q4E37H/LXBYCAy0vQh5Xzfcy4iI7J/iN++fdvUfokSubbx/rtvs+KP32nQoCE7du8h6MatHKv/MpcX53Wdj97Kyjx6W75sWbZRZl7HdOe+D8rMft5/PE+aRmMayanGv4816/k0jaZwJy91935XDIYHX3fg4uoKwNvvvsf2nbvN/3bt2ceuPfso7e2N3sqKL7/6mlMBAUyYOImyZX04cuQwYz/+qFB9FEIUTo5Pibi4OHq92J1TWW69/SgBBFCuXDl69OwJgIenJ/369c/Xfk2aNEWr1RIaEsKa1avM2xMSEkhOTs6zrdKlTdNFWRchLFwwn+TkZOzs7GjQoGG2fRb8Ns/8oXn2bAA7d+4AMIfE/TLfk/c//BBf3+q5TuVkBkPYA6as3n3vA/RWVkRHRzHw1ZcJCvp7UcPVq1eZMukbAJo1bw7A5k0bzQs84uPjWb5siamf/rn380kpVcr0+3DmzGlz6Gb9vbl/pFlQbvf+GHnYoo+WLVsBsHf3bsqVL0/VatWoWq0aXt7eODk7o7eyIiw0lLS0VFxcXBn4+uuMHTcuX3ULIR6vHJ+iQ14faJEAyvTZ51/QtVt3vDy9zOdfHsa7dGmGjxjJzBnTeXPoEOb+8gsODg4cP36Mqd9Oz3UfRVH47MsvGTzwNebMnsX+/fuws7XjyJF7J6Q//AhHR0diY/++r9Hu3bto+uwzlHJ359jRY6SnpdG0WTNatW6TaxvVqvkSFhbGnFmzaNK0KZs2bswxWmvVujVb/9zC6lUruXbtKm+/8y5tn2+XrUzNWrWYNXsOI4a9xb69e2ncsD4lSpQgMTHRHLLtO3akR48XmTf3V06fOkWL5k2p6+fH+XPnuHPnDt6lSzNk6Bv5ej8fl/4DXmLNatPiCf9mTfD08GT/vdVoz7drl21a9FE0bdaMJYsXsX/fPp5t1IDWbdry5Vdf5yj37vsf8Ne2rRw+fIgGfnWoU9ePhIQEAs6cpkXLVvz861wmfTORDevX4etbnZKlSnH8uOlSAf975wGFEEUjx0go6wqkwgYQgKtrCVq2bPXQlWD3++iTsXz3wyxq16nD6dOnOH7iOPXqN8CnXLk89+nYsROLly2n0TONuXrlCqdOnaRGzZr8MGs2b7z5Vo7yP8yag4enJ8ePHcPO3o6XX3mVefMX5rlgYMq0b2nZqjWbN21kyuRJlC1bluEjR2Ur069ff156+RWcnJ05c/o0N27kfuK9U+cu7Nyzj5dfeZXSpcsQFxeHoijUqVuXz78cT8WKldBbWfHHytW8PngIdvb27Nu7F1VV6d2nLxs2bck2BVkUnmvShJWr1+DfogVRkZEcOnQQn3I+fPTJWH78+ddC19+lazfeGj6CkiVLcv369TzvoODh4cGWbdt56eVX0On17NyxneDgIJo2a8Zbw4YD0KlzZxo905igoGts2bwJQ0YGA19/nXffez/XOoUQT0auT1adM3sWq1etZP7CxYUKICGEEP8MA3Zbbmp6UfPsg4UCP1n1jTff4s9t2yWAhBBCPFbyZFUhhBBFRkJICCFEkZEQEkIIgaPeMo/RKWg9EkJCCCHw93AsknrkxllCCCHoXc50yceusIRHesqqo16Lv4ejuZ78khASQggBmIKooCFSWDIdJ4QQoshICAkhhCgy2abjYmJi8ionhBBC5ItzAW4pli2ECrKjEEIIUVgyHSeEEKLISAgJIYQoMrJEWwgh/uOWB8U88vVBmeQ6ISGEEAW2PCiG9TdiC11PQrrBXE9Bgkim44QQ4j9sV1hCkdb3WEPorTeG4u7mSvt2bXN9/fdly3B3c6WCTxmSk5MZ0K8v7m6ujBwx7HF2SwghxD2FmYKzRH2PNYR69+kLwInjxwkOzvnUvnXr1gLQoVMnbG1tcXJyws3NjWKOxR5nt4QQQjwlcg2huNhYDh08kK8KgoODuHjhQq6vNW3WDE8vLwBWr1qVvY24OHbv3gVAz569Afhh1mwCzl/kqwkT89W2EEKIf7YcIRQdHUW3Lp3p1qUzixctfODOFy6cp/3zz9Phhec5fOhgzso1Gnr27AXAqpUrsr325+bNpKel4eHhwXNNmgCYp+PeHj0KgKGDX8fdzZUPP3ift0ePolwZb1atXIG7myvubq5ER0eZ6xs5Yhjubq707dUTMAXp26NHUbuGL2W9PWngV5f33nmbuLi4grw/Qgjxn6XXKPQu58z0RqX5tYkPn9bxoJyjtUXbyBFCrw98jfPnz6GqKu++PSbPIDp//hw9unYlOjqKxMRE+vbuRWRkZI5yvfv2A+ByYCBnzwaYt69duwaAbj1eRKN58KzgogXzWb9uLb7Vq2M0qvk6sA/ef48lixdhY2NLc/8WOLs4s2b1KmxsbPK1vxBCCGji7si52GT2hCdQsZg179UshY3WcmdycizR7ta9BwcPHEBVVXMQAfQf8JK5zPnz53ixW7dsIxH/Fi1wcXHJ0UD58uVp0KAhR48eYdXKldSoUZO4uDj27NkNwIs9ez60k/b29uw7eBg3NzcO7N+frwM7fPgQAL8tXEi1ar4AJCUlYW1t2RQXQoh/q3SjyjuHb5J2749/vaLg7+GIl72eq/GpFmkjR5y99PIrTJw0GUVRAHKMiHILoA4dO/Ljz7/mOaLp3de0QGHN6lWoqsqWzZtIT0vD17c6vr7VH9rJBg0b4ebmVqADq1KlCmCa4pv+7TSCg4Ows7MrUB1CCPFfl5Zl9snDTg9AbKrlVtTlmhqvvjaQbyZPyRFE30z4mh7duuYaQHq9Ps9GunTtho2NDaEhIRw+dJB1a02r4l7s1StfnbS3t8/3AWWa8d0PtG7TlpBbt5g0cQLPNmrIO2NGk5GRUeC6hBDiv66lhyNVittwOCKRqFTLfY7mObH3yquvMWnK1GxBNGP6t8RER5vLZAaQTvfgGy84OjrSvkNHAObNncuePbvRaDR07/FiwTusUcxfZz0/pBqNACj3RmPu7u4sWrKU/QcPM2r0GOzs7Fi8aCGLFswvcJtCCPFf5udqxyuVXAlNSmduYM5z/4XxwLNLL7/yarYgyqpjx075CqBMmdcMrV2zmvS0NJo0bYq7u3uBO1yy1N/7nD51EgCDwUBAgGnRg4eHBwDXrwcDUKFiRT76ZCwv9jItAw8ODi5wm0II8V9VzcmGEb4liUjJYOLpMBIzjBat/6EJ8vIrr6IoCu+/+w6qahp5dOzYiTk//5LvAIK/rxkKDQkB4MV71wYVVPny5XmuSRP279vH6wNfo3HjZ7l+4zpXr1xBr9ebF1D06tGDlJRkKlepQrFixdixfTsAzVu0eKR2hRDiv6a4lZa3a5RCo8CO0ASqOplWF5+KSibZYJkwytc6u5defoXJU6ehKAodO3UucACB6ZqhXvdGI7a2tnTo2LHgvb3ntwWLGPP2O3h6eXHgwH4S4uNp0/Z51m3YhF+9eqiqyuChQylTpiynT53izy1bKFXKnW8mT6FFi5aP3K4QQvyXOOq12Go1aBWFfhVcGFatJMOqlcRam3N27FEpaubwJh8uXrhAxUqVChxAQgghnk4Ddue8pVphLWpeLtv3J0+ezFGmbt26QAEf5VC1WrVCdEsIIYTITh7lIIQQoshICAkhhCgyEkJCCPEf5qjXFml9EkJCCPEf5u/hWKT1yTI3IYT4D+tdzhkwPZa7ME9ZddRr8fdwNNeXXxJCQgjxH9e7nHOBw8NSZDpOCCFEkZEQEkIIUWSyTcclJCTkerNSIYQQIr8cHBzyXTZbCDk6WnaVhBBCCPEgMh0nhBCiyEgICSGEKDISQkIIIYqMhJAQQogiIyEkhBCiyDyWOyaYnpOnoKKSlJbBzsBwNp0P4+SNKKKS0x5Hk4/E1daKOmVc6ODrSYvKpbCz0qGgAKosVRdCiCegQE9WzQ9VVVGB1Awjf5y4zkdrT3E7LgmtlY6n8XNdVcGQloF7cTsmdqlDT7+yWOs0KCBBJIQQFvCgJ6taNIQyq0pIzaDdDzs4eiMSjU5rHhk9vUwjH2OGgQZlSrBleEscrU2DRAkiIYQonAeFkMXOCWWOgDKMKpXGruJ4aAyKRoMpl572D3IFVQVFo+F4aAyVxq4iw2g6HgsPFIUQQmRhuRAC0jKM1JywkdgM1RQ+/7RRhGIKo9gMlZoTNpKWYUQiSAghHh/LLUxQYeGRa1yLTADNP3vRnarAtcgEFh65xqDGFQkMi8J3+EwADnwzhIaVvbOVvx17lzKDpmBUVY5OfZMPFvzJjjPXeLvzc0x+9fk827keEcvkVXv56/RVbkbGYa3XUdHDhU4NqjKm87M42loX6jg2HrtElwmLGde7BeN6tyhUXfdLTktn5vqDTF69l/ikVOaP6kH/5rVzLbvnXDBfLN/J8Ssh6LQamvr68PWANviWdsu1fLrBgG3PL3J9bcf4gTSr7mOpwxBCFDGLhVB0Uiofrj31zxv95EVR+HDtKbrVLk1lT1caVvbmSOAtlu8LyBFCaw6dx6iqVPZ0pW55D1wcbCnl5ICjXd4hEhQeQ8P35hBzNxlrvQ4v12JEJyRz8loYp4Ju85J/nUKH0Jnr4YXa/0Geef9Hzt2489Byu84G8fzn8zEYjVjptCSnZbD+6EV2nQ3i8JQ3qOzpmmOfu/dWULo42OJTKvszTko55f/GiEKIp5/FQmjn5TvEJqaitfqXPCdPUYhNTGXn5Tv0rFuGl/zrcCTwFisOnGPKa+3QZAnbVYfOA9CnaS0Alr3b+6HV/7LtGDF3k/F0ceTEt8MoUcwOgLCYBLafuUa5UoV/wNSZ4NuFriMvjrbWTB/Unm/X7udmZFye5cYu/guD0UjnhlVZNKYnqekZtPtiAcevhvDxwq2s+KBvjn0SU9MB6FC/CvNGdn9sxyCEKHoWmzfbfD4UrZXWUtU9FbRWWjafDwWgd5OaWOm0hETHs//CdXOZqIQk9pwLBqBvM1MItf38N3Tdx/Hxwm0AdP9mCbru4/hk0TZ6Tl6GY5/xxNxNAcDZwdYcQAAezo4MuG9aa8PRSzz74U849hmPU7+vaPPZbxy4eMP8+swNB9F1H0fbz3/ji2U7cO7/Nbru4/hj/1kAvly+E133cbw1Z715n50B12j+ya849hmP64AJDJj+B3fiEgE4HXQbXfdx2PX6gtWHzlNuyDTG/74rW5/2TnidER2ewUqX9888MDSKQ5duAvBZ75bYWetxdrDl3a7PAbDpeCCJKTmvG7t7b5vNv+UPGiFEniwWQmduRf/rljMrisKZW9GAaWrohXqVAVi+76y5zNrDF8kwGPGr4Eklj5xTS1lNW7uf3WeDqFveg7rlPQA4d+MOXSYsZtPxQNIycj7f/Y/9Z+n2zRKOBN6iilcJyrgVZ2fANVqPm5ctiMB07mXK6n1U8HDhg+5NzVNdHRtU4ce3ujDA3xRuf568TLsvFrD/wnUqe7ni5erIsr0BdJmwOFt9aRkG+k37g+L2NtmCMvO9eZhTQWEA2FrpqelTyry9fkUvc/3XwmNy7Jd0L4QuhUQy/KcNvDxjBf/bdJiU9IyHtimE+Gex2J+a8akZ/7qVZCqm48r0kn8d1h6+wMoD55j5enu0Gg2rDp0DoO+9qbgH8XIpxsnpwyhmZ41RVTkceJPfdpxk47FLbDx2CSd7G/o0rcXYXv64OzmgqiofzP8TVVX5pGdzvujbCoA3Zq/ll23H+XjRNnZ9Nchcv8GocmjyYOqUMwXcwUs3CQyNwq+8J4Na1zOXG/3LJgxGIx/1aMb4/q1RVdUchJuOB+LlUsxcdtIrbRnZsfEjvX8hUfEAODvYZJu+LFncPluZmmVLZdsvMdUUQnvOBZtHmUv2nOGPA2fZMX5gtrqEEP9sFl3G9m/7aLj/eNrXq4yLgy0R8YnsDAgiLimFHWeuoVEUejep+dD6mtfwodi9xQoaReGX4d04PGUoQ9o2wNXRjtjEFOZsOUL14d9x9PItAkOjuHHvfMvoTs+a6xnZ0fT1wYs3SU5LN28vU6K4OYDycjksisthUQAM6/CM6TgVhXZ+lQDMH/qZOjes9tDjyovx3jVW6RnGbNs1GiVHmawquLsyrncL5o3sTsziT9g07mVs9Dr2nb/Ogp2nHrk/QoinjwUn3f9tEZTp7+Oy0mnp1aQmc7YcYfm+AG7H3iUtw0DzGuXwdHn4U2kdbHKudqtXwYt6FbyYObg9Kw+cZ9iP64lLSuHjRX/xRd+WANjodTg72Jr38XI1tWUwGom+m2zebm9j9dA+RNw77wNQ9vWp5q8zL8q9HhF7X58fXmdeMkdUcUkpGIxGtPeW7kfGJ+Uok5Wni2O2JeVt61Sk2zO+LN17hv0XrvNqy7qP3CchxNNFzvwW0Ev+tZmz5QhrDl8gLCYByN9U3MPotVr6NK3JuRvhTFy5h6thUebgSUnPID4p1TyKuh1zFzCNppztbR9YJ5jCKpOr49/ndnZ/PSjHMvBidtZEJyRjCZnTbGkZBgKuh5tHaUcvhwCg02ryvQrQ9t5tlLKGrhDin++ffVVpEWhUuTSVPFyJuZvMlhOX0Wu19GjsW+B6TgfdZtra/QTfiTWPQu6mpHHw3mqysiWdqeJVwjxSmLX5sHnfHzYeMvWlSmnsrPV5tlHKyXTu5ertaPO2yp6u+JR0AmDfhetUL1PS/E+n1VC6RPECH0tWm44H8smibcQnpVK9TElz8ExatZd0g4GE5FQmr94LwPN1K5mDdeaGg8zccBCAs9fDmbPliHmV3JWwaNYcugBArfvOHwkh/tlkJPQI+vvX5vOlOwB43q9itqmy/Pptxwm+33iID+b/ibVeR8ni9tyJSyQ1PQO9VsvYXs3RKArfvNKWl6avYOziv9h4PJDk1HROBYWh12qZOKDNA9vwr1GeJXvOsGxvAGeCw3mtlR9jOj/LzNc70P2bpXy4YCvL9gZQxq04wXdiORN8m8NThqLTPNpSe6Oq0mvyMlLSMyhub8P73Zoyvn8rOn+9mD/2n+XPk5fJMBhJSk3HzlrPhHv9P3jxBu/M3QxA48qlWbr3DN9vPMSoXzbh4exAWMxdDEYjJYrZMeT5Bo/UNyHE00lGQo9gQPM65iXKjzoVN7RdQ4a1b2QegYTH3sXTxZF+zWpxdOobtKpVwVz/yg/60qCSNyevhnI5LAr/GuXY+sUrNPEt+8A2Xm5Rh7deaIRbMXsuhUQSGBoJmC4C3f7lazxftxLBd2LYduoqGQYj43q3oLJniUc6HjBND3ZsUAVXRzua+foA8IJfZbZ89jJNfMtiMKrotBra+VVi74TBVC9TEoAq3m5Uu/evkqcrY3v581mflviWduNOXCIONlZ0alCVXV+/jofzw8+9CSH+OSz2KIfKX67nemwiRqPpsQiqWrgHw2kU7t3F2hK9ezSKAmWd7Akc16noOiGEEP9wT+RRDqhqjuW2RlXN9igEjaI8dA2dgooh3YBXcVs8i9liuG95rxBCiH8Pi4XQn8NbEvxZF6x1pmcIGY0q77Wsxq3x3ejk64miQmdfD0rYW+X9jB5VpbanMxfHdebS2E5cHteJI++3w1DIK+WVe//k2UBCCPF0sVgIXY5IwKO4LfVKu6BBBYORuqWdcbLVc+RGFFO61mXxa01Y9PJzGA05RzcK4Gyt568RrShXwp4j16P47dA1MgxGCnMrBgXQazVoNMq/7rZCQgjxT2ex1XGHgiNpW9WDFpVKcTjIdEV+ZTdHIu6mEhKTxPnbcSSlZXAtKoHcJuWMQK3SzjhY67gdn8zzM7aRpKpYaTWPfGduDeDnWZy1b7Rg55Vw+v6233zBpBBCiKJnsRA6E2K63qVVFXcmbD2HvZ0V5V0duXAnHgwGfjp4hYVHg0hOy0CXeedlFfMNCVSjEW8nOzSKwrqAENIU0Gg0GBTFtDoh2yhGNU2v3R9mmfWpqinoFAWdRoOrgzWONvos4WcqqKDmWYeqZr4iU3hCCPG4WGxYcDMmEUVRqOHhhKKAb6liFLPVcz4sFsVKj5VWg6u9Nc4ONhjvjXBKFbPBwVqHjVZD/TKuhMQmoaoqrSu7g5Jl+ixLABkzDFQrVZy63i4Y0w2ml1TTarpSxawp4WCNMd1Ayyql0OsUXOyt0SgKNjotznam81FGo0oxax2Ny7lRzFoHqulx5KqqUsLRGndHGwwZRuqXccXBJu+LQYUQQhSOxUZCMclpXI1MwLu4HbaAn7cLqqpy6FoEeq1CSUcbrn3WmZ8PXGXY0sM0reLB+qHN+WHPJfrW82H/1QiGLdiPCvi42vNGk0rM3hOIaj6Xo4IKZ8d2onJJRxQFohPT8PtmE+GJqXg52nDps84ERyVipdPg7WRHw6lbWDmkOaqq0rxCSdYOaUaz6dt4u2U1xneshbVOS5rByIdrT/LD7kuoisK+ka1xtrdmy4UwetYtQ5efdhf6vdm4cSNt2rTByurR78MmhBD/RhYbCWkzjOy9GoFWq8HWWk/d0i6owKHgqCyNZU6ImUJFq1EY0awKy44H8+uhq9xJN9Lqu+2gwLfd/RjevAoYjaZVbSr83KcRldwc+X73JYYsPoyznRWb3jLd6FJVFLSKQnlXe07eimHkiuNcjbzL0IUHUBSFA8ERDFp4EGudhndbVeNcWBwNv1pP9N1UJnf1w9PRxnR9kwKO1jrql3bmw7UnuVPI+6hdvnyZs2fPcvz48ULVI4QQ/0YWCyGjRmHX5XC0ioKzow0V3BwIT0jhwp148/kVRcl6T2pTIK0PuMV7K0+w9WIYWq3C/qAIXlt0iFSDkUld6/JSw/KmQVC6gTbVTPchm7njIktOXCcqMRVf9+I4WekyTwVxMzaZbv/bwY/7AklOM3A5ynSzz8Q0A9dikmhSoSRuDtasC7jFmchEvttzCa0C1b2dTRfaopBuVHl22la+23WRuOT0nAdbAPv37wfg6NGjpKXlfIpopitRyeg+2c35O0m5vl5p6mFmHQrl12NhNPsp78cZJKQa+GRrEFW/PYLDZ3vx/uYgbX49zcaLUXnukx+f/xVcqP2FECI3FpuOUzUKp0NiUBSo7u5ECXtrLobHY0jLQGuV93mVA8GRmNYQ/L1oYOmx6zhY6Zjeox6Tu/nx18Uw7sQmY2elJSElneiUdDIMRkJik3BzsKGYtQ4DgAJxKemoGg2KRgOKkm1ZgVFVqeXphKIo2GkUmlUogdGoogKV3Irx53nTk0BT0g3Exyeh2FpRmEdUXLlyhfDwcACSk5M5ceIEzzzzTK5lK7raUtfTgZVnI/Btmf12PMduJXAjLpUXa7oRk5yOu0Pe03qDV13iclQyMztWpGIJW2KTMzh8M4GbcamPfBzpBpXJe27weWufR66jIHbt2sX+/ftJS0ujUaNGtG/fPtvrqqpy/Phxtm/fTvXq1enYsWO2148fP86+ffuIiorC1taWdu3ama/OTk1NZd26dQQEBGBjY0OHDh2oXTv749SFEE+ORZ8ndCc6ERVoWtENF3tr9ly5A9qHDbaU+z7nFRSNys/7Anmught96/nwcbsajF52BI2iYFBVVEx3YjDcSxi9VoNBzbrOLe8VbTY6LQajkeGtqvGGf1UAElMz0GmzjNGUe/0oyOEDaWlpxMbGEh0dTUxMDAEBAdleP3z4MOnp6bi4uODs7IyLiws2Njbm13vXKsmik+F8el8IrTgbQcsKTpS011PSXk+VEtkftZ0pw6iy/mIUf75WiyY+f98Nu55X4e63dis+1fxeP24HDx7kxIkTvPnmm6SmpjJr1iyqVq1K+fLlzWXi4+O5fPkyDg4OuLi45KhDq9XSr18/nJycOHnyJCtXrqRmzZrodDpWrFiBoih89NFHnDt3jhUrVuDr64teLwtQhCgKlgshVSU63UByWgatKpeihL01x29Go3loCOWkKApaKz0rjl+nf30fang4g/n2Paq5TOaN5XLeCCGP+FBVUECr0TB0/gFWnQ013VoI0+o4NI8+6rl06RJr1qx5YJmUlBQOHDiQbdtzzz1HkyZNAFMIffTnNQIjk6lc4u87c688G8EnLUzB9OuxMOafCGfPkDr8dCSMU2EJ2Og0zDt+m2PD6wMQFJOSLYTudzkqmdEbrrA3KBZrnYauviX4tkNFHK21XIpM4sVF53i3WWk+3RbES3VLsSIgEoNRpdbMYwCcGVUfg1Fl3F/BzD0WhqpCywpOfNe5EiXs9Dn6dXJEfXycbfLsT6b09HS2b99O//79zeFSoUIFrl27li2EihcvTt++ffn+++9xdXXNUU+dOnXMX3t7e5vvlBESEsLly5f56KOPsLa2pl69eqxbt46bN29mq18I8eRY8MpN0yhlR2A4VUoVw1qnIeBmdIEuDlVV0wPYFEx5YGulQVEU0gwGjCqkZhiwt9Zhq9WiaBTzkuvE9Ix8Xc6jaDTciDY9WdS1mC0ZBiPeTrYcf+8FOtXwKtQlQVWqVDFP+eSXj49Ptum50sWteaZ0MVaejTBvOx6SQGhCGt2q57y7tUaBJafuEJ9q4MCbfpR1suaTFmUZvOoSvZeeZ+6x21yLTsm2T3K6kefnnqaWuz3BHzTm+PD6hMSnMXT1pXt1KgTFpPDz0TD+6FedT1r48Hs/X7QahTOj6nNmlCnoJu25yaEb8ZwYUZ/gD57B3dGKgSsu5dov7+LZH5z366+/cu3aNfP3J06cYPXq1Vy+fBkbGxvKlStnfq148eIkJeV+niw6OjrXkRCYpuwiIiLYtGkTjRo1QqfTcfLkSWrVqoW1tak/iqI8sH4hxONn0dsHaFTYdD4UVEhON3A5Ogmjmv8bkNprFVYNaoaHozXuDtZ8+HxNDAYj2y/eRrWp5VsdAAAbRUlEQVTRExSViF6joXG5EpS2t8LH1YGktAwik/K3eEBVVQ4ER5JuMPKCryfpiSm0qepB1VKOxCalZr8e9hG0bduW+vXr56tshQoVePHFF9Hpsg9Ge9cqycpzf4fQirMRtKvsQnGbnINWjaJgb6VlTtfKVHOzQ6dR+Ni/DLsG16GUg55pe29SedphnptzknPhpvD99VgYzrZ6Jj5fHhdbHWWcrPmpW2VWnovkanQyGgVSMozM6VqZRqWLYafP+StiMKpM3XODGR0r4uFohY1Ow8Tny/+/vTsPj6q6Gzj+vTOTfbLNBMhO9kBkTVhVwhJAARGDGy7UuvtWW61aLb7qK2Bb31JttS1qX1BL3dBgFUWlENAkkI0kwiSB7Akhe2aykkzWef+YZJIxC4EMJMj5PE8ek3vv/O65wef+cs499/zYn6ejrrVz0Hb15+PjQ3l5uenno0ePEhkZSXFxMZMnmw9Ftre3m5JGf62trej1elxdB1ZmbW5uZtOmTbz66qvY2dmxdq1xFfTB4re1tQ0aXxCES8OiRe26JfgmuxzD+gjSSnWcbetAJpf1lGQwviTabRpCM/7cO/265zEM62Z4syrMA0mSkEkSWZX1/OXQSWQyiV9+ksr3T6zgX/dcTUeXcQjtwY9TjM+JeuN393VnemP3nrfbAIXVjcQVVLM81J3MrdEEuympaW4j7bQOSZKMx3UbAMMFdYyioqKQJInU1NQhjwkMDCQ6Ohq5fGDxuFunT+Cprwso1OkJUNnyWWYtL6/0HySKUYDKdsBNfoGvEwt8jRVZi+r0PLWvgHX/yiTnyXlklDezLMDF7HhvZxs8HK3RVJ5luruxGutQz50ASurbaGzr4p6YU2YDnxMdrKhoah+yXabzeXubnpcVFhaiVqtRq9VotVo8PDzMjq2trSUwMHBADK1Wi5OT04AkDqBUKnn55ZcpLy/no48+IiMjg/DwcLRarVnSam9vp6mpadAhPUEQLg2LJiFJkqhoaOWv8bkcO6013aAkCVo6unjzSB5HC2uRyaCsoYXtCXmcKK83zWJr6ezmzveOcMtsX5xtrUgu0fK3707R0dNFSTuj4+YdcfxsfgDWchlfZpYRk14CMomz7cb45Q16ZP1uflVn9WxPyCOvptE4zKeQc/e7CTy+LIzpni4cKaxh69caznZ0YQA+SivG1koxggkVQ/P19R02CXl7ew+agAAmKa2J9HNmT2YNK4NdqWxuZ82UoW+SsnN03/xdbXljbRB+f0yipL6NLoPB7PdjHmvw73+s95SHH5g5aA8t6XTjsO3y9vZm//79gHEKe1RUFDCw19PR0UFFRQV+fn4DYuh0umGTh0KhwNfXl4ULF1JQUEB4ePiA+KWlpUNObhAE4dKwaBIy9Hw981kayCQkWd/qaw2tHTzxaRrIjIngVFUjT3yaikEmQyb1vr4KMcdL+SSt2PiDTELeLxlIksR/civZ3zPkJynkxuV9kNC1thvjSyC3kpvOW6Br4YlPU0GSTJMktPpOnv/yB+g2dsFkpjiw+esTxmWArBQXPDm7trZ22P01NTXD7r99xkR2HKugqa2TG6eqBx0SOx8NemMpDJW9ghnuSj7VVJvtP13fRmVTOzPclXQNUu5CIZN6akMZE5Cvsw1KaznfFdazLuz8K7E6OTnR1tZGZWUlXV1deHp6AmBvb099fb3puIyMDNzd3XFzG3gOrVY7ouRRV1dnOq43vpeXFwApKSnn/RxPEATLsugzod6btkwhRyaTmd79Mb6oKiFTyJD1TFQw/ixH3q/EQu9/ZQo5Miu5aSjPFL8n4fTul/q9X2SK/6MejKznPAO2y2XGcyjkP9o+cNv56p9kJEnCz8/PbNjoXElo/bQJnKho5t20SjbMmDji8xoMEP1+Jm8cLSP1TBNnGtpIK2visb15rA5V42Kr4IG5HpTU6XnpYDF1rZ2UNrTx4Gc53DVr0pAz2DycbDAYIKO8iY4u40oXTy7y4Ymv8okrqqde30l8cQMPfJYz4kq4np6e7Nmzh8jISNM2Pz8/NBoNDQ0NlJWVceDAAa677joAioqKiImJMR3bf1JCYmIiCQkJAMTHx1NdXU1HRwcajYbMzEzCw8NN8VNSUmhrayMjI4O8vDyz8wuCcOlZtCckGPUmmaCgICIjI5kwYQJNTU0cOXIEjUaDTqeju7vblJB/TGWnYHmQisTTDawMHvlQkQG4+aoJ7Mqo4s8JpVSf7WCS0oq1U9xML5o62cjZf99MntyXz6sJpdgpZNw2YyLbVg187tK/PY8t9GLpjuNIQOEzC3huiS/tnd3cufskjfpOAlR2PDLfc8TP0by9vTl58qTZ1Oi5c+dSVFTEtm3bcHJyYtWqVQQHBwPGJFRZWWk6VqvVEhQUBEB2drbpWVJdXR07d+5Er9fj4+PDvffea3oOtGrVKj788EO2bt2Ku7s79913H0qlcoQtFgThYpAMFio3GrLlS0rqz474L+HLgSTBZBcHcl9ce16fi42NZcqUKaZhn/50Oh3Hjh1j6dKl4gVJQRCuCBkZGQO29Q6Fi57QRdD7oH0wKpWKlStXXsLWCIIgjF+izKggCIIwZkQSEgRBEMaMSEKCIAjCmLFgEvoJzUgw81O9LkEQhLFn0Z7QT+12/VO7HkEQhPHGYknIwfrCVxgYryTAyUZMIBQEQbhYLJaEZvuosNArR+OGwWBghrdYV0wQBOFisVgSWhXmSVd7l6XCjQtd7V2sCvMc62YIgiD8ZFksCS0NnoiLg81gZU4vTwYDLg42LA0e+dptgiAIwvmxWBJS2dvwyrpZP6kk9Mq6WajsRcEzQRCEi8Vys+Mk2DgvgAA3R6TLPA9JBghwc2TjvAB+crMtBEEQxhGLJSEJsFbI0Dy3BheFZCx8drn1igwGJAlcFBKa59ZgrZCJHCQIgnARWS4J9RSFU8gk8l5eT4SnK4bu7p4qnOM9GRmTj6G7mwhPV/JeXo9CJpnqIAmCIAgXh2WL2vXcsJU2CmIfX87OuxbiZmttmjVnLEI3vr7AOAvOzdaanXctJPbx5Sh73g0SCUgQBOHislg9of6MISUMGGhp7+RwbhVfZ1eQcVqLtrXd0qe7YGo7a2b7qlkd5sHSkEnYWyuQegqNiwQkCIJgGcPVE7ooSUgQBEEQeg2XhMQq2oIgCMKYEUlIEARBGDMiCQmCIAhjRiQhQRAEYcyIOgXnUFJSMtZNEARBOC+TJ08e6yaMmEhC53A5/WMKgiBcbsRwnCAIgjBmRBISBEEQxoxIQoIgCMKYEUlIEARBGDMiCQmCIAhj5qLMjtO3dJByuIATKaWUF9fRWN9KR89K2mNFkiSUzjaoJyoJC/di7pIAPCe7jmmbBEEQrnQWX8A0bt8pvtiVTnOj3pJhLU6SJBZEBXHrQ/NwcBQlvAVBEC6W4RYwtVhPqLOzm/dfP0LiwTxLhbyoDAYDiQfzKMiu4rHNK5jk7TzWTRIEQbjiWOyZ0L/+knDZJKD+qssbee2339CgaxnrpgiCIFxxLJKEvt93iqTYfEuEGhP12hbe/t3hIffnlmtRrH8RxfoXSck9M2B/ZX0z1jf/D4r1L5JRWMHKl95Dsf5Fnnlv/7DnLamp59G3vyT0F3/B/rbNuN71O+Y+/SZbdh+mqbVt1Ne171gOivUvsmX30Nc2UgaDgbf3pxLx1HaUt2/B5/5t3L5tN7nl2lHHFgThyjXqJKRv6WDvrnRLtGVMFWRXkRZfNOi+EE8180K8AdidoBmw//OkbLoNBkI81cwO8ECltGOSixJH+6GfNRVV1THnqTd5e38qZ7SNeKmdkEkSGYUVbP3kO2obR98zO1FSNeoYvY7ll/Ho219yvKgSA1BR18SexCzm/+YtcspqLXYeQRCuLKN+JpR8uGDcT0IYqdjPs4hY5D/ovo1LZpGSe4aYo1lsu/d6ZP3Kf3+WlA3AhkUzAPj46dvPea4dB45R19yKp8qR9Ncexc3JHjDe3GNPFOI/afQz904UV446Rq85QV7cvXgmj6+9mpn+7mSdribqhXfQNbfyxleJ/P3htRY7lyAIV45RJ6ETyact0Y5xofBkDc2NepROtgP23X7tdJ565xvKdI0cOVnCojA/ALRNLcRlFQNwR6QxCa186T0OnSjkmehF/H7jCta/8iF7U07x7PpF5JZr+TY9j41LZgHgqrQzJSAAD1dH7l480+zcX6Xm8Ps936MprkIuk5gb7M3mO5Zx9RRfAF7/KpGn3vmGZTMCuGaKL3/5MtFsOG/L7sNs2X2Yh1bOZfsjxmRxWFPISx8fJr2gHGuFnFURwbx232omOjtwvKiSiKe2Y62Q88GTt/LkO99w3/II3nv8ZlPM6ZMnsSoihA++P05hVd0of/OCIFypRj0cV15Sb4l2jAsGg4HK0oZB96mUdqyKCAFgd0KmafsXyafo7OomPNCTYA/1sPFf/eII32cWMTvAg9kBHgBkna5m3e8/4Ou0XNo7B75L9emRTKJf+ZCU3DOEernhO8GZw5pClr/4LkdPmf8BEJdVzLZ/JxDooeLZ9YsI8TS254a5obz9i3XcvcSY3PZn5HH95l0cOVlCiJcaL7UjH8drWPf7D8zitXd2ceern+LsYGuWKHvlV+gA8JvoMux1C4IgDGXUPaHGulZLtGPcGO56Ni6ZxRfJJ9lzNIvXH1iNXCbjs6QsAO7oGYobjpfKiYw/P4qTvQ3dBgPJuaW8dyiDfcdy2HcsBxcHWzYsmsHzty3B3UWJwWDg2X/ux2Aw8N+3LmbzHVEAPPLmF+w4kMZz7x/gu5fvN8Xv6jaQ9McHmeVvTHCJOaXklmsJD/Dk/uURpuOe2PE1Xd3dbLo5kq13LcdgMJgS4ddpuXipnEzH/u89K/nVDQsHXMu+Yzkk55YCDOi5CYIgjNSoe0KdHWO7EoKlDbeyw+qIEFRKO2oaz3JYU0RDi55DJwqRSRK3Xzv9nLEXT/PDqWeygkyS2PFYNMnbHuahlXNRO9pTf1bPW9+mcNVjb5Cad4bcci2na409syfWXm2K86sbjN8nniqltb3DtN3XzdmUgIaSV6Elr8I4o+3RNQsA44u714cHA5iGFnvdOG/qgBjZpdXc8/oeAG5eeBXXTBU1lwRBuDCiqN15sFbIue3a6bz1bQq7EzRU1jfT3tnF4mn+eKocz/l5pe3A2XIRgV5EBHrx+oOr2XM0m0ff/pKGFj3PvX+QzXcsA8DWSoGr0s70GS+18Vxd3d3omvt6bg621udsQ03DWdP3kx/4k+n73oUzSmrMh1eVP4p5RtvI6i27qD+rZ5a/Bzt/GX3OcwqCIAxFJKHztHHJTN76NoXPk09SUdcEjGwo7lys5HI2LJpO1ukq/rAnjoIKrSnx6Ds6aWxpM/WiKuuaAWNvytXBbtiYYExWvdSOfc92vv/d/TjamSdGJ3sbdE2DD0nWn9WzZusuzmgbCfZQs++FjQOSlCAIwvkYl6toS5LElJke3PPkIl7bfRe/e/dW1t83F0+/sV9wdH6ID8EeauqaW/k2PQ8ruZybF4add5zjRZW8+sURiqvrTb2QZn07iTnG5yyTJ7oS6uVmej6z/Ztk02f/ti/J2JZQH+xtrIY8xyQXBwAKKnWmbSGeatNEgoSTJVzlO9H0pZDL8HEbfPmito5Oov/wIVmnq/F1c2b/5p8zyUV53tctCILQ37jqCXn4urAgKoj5ywJxdXMwbXdwsuG6W6dz3a3TKS3UkXQwj5TvCsdsUsRdS2by0keHALguPMhsqGyk3juUzl/3JfHsP/djY6VgorMD1Q1naevoxEou5/nbFiOTJF65ZyUb/xzD8x8cZF9aLq1tHfxQVIGVXM4f7l4x7DmWTAvgw7gTfByv4URxFfdGhfPrG6/m9QfWsP6Vj/jtrv/wcbwG3wnOFFfXc6K4kuRtD6OQyQfE+jotl/jsYgCUdjY8sv0L0741c0J5dPX88/4dCIIgjHkScnSxZd6SQBZEBeEb1DfFuburm+z0chIP5mGvtGFBVCCBYZPwCVDh89B8bn5gHifTy0iMzeeHoyWXtFTE3YtnsfnjwxgMhgseinv4+nl0Gwx8l1lEcXU9VfXNeKmdWBjqwzPRi5g2eRJgHOqzt7bilc/iySgoRy6XsWSaP/+zYSnXhg0/IeBnS2fxQ1EFnx7JJKesltxy48oGa+aEErvlXv6wJ47k3FJyymrxn+TKi7cvJcTTjcLKge/9dPdbbD27tJrs0mrTz3ODvS7odyAIgjDqUg4Pr3rnvD9jZS1n5gJfFkQFcVWEFzJ536hgSV4tyYcKSPmugKZ685UY3NwdWbg8iPnLgpjg0TcRQN/aQXpCMUmx+eSeqGA0V3TfbxYzf1nghQcQBEEQzFySUg4j4ebuyOoNM4lY5I+tfd+zDF11M8mHC0iOLaCidOiXX2srm/jy/Qy+fD+DoKsmsSAqiIhIf+wdrLl6RTBXrwimruYsRw/k8Z8YDfrWjiFjCYIgCGPvkiUhaxsFv/nTGlzUxtlZ+pae3suhC+u95GdVkZ9VxcdvJpl6VdPmeOE6wYE1d87C21/F9i0HL8KVCIIgCJZyyZKQT6DKlICOxRXx/htHaD3bPuq4nR1dpMUXkRZfxEQvJx787VJ8g9RMm+s96tiCIAjCxXXJkpBc0Tfjak6kP1NneZIaV0jSwXyKcmouOK5MLmPaHG8WRAUyc4EvCit5z/nG5exzQRAEoZ8xmx3n4GTDkhumsuSGqVSVNZAUW0DyoXy0Vc0j+vzkYDcWLg9izuIAHJ37Vr3Wt3SYPW8SBEEQxq8xn6INMMnLmXU/C+fGjeHkZ1WSFJtPWnzxgOE61wkOLFgWxPyoQDx8+lZu7mjv4ofEEpIO5lOva+GFv990qS9BEARBuADjIgn1kiQInuZO8DR3NvzXQo4nnSb5UAFKJxsWRAURMsOD3lpyBgPkZ1WSeDCftPgi9C3GmXDjYVUFQRAEYWTGVRLqz8pazpxIf+ZEmlc6rS5rJOlQPkmxIx+6G2v79u1jxYoVWFuLddYEQRD6G7dJ6Mfi9p0iMTafwpPV5z54HMnLyyMzMxOVSsXChQPr8giCIFzJLpspZB+9mXTZJSCAI0eOAJCamkp7+/BT0v+ZXsm9MacG3Xcwv44XDhRZvH298rWtKP77ezq7R7WAxoi9dLB4VJ8va2zj5zGnCNiWhMvmBJb83w+klzVZpnGCIFwyl01P6HKUn59PVVUVAK2traSnp7NgwYIhj68924G2pXPQfbm1raSUXryb7ESlNW9HhyDvfeh2EXV0Gfhj3GleWu53wTGOVzQjlyTeu2UKKnsr/vj9aW74p4asX8/D1W7k/1u3tbWxd+9eNBoNtra2rFmzhpkzzSvF6vV6EhISiIuLY8OGDYSFma+artFoOHz4MLW1tbi4uBAdHY2/v/kwsiAIgxNJyILa29upr69Hp9NRV1eHRqMx25+cnExHRwcqlQpXV1dUKhW2trZDRLu0nGzk3D9n+KqslnKmsY2uUXa4VoeqWR3at+Dt9ptCcN2SQOLpBrPt5xITE4MkSWzatImsrCxiYmIICwvDyqpvmn9+fj4dHR1IkoRaPTB2TU0N0dHRqNVqYmNj2bNnD08//fToLlAQrhAiCVlITk4On3/++bDH6PV6jh49arbtmmuu4dprrx30+O1J5Tz/n0K+ubdvpe6/JZbxp/hS6lo7WR2q4s2bQnCxPfc/4+fZtfxybx4lzy5E1q+zE/mPH7gpzI0bp6qZ8loK+q2RFOhaueX9LJ6O9OGFA0VsXeHPiiAVD/47h5TSRhQyiSUBLny0wdgjaG7v4jdfF/BZVi0tHV1cM9mZ19cGEepmT05ti1msjbMnEaOppavbwIzXjwFw4vE5AHx0vJrNscVUNbcz3V3JX9cGMdNDOSDG1hX+3BPubnZ9Us/X+YwmlpWVkZeXx6ZNm7CxsSEiIoK9e/dSWlpKQECA6bhp06YREhJCXFwcKpVqQJxly5aZHZuamjryRgjCFU4kIQsJDQ1l9uzZg64WOxQ/P78hh+feTC7nuf2F7Pv5dOb7OJFW1kzKmUYkCeIemo3SRs5du7P5xee5fLjh3EX11oSqeaQrl0MFdSwPMk5jL21oI/VMI5/cEUZzv1IYMkmiqE7P/6VW8OmdVzHdXcmDn+XgZm9F+aarMQDZVX1lwu+LOUWDvovkX4TjbKvgtYRSVr+rIfvXcweNddv0iczbnm5KPgBHShr47beF/Pvuq5jpoWRPVi1rd2nIemLeoDF+7B+pFdhZyVnkN7Ao386dO1m6dKkpsaSnp1NSUoKVlRUzZszAxsZYXVaSJJydnWlpaRkQQ6vVolQqzXpIgyksLMTX13fYYwRB6HPZTEy4HKxcuZI5c+ac+0AgMDCQW265BYVi4N8BbyaX8+w3BXy+cRrXTO67qXZ2G9h121R8XWxQ2Sn4243BxGTWUNbYds7zWckl7pg5kQ9+qDJt++RENcuDXHF3NJ86LpNA39nNWzeFMN/HCXsrGdXN7QSqbLGSS1jLJWZ5GhNBZtVZ9uXo2HXbFPxcbXG1U7BluT82CokPj1cPGmsw//t9KU9H+hDu5YhcJnHb9An4udoRW1B3zhjHK5p5saeH5DxIr9DHx4fy8nLTz0ePHiUyMpLi4mImTzavydTW1mZKSv3pdLpBe0H9VVZWEh8fz3XXXTfscYIg9LlkPSHDJZp1pZpgrMg6yjJJFywqKgpJkoYdkgkMDCQ6Ohq5fGAF06TTDezP03HXrIksCXAx23fVJAcmOvT9JR6oskNlZ8Wpmha8nAbeOH/s5xHuLP7HD/x9XTf2VjI+0dTw9CKfIY8PdbM3ff/8ssnc+kEW3+TquGGKmvvneODuaE16WTNhE+2ZpOxLZJIEc72dOFHRTKS/84BYg9FUNpNT08J7aZWmbfWtnWhb+spxDBbjTEMbN+7KZN1UN3519eDF9by9vU3P5woLC1Gr1ajVarRaLa6ufS83t7e309TUNOhzH61WO+j2XjqdjnfffZfVq1fj4zP071QQBHOXLAlVnK6nrbUDG7uLs66b6wQHbronwlSQrvDkhS+KOlq+vr7DJiFvb+9BExCA2t6KA/fPZMXO43ybq+P6kL6/vq3lA3sRCrmElWxkM9pmeigJUNux92Qtc70dKdC2snbq0DfW/mEX+7tQ/OxCvjql5ZMT1cx64xgZv5pDl8GAbIgZdf23n6uJkgTbVgdw41S3AfsKdK2Dxmhq62LtLg3BbnbsvDl0yNje3t7s378fME6Zj4qKAoxJp3+vp7S0FKVSOWiPR6vVDtkTamxsZMeOHSxatIh58+YNf6GCIJj5f+cX632uN97dAAAAAElFTkSuQmCC;" vertex="1" parent="1">
          <mxGeometry x="320" y="530" width="417" height="254" as="geometry" />
        </mxCell>
        <mxCell id="wXIIDTwPPoFRgF2ShjLG-16" style="edgeStyle=orthogonalEdgeStyle;rounded=0;orthogonalLoop=1;jettySize=auto;html=1;exitX=1;exitY=0.5;exitDx=0;exitDy=0;entryX=0;entryY=0.5;entryDx=0;entryDy=0;strokeWidth=3;" edge="1" parent="1" source="wXIIDTwPPoFRgF2ShjLG-8" target="wXIIDTwPPoFRgF2ShjLG-9">
          <mxGeometry relative="1" as="geometry" />
        </mxCell>
        <mxCell id="wXIIDTwPPoFRgF2ShjLG-8" value="Now you are in beta" style="rounded=1;whiteSpace=wrap;html=1;strokeWidth=5;fillColor=#d5e8d4;strokeColor=#82b366;" vertex="1" parent="1">
          <mxGeometry x="425" y="510" width="120" height="60" as="geometry" />
        </mxCell>
        <mxCell id="wXIIDTwPPoFRgF2ShjLG-17" style="edgeStyle=orthogonalEdgeStyle;rounded=0;orthogonalLoop=1;jettySize=auto;html=1;exitX=0.5;exitY=1;exitDx=0;exitDy=0;entryX=0.5;entryY=0;entryDx=0;entryDy=0;strokeWidth=3;" edge="1" parent="1" source="wXIIDTwPPoFRgF2ShjLG-9" target="wXIIDTwPPoFRgF2ShjLG-11">
          <mxGeometry relative="1" as="geometry" />
        </mxCell>
        <mxCell id="wXIIDTwPPoFRgF2ShjLG-9" value="" style="rounded=1;whiteSpace=wrap;html=1;fillColor=none;strokeColor=#b85450;strokeWidth=4;" vertex="1" parent="1">
          <mxGeometry x="677" y="537" width="30" height="40" as="geometry" />
        </mxCell>
        <mxCell id="wXIIDTwPPoFRgF2ShjLG-10" value="" style="shape=image;verticalLabelPosition=bottom;labelBackgroundColor=default;verticalAlign=top;aspect=fixed;imageAspect=0;image=data:image/png,iVBORw0KGgoAAAANSUhEUgAAAkIAAAC1CAYAAACzr5CIAAAABHNCSVQICAgIfAhkiAAAABl0RVh0U29mdHdhcmUAZ25vbWUtc2NyZWVuc2hvdO8Dvz4AAAAtdEVYdENyZWF0aW9uIFRpbWUARnJpIDE0IE9jdCAyMDIyIDA0OjIyOjQ5IFBNIE1EVCTgTcoAACAASURBVHic7N13eFzVnfj/950+6t3qstwtF7lX3E0xBMw6m5CEXxJI/bJhE3ZJYJNskk1lvyQsCUkgT3bZZMPmRwqEamwDtsE27kVyUbNk9V5Hfdq93z9GGms0I2lUbNno83oeHqwzt5y5c+/cz5zzOecqLpdLc7vduFwu7HY7nZ2dNDQ08L2mJxnszdv/7FeWm5tLW1ubX3kwFEVhw4YNKIoS9DqFhYXU1dUxbdo05s2b5y2vrq6muLh4TPUYKDExkblz5457O0IIIYS4sXxk3318P+4xEhISCAsLw2w2o5vMCmmaRldX12RWQQghhBBT2KQGQgDNzc2TXQUhhBBCTFGTHgjV1NTgdrsnuxpCCCGEmIImPRByOBxcuXJlsqshhBBCiClo0gMh8LQKlZWVTXY1hBBCCDHF3BCBEEB5eTm5ubnYbLbJrooQQgghpgjDZFdgoLa2NnJycjCbzURHRxMSEkJsbCwhISGTXTUhhBBCfAjdUIFQP7vdTl1dHeCZa0gCISGEEEJcCzdM15gQQgghxPUmgZAQQgghpiwJhIQQQggxZUkgJIQQQogpSwIhIYQQQkxZEggJIYQQYsqSQEgIIYQQU9YNHwj19PT4/N3b2+vz/6GWE0IIIYQYyQ05oeJANTU1tLW1odPpcLlc3gDIZrNx4sQJDAYDqqrS3d09yTUVQgghxM3mhg+EgCGDnMGtQkIIIYQQo3HDd40JIYQQQlwrEggNoijKZFdBCCGEENfJuAMho9E4EfW4YXzY3o8QQgghhjbuQMhisUxEPW4YH7b3I4QQQoihjTsQio6Onoh63DA+bO9HCCGEEEMbdyAUFRWF2WyeiLpMuoiICGkREkIIIaaQcQdCiqIwffr0CajK5MvMzJzsKgghhBDiOpqQUWOJiYnExcVNxKYmTWpqKlFRUZNdDSGEEEJcRxM2fH7evHlERkZO1Oauq/j4eGbOnDnZ1RBCCCHEdTZhgZBeryc7O5ukpKSJ2uQ1pygKGRkZZGVlTXZVhBBCCDEJJvQRG4qiMGfOHJKSkqioqKClpQVVVSdyFxPCYDAQGxtLRkYGVqt1sqsjhBBCiElyTZ41Fh4ezoIFC1BVla6uLux2O6qqomnatdhdUBRFQa/XYzabCQ0NlRmkhRBCCHFtH7qq0+kIDw8nPDz8Wu5GCCGEEGJM5FljQgghhJiyJBASQgghxJQlgZAQQgghpiwJhIQQQggxZUkgJIQQQogpSwIhIYQQQkxZEggJIYQQYsqSQEgIIYQQU5YEQkIIIYSYsiQQEkIIIcSUJYGQEEIIIaYsCYSEEEIIMWVJICSEEEKIKUsCISGEEEJMWRIICSGEEGLKkkBICCGEEFOWBEJCCCGEmLIkEBJCCCHElCWBkBBCCCGmLAmEhBBCCDFlSSAkhBBCiClLAiEhhBBCTFkSCAkhhBBiypJASAghhBBTlgRCQgghhJiyJBASQgghxJQlgZAQQgghpiwJhIQQQggxZUkgJIQQQogpSwIhIYQQQkxZEggJIYQQYsoyTNSGdu/ezblz58a8/uc//3mSkpJ45plnaG9v93lt165dZGVlBVzvhRdeoLy83Kds8+bN3HLLLd6/n332WVpaWnyWufvuu8nOzg64TU3TyMvL4/z58zQ0NNDT00NoaCgpKSlkZ2czc+bMsbxFOjo6+MUvfuFX/vDDDxMVFRVwHYfDwdmzZ8nPz6elpQW3201ERASZmZksW7aM+Pj4MdUlkNdff53z58/7lOn1eh577DH0ev2Yttna2sqvf/3rgK8pioLZbCYiIoLp06ezePFiEhMTh9zWa6+9xoULF0Zdh4cffpiqqipeffXVUa/bb/v27axZs8anrK2tjV/96ld+y27atIkNGzaMeh/vvfceR44c8SkzGo08/vjjQ65TWFjIX//6V7/yL3/5yxgMhiGP/XAWL17MPffcAxDweuyn0+mIiIggJSWFJUuWkJmZGfQ+xnONBfquGVjnoTQ1NXH8+HGqqqqw2WyEhYWRmJjImjVrSElJGXbdQOfecPs8fPgw77//vk9ZZmYm999//7D7EUJcfxMWCB05ciTgF3Kwdu7cSVJSEn/+85+pr6/3eW3JkiVDBkJ79uzh5MmTPmXR0dE+gdBLL71ERUWFzzLz58/3C4RUVeWll17iueeeo7Kycsi6ZmVl8cgjj7B169ag3lu/rq4ufv/73/uVP/DAA36BUFdXF8899xwvvvgiNpst4Pb0ej0bN27kscceY/bs2aOqSyBPPfUU1dXVfuVbtmzxCwKC1d7eHvA9D2XJkiV85StfYcuWLX6vHTp0iNdee23UdXjggQcoKSkZVT0G679hDvTOO+8E3OalS5fGFAgZjcaA27v33nuZO3duwHXeeOMNv3Xi4uL41re+RWVl5Zje865du7w3+EDX41Cys7P5+te/ztq1a4dcZiKusUDfNQPrPFhBQQFPP/00Bw4cQNO0gMssX76cRx99lFWrVgV8PdC5Z7VaWbVqVcDgPTc31+/Yr1u3TgIhIW5A0jXWp6enhy9/+cveG8hw8vLy+NKXvsQPf/jDIb9Yx6OiooJ77rmH3/zmN0MGQQBut5uDBw9y9913s3v37nHtMzc3N2AQBJ5g83rJycnhi1/8Ik888cR12+dY7d27N2D5mTNnaGxsHPX21qxZE7Bl8IMPPhhyncOHD/uV3Xbbbeh01//Szs3N5dOf/jTPPvtswNcn4xr761//yq5du9i/f/+w2zlz5gz3338/zzzzTNDb7unp4cknnwz4msEwYb8xhRDXmARCfX7wgx9w8ODBUa3zP//zP/zpT3+a0Ho4HA6+9KUv+XX3DcflcvHoo49SWFg45v0OdVMHePvtt1FVdczbHovnn3/+ugZgo9Xe3s7Ro0cDvqaqKm+//faot6nX67n11lv9ygd3l/VraWkhLy/Pr/yOO+4Y9b4n0n/8x38E/Oyu9zX2+uuv881vfhOHwxHU8pqm8cwzzwTs7hzKG2+8QU5Ojl/5ZASiQoixmbCfLRs3biQiIsKn7PLlyxw6dMinLCIigo997GN+609krsto1dXV8fLLL/uVR0dHs3PnTqKjo6moqOCtt96ip6fHZ5lnn32WT3ziEyiKMiF12bt3L8XFxX7ls2fPZtu2bRiNRi5dusTBgwd9fuG6XC5++9vf8tRTT41pv8MFHY2NjZw5c4aVK1eOaduB3H///VgsFtrb28nJyeHy5ct+y/zxj39kx44dw25n/vz5rFu3bthlwsPDmTVrFp///Od9yjs7O/nzn//st/wnP/lJQkJCfMoWL17s8/e7776L0+kccp979uwZUzfIHXfc4dftc+rUKRwOByaTyaf8yJEjfq0cUVFRrF69eth99B/7oQx+r4Nt3bqVzMxMHA4HeXl5nDlzxm+Zp556yuezu97XWF1dHd/61rf8yvV6PZs2bSIjI4P6+noOHDhAb2+vzzK/+MUvWL9+PUuXLh1xP5qm8cMf/pCXXnrJp37SIiTEzWPCrtYdO3b43bRefvllv0AoKiqKb37zmxO12wlx7tw5vxYPk8nEq6++6pNEuXPnTj7zmc/4LFdbW0tFRQUZGRkTUpdAN5V58+bxyiuvYDQavWVPP/20XyLs8ePHx7TPixcvUlVVNewyb7311oQGQg8//LBP8Psv//IvvPTSSz7LFBUVjbidJUuWBHU+RUZGsmDBAp+yqqqqgIHQV77ylWGTtmH4FjTwBC/Nzc3ExsaOWLeB1q1bR0REhE+Cck9PD2fPnvXLUQrUUnTrrbeOmNg++NiP1j333MNHPvIR79/PPPOMX5dSWVkZZWVlTJ8+Hbj+19hzzz3nF+BYrVZeeOEFlixZ4lPPT37ykz5dmZqm8fTTT/OHP/whqH3l5uby+uuvs3PnTm+ZtAgJcfOQqxX8foGCp+UqOTnZp2zt2rUBf0m3trZOWF0Gf3kDzJgxwycIAgImkY61HiPd1AH27dt3TfKh+gVKjr5Rf1V3dnYO2V3Vz+12j6l7zGg0DpkgHEzZSC1o18IXv/jFgK01tbW13n9fz2tM0zT27dvnV/7Zz37WJwgCmD59Oo888ojfssePH6etrS3off70pz/1eY836rkrhPAngRCQnp7uV9bU1MRjjz1GU1OTt0xRFE6dOsX58+d9/htqGP5E1WXfvn08//zz2O12b9nixYv96hGoNSkYgQKh/l/y/RoaGsa8/WAcOHDAr2z+/PnXbH/jsX//fr+8k8HHC8aeZB4ox2dw0FNYWEhDQ4NPWURExIjdhNeC0WgM2AISFhbm/ff1vMaqqqp8ttnv7/7u7wIuv2vXLr9WNFVVyc3NDXqfdXV1/Od//qf3b2kREuLmcVP8bLHZbNTV1QV8LdhEyOEsXbqU1NRUv+6hV155hd27d7Njxw7uvfde1q5di9VqHff+hnPnnXfyzDPP4Ha7vWVut5snnniC3/zmN95hwgsWLPDLYxmL/Px8ysrKfMpmzpzJvffe65dvtHfvXlasWDHufQL8/Oc/x2KxYLPZyMnJ8asDwIMPPjjids6ePcuPfvSjgK/Nnj2b++67b7xV9RMocPzHf/xHvvOd79Dd3e0tO3HiBK2trURHR49q+xs2bCAkJMRnW3l5ebS1tXlHlQVqDdq2bVtQLRE///nPhzyP++fzGo1XXnnF53wFCAkJ8ZkL6HpeY4GCIEVRSE1NDbi80WgkKSnJr24jjfyLjY2lubnZ+/d//ud/ct999zFt2jRpERLiJnJTXK3f+973+N73vnfNtq/X6/npT3/K5z73Ob8mfIfDwWuvvcZrr71GZGQkO3fu5NOf/vSoJo8bjczMTL7xjW/w7//+736vtba28vzzz/P888+TlpbGfffdxyc+8YkhJ2MMRqBWiw0bNnDLLbcEDIS+/e1vT0hieKDcnIG+8pWv+MwFNZTCwsIhR8tt2bJlwgOh7u5uv7w3nU7Hpk2bWL16tc+oKLfbzTvvvMPHP/7xUe3DbDazZcsWnykRVFXl6NGj3HnnnUDgYfPBdosNd+z75/MaziuvvEJOTg5Op5PS0tKAo+cefPBBn0D9el5jAwPIfkajEbPZPOQ64eHhfmWBuvMGuv/++/nTn/7kbZnrH07/1FNPSYuQEDcRuVr7rFy5kr/85S8sWrRoyGVsNht/+MMfuOOOO/jOd75DZ2fnNanLF77wBX75y1+SkJAw5DKVlZX87Gc/Y8uWLfzud78b8/D2QLkUt9xyCwsXLvRryairqws4VPha6E82vtEcOHDAp4sSYOHChURFRQWcRPGtt94a034CBTX9rUB2u53Tp0/7vBYaGhpU4DgR3n//fX7/+9/zxz/+MWAQtH37dr761a/6ld9I19hEsFgsPProoz5lr7/+Orm5udIiJMRNRAKhAebPn8/f/vY3fv3rXw/bBeR2u3nxxRe59957h+yyG68dO3awf/9+vv3tbw87Wqajo4Mf//jHPPTQQ8MO5w6kqKiIkpISnzKj0cjq1atRFCXgjfV6ze1z8uRJHnrooWuaoD0WgbrF1q9fDxAwEDp27Niokm77bdq0yS9puH9ixVOnTvkl1W/dutVveP1kSEhI4JFHHhly5NqNdI2Nl6qq7Nq1i4ULF3rLNE3jRz/60YRNpyGEuPbkZ8sgiqJw++23c/vtt1NSUsKbb77JG2+8ETCHpaysjEceeWTCJ1XsZ7VaefDBB3nggQc4deoUb775Jm+99VbAG+v+/fv55S9/yT//8z8Hvf1AN/WsrCxsNhs2m40FCxbwxhtv+K0TaH6W0XrnnXe8Q8ttNhsHDhzgJz/5iU+uydmzZzlw4ADbtm0bcjvz589n48aNAV8b6zPhhtLT0+P3/CjwTG9QV1eH1WolISHBJ4m5v3ss0NxZw7FarWzcuNFn5Fl1dTWlpaUBu8VGM4nipz/96SHzy4ZrhQxGQ0MDu3bt4ne/+92Q8xld62ssUBDmdrvRNG3IACXQj4iRpiFwu90oisK//uu/8olPfMJbfu7cuVFPmyCEmDw3RSD085//3GfekoE+9alP+T1rbLSampro6uryKYuNjWXmzJl87Wtf42tf+xqnTp3iySef9HvY4+nTpzl//vyIk9AFq6qqyi/xNCUlhVWrVrFq1Sq++93vsnv3bp588km/Z0C98MILfPWrXw26WT5Qt01ubu6wXSw1NTXk5uaOe6RcWFiYdwLOiIgIPvvZz3L69Gm/Fqf9+/cPGwgtWbKEb3zjG+OqS7Dee++9gHkjX/va14Zdb+/evaMOhMAT3Awegv/BBx/4JUr3B03B+od/+IdxzSO0bds2Zs2ahdvtpqqqinfffReXy+V93eFw8Nhjj3HgwAFvMHE9r7FAOXNut5vGxsYhA72BQ/37xcTEDLuf/ut0xYoV3HnnnT7X07vvvhtUXYUQk++mCISuta9//et+N5fvfOc7fPazn/X+vXLlSv7whz+wefNmv9yV3NzcCQuEtm/f7nNTAXjzzTeZN28e4JmfZOfOncyYMcNvOHBHRwdXrlxhzpw5I+6npKQk4AzWwdizZ8+EThnQb9asWX5lQz3/bDKMtVvwgw8+oL293W/m9ZH0d3cNHBn5yiuv+CWHb9q06ZqPZhzo7rvv9vlhcu7cOe677z6fPLXq6moOHz7M5s2bget7jaWlpaHX6/1+UJw5cyZg7lVhYaFfkAaMOIHjwO0//vjj7N+/3y9/TAhx45McIQg4vDnQHCJWq5W4uDi/8kCjVMYq0K/QQHVJS0sLuP5II136jSfXJ5gJGMciUNdIaGjoNdnXaNntdt57770xretyucbUQhAWFubXOhfoXJiMSRQHWrp0KXPnzvUrLy0t9f77el5joaGhLF++3K/82Wef9fuRAZ5HagwWHx/v/fExlIGBUEpKCp/73OeCrqMQ4sYhLUJAdna2Xy7Mm2++SWpqKjt37iQhIQGbzcZLL70UcKj2UPOTjLUu77zzjk/Zz372M3Q6HWvXriUqKorq6mqefvrpgOsPnql3KOMJZqqqqrh48aJPkuhotbS0eP/d1tbG/v37fYaL9xupdau3tzeo+V7GO5z5/fffH1fAu3fvXnbt2jXq9W6//faAk0326x9qPxoDj30gVqvVZzLEYAQKXgbmsl3va+xzn/ucX5d5fn4+n/nMZ3j44YfJzMykoaGB3//+9wFnAH/ggQdGTHgePFLzoYce4uWXX/ab6FIIcWOTQAhPU/8vfvELOjo6vGWqqvLss8/y7LPPDrtuaGgomzZtmrC6fOpTn/ILhFpbW4N6ntaqVauCyv0oKyujoKDAr/yFF15g7dq1fuWbN2/2m2xuz5494wqE7rrrrhGX0ev1Q+aG9XvllVd45ZVXhl3myJEjIz47bCSBWtBWrlzJiy++6Ff+t7/9jccee8yn7PDhw3R2do46wNi+fTsGgyFgSwZcnXxxNEY69h/72Md44oknRrXNwY+AAXy6ia73NbZ9+3a2bt3qF0SePHnS71lmg82ZM8eny24ogSaRfPTRR3n88cdHVVchxOSSrjE8LQZPPPHEqOf+UBSF73//+6O+uQ1nw4YNQc2oPFhYWBg/+MEPglo20E09NDR0yIeq9ud5jLSNifbFL34xYN7Q9eZwOAK2ygx1c960aZNfC5TT6WT//v2j3ndkZKTfw1YHmuxusX6BunQHBs+TcY09/fTTo87dS0pK4re//W3A550NFmjursHD6YUQNz4JhPrccccd/OEPfwj6xhsfH8+vfvUr7r333gmvy7e//W1+8IMfBD1jdFZWFn/5y1+CrnugIGb9+vVD3qQCdb1UVFSQl5cX1P5Gy2Qy8cgjj/D1r3/9mmx/tA4fPhwwmTZQgAiem36gSQMncnJFGPoBrZMh0LPEjh8/7pOzdr2vsdDQUF588UU++clPjjgUHjyf56uvvhp0N9zgFiHAO5xeCHHzkK6xAVatWsXu3bs5fPgwb7/9NufPn6empoauri5MJhNxcXFkZWWxefNm7rrrrgl51tdQPvWpT7Fz50727t3LwYMHycvLo6mpCbvdTkhICMnJySxatIg77riDjRs3Bp0DU1lZGTCAGeqmDrBmzRqsVqtfIvaePXvIysoa1fsKxGw2ExkZyezZs1mzZg333nvvqJ93dS0FChynTZs2bDLt5s2b/ZKBjxw5QldX16gTwG+99Va++93v+t14169fH/DREJNh586d/Pd//7dPXlBbWxvPPfecz9xW1/saM5vN/PCHP+Tzn/88L7/8MkePHqWyspL29nZCQ0NJTExk5cqV7Ny5k6VLl45q24ECIQg8nF4IceNSXC6X5na7cblc2O12Ojs7aWho4HtNT/ot/Obtwz8fSgghhBDiRvWRfffx/bjHSEhIICwsDLPZLF1jQgghhJi6JBASQgghxJQlgZAQQgghpiwJhIQQQggxZUkgJIQQQogpSwIhIYQQQkxZEggJIYQQYsqSQEgIIYQQU5YEQkIIIYSYsiQQEkIIIcSUFTAQ0jTtetdDCCGEEOKaGxzjSIuQEEIIIaYsHYCiKD6Fg/8WQgghhPgwGBzjGIJZqN9H9t038TUSQgghhLhOhg2EFEVBr9djNBp51PR/6OnpweVyoaoqmqZ5/xNCCCGEuJEpiuL9T6fTYTAYsFqtGI1G9Hq9NyAy9P9j4AoWi4WIiAgMBgN2ux2n0ynBkBBCCCFuCoODIKPRiNlsJiQkBIvF4vO6YfAKBoMBs9lMaGgoOp0Ok8mEw+HwaxkSQgghhLgRDW4JMplMmEwmrFYrZrMZg8HgGwj1r6TT6dDr9d5gSNM0799ut1sCISGEEELc8AYGQv0pP/2tQgaDAb1ej06n828RGrhCf7AzMBCSrjEhhBBC3OgG9nT1xzFGoxGTyeTNEfIGQv05Qv1B0MBAp38DA1uDQCZcFEIIIcSNa2D+88Derv6WoYGtQgG7xvr/HhwESWuQEEIIIW4GgxOm9Xq9NyAK2DUGnlahgSvr9Xq/vCAJhIQQQghxoxs8Kl6n03kDov5/e7vGNE3zCYb6VxrYCiQBkBBCCCFuNgNbhvoDooDD5wcGQ4qiUFmUM6kVF0IIIYSYaBnzlgFXW4x8coQGBkOBpM9deo2rJ4QQQtxcrtXzOQcOXLoeruf+rvW+htp+ecFZnzKfeYQGrjBUN1h/DpEQQgghrq3r/QD067m/a72vkbY/8PVRPXRVnkovhBBCCPA0mqhuFwA6nR5lAhpLNE2jpqaG1tZWXC7XsMsajUZiYmJITEwcVXwS1NPnx8LTiqSgodHtcPN+cT178mo5W95MU7djonYzbnEhJpZmxHBnVjKbZk0jxKRHQQGG7xYUQgghbnSapuF09IKmYTCZ0en012xfLqcDVXUDoODCZLGOe5tVVVW0tbWRlJSEwTB8iOJ0OqmpqUFRFBITE8e8zwkJhPq70uwuN29cqOKfXj5DbVs3epMBnQI30nizirYuTle38pv3CkmKCuHpjy7n7kWpmA26EXOkhBBCiBtVfxDUf092OezXOBjShvj32LW0tJCWlkZMTIxPucvl8g5596mBptHY2Di5gZD3gKsat//qAEevNKAz6tGbPAdevZGiIK5+VHqTnsYeB5/63RHWzUjg3a9uw6AbOWFcCCGEuNEMDoLAc7+79sHQxHK5XBiNRr/ykpISIiMj/QIeo9E4YhfaSMbVoadpmudAqxoL/u01jlU0oeh1eD6HGz2YUNA0UPQ6jlU0seDfXsOlet6PzJkkhBDiZhEoCPK+hicY6u/Cupldq3vzuDObnC6Vbc/sp6zDDihws7WmKAqgUNZhZ9sz+3G61MmukRBCiJuY6nbhdNhxOnpxu5yjKhut4YIg7zKMPxjSVBWX04GmjnyP1DTNkz/kvjmCr3F1jWkavHahimNXGlAMOm78VqBhKBrHrjTw2oUq/n5J+k0XzwkhhLgxuN0u1L6AQVNV9AZj4DKXC1XzLRuNYIIg77KMvZtM01TPfvAEb0aTZcgRYgPr5Ha7MGJGpx99t1xPTw+dnZ3ev51OJ93d3TQ2NnrLBucRjdW4AqFOh4tHXj6DzqC/oRKix0ZBZ9DzyMtnuCMrmQjL6E7IYDz/7hmqmmyYjAa++dGNE759IYQQN5ZrdW8MFAQNngtQARSd7moARn8wZBnVvICqW/W+Dw1wOnoxmixB1UlVXWMKhLq6umhoaPD+7XQ6cbvd9Pb2esvCw8NHvd1AxhUIHS5ppL61G715wkbhTyoNqG/t5nBJI3ctSB5yuZePXuJiRT0AD+1YTUJkqP+2NI3/eP0onT12EqLCeOiOVaOuj8utkltWx/myOlo7e+h2ODEbDMSEW5k5LYaVs1MItZhGvd3hHC2o4J2cYuYkx/HJjYsndNuBuNwqx4sqOVpQQY/dSXJMBF+8bcWw65Q3tnGsoJKqZhsOl5voUCuLpk9j7dw09CNc3P/7Xi4ldc0BX0uMDufLt68c83sRQggARdEBnuBDp+j8ypT+Mp0O3L5lwVLdLr8gyGiy4HLafcqNJgtOR69PMKS6neh05qD3pTcYUN0DWq/wBEODu078AjMU9Iax3aPi4uKIi4vz/l1YWEhERARJSUk+y/X09Ixp+wONK4LZk1eNznRzZKIHS2fSsyevethAKDsz0RsIXSyvZ+viGX7LlDfa6OyxA7AoYxoAWxZl0m13jnizBrA7Xfxu/1nq2zp9yrvdDrrtDqqabLR0drNr7YKg31swqpvbJ3R7w6lt7eBPhy/Q3t078sJ9zl2p5c3Thd6LGqDB1sn+3E6Kqpv47Nalwx5f+zCjCyzGD0dAL4SYXAajCYPRNKayYOn0BpS+YKg/CBpqxPPAYEgB9PrR93gYzWacdrtPMMSgEWoMCoKMZvNNMQp7XN/8Z8ub0ekUPkyDrHQ6hbPlgVsM+s1MjCEixEJ7dy8XhgiE8io9TXqKongDoRnTgu/PPFpQ4Q2CMhKiWTk7BavJgN3pjliLjAAAIABJREFUprG9i4LKRhZPH/u8CUOpuo6BUHNHN+3dvaTHR9Fg66LXMXyyYHu3nbfOFKGqKmajgbVz0wi1mMgpraW6uZ3KJhuH88rZvDBzyG3YnZ5A6K4Vc0mO8W1WtZgmvjtUCCGuhf7gR3W70en1IwYcRpMFt9uFTtGNcQZoxS8YGnrJ/iDo5ngs17gCoaZux4cqCAJPQDvSTNiKopA9PZHDeWW0dfVQ0dhGenzUgG1o5Fd5ErqmJ0QTGeLpS+3PEbKYjDy+awOqqvHDvxwEYM3cNGLCQ/ggv5y5yXE0d1xt7rtn5Txiwq/O2DmfeDZmTferV01LO0fyK6hobMPudBNmMTErKYYNWdOJCLnaDPq7/WepaGwjMTqcHcvm8NaZQmzdvfQ6rraWFNU08f0/HQDg87cuJzU2EoAeh5PDl8opqG6ko8dBiNnI/NR4Ni/MxGLynE4HL1zh0KUywNN1+E5OMeWNbXztI2t9uvKmRYXxpdtXkhQdzi/eODZiIHSmpBpX3yiEHcvnkN0XCGZPT+SXu4/T0WPnRFEVG7IyhmwVcrg86ydFh5McEzHs/oQQ4kamKAr6EWZfHkivH2+r98jB0HiDIL1eH3BeoJiYGCwW/7wkl8s14gzUIxl3X4Ci8KEKhoJtxcvO9ARCABcrGnwCobKGNr9usZFcrGjwrtPrdBEyIO+qrq3DJxAKpKimmb8cuYB7QJdRW1cPp4urKaxu4oGty/y20dzRzf9/KBe704XZaGBeajwFfQFcmNVMaqwnULD2tZR09Tr43YGzNLd3e7fR3u3mRFElFY1tfG77cgx635P/hfdyvO/L7nIzMJsqPsI/t2qk9wig1+uYnxrvLTca9MxOjuVsSQ29DidVze1kDPg8BrI7PYHQvnPFNHV04XKrJMdEsHnhdKYnRI+qPkIIMfUMHQxNREtQdHQ01dXVAD4BTn8Q1NHR4S1zOp3U1tb65BKNxTgDoRu/729sRn5fseEhpMVFUdnURl5lA3csm42uL4rq7xYzGvRkpcUPtxmvzh47K2enkj09kchQC9XN7Vwo9+QhvXwsj0sVDcxPi2dOchwmg29elsPl5rUT+bhVFavZyJ3L55AUHU5hdRP7z1+ho8fOm6cL+MyWpT7rOV1uMhKi2LxwBpEhZqLDrN5WoOTocO67ZZHP8nvOFnmDoC2LZ7AgLYH6tk7eOFVIbWsHx4squWV+hs86OkXh47csIj4ilMiQ4JPzBtM0jUZbF+A59oOPQWL01W6u+rbOIQOh/hahyqY2b1l5Qyv/+76NT25YzMzEiRmOKYQQH14KRpMZp+NqMDRR3WFpaWlUVlZSXl6Oe4R5iAwGA7GxsX4J1KMl2aHjkJ2ZSGVTG129DkrqWpidFOvTLTY3JQ5zkAm4kaEWdiyb7e3nnZsSx50r5vJubgkOp4u8ygbyKhswGvTMS4lnw4IMb4tKQXUT3XZPd96t2bNYmO5phVo3L53WTk+rUGl9K62dPUSH+bYK3bNy/oitTQCdvQ7yq5oAWDw90ds1FxseQnVzO0cLKsgtrfMLhDYtnO7TejNWdqfb29plNvgn6A9MdO6xB+5iU1WNhekJNLV3c0tWBqmxERRWN7Hn7GXcbpW3zhTx8J2rb4rkPiGECMTn++tafpcpfcFQ3yg1o2licoJ0Oh0ZGRlkZGSMvPAEkUBoHBamJ7Dv3GWcLjcXy+uZnRRLaUMrXb2eoGRRRvDJzPERoX434JWzUliYnkBuWR0Xy+upbm7H6XJzobyOS5UNbF08g/Xz0qltuZrgPDfFt4lwbko8p4s9zYw1rR0+gZBBrw8qCALPaLL+kVrTosJo67o60qs/76epvcubjNwvITIsqO2PRBswG0eg59cFE7zodAp/tybLp2zFrBQqm2ycL6ujpaObelsXiVETU2chhLjeDEYzOr0KaN6h+9dMX8L2zU4CoXEwGw3MS4njQnk9BdVNOF1u8io83WKhfYnKwRqcW9PPajKyZk4aa+ak0dbVy+niao4VVqKqKvtzS5iZGONNctbpdISYfUc+hQ6YGHJgMvRw+wykd0CA805OMe/kFAdcrmfwPsY0OsGf2WBA1zcxWKCk6p4BZaMd/ZUWF8n5sjoAWjt7JBASQtzURjNZopBAaNyyM5O4UF7v6b6qaqSg2tN9tCAtwZszNFGiQi1sz56JTlE4nFeGpmmU1rd6R2upqkqPw+lNbga8rVMAZuPIcz7pBsxCOtDArqd189JJi4sMuH6o+doMQdfpFGLCrDS1d9Ha1YvD5fbJE2oYMN9SfGTIqLbtGvB+pVtMCCGmlhsqEFK4dtORXyszpkUTGWrB1tXL/twSb+Ax3jl++ruYAuUYWQcFGwMThYtrW3xGqhXXtnj/HcxwcYvRQLfdgd3lm6SWHBOOoiie58eoGvMmIO9nJO3ddsxGvfcYzE6Kpam9C1VVKaxu8r5Ph8vtDUBNRgPpcVcTpZs7uokKtXiH01c02kiP9w3iSgYco9gguwqFEEJ8OIwzEBrmabd9s10GtxnNk9Ol9gVDOmV060+i/jmFDl0qo6NvmHhseAgpseOboyantI6DF64wOymW1LhIIkM9/bD1bZ0cK6jw7nvGtGiiw6zsMxvpsTt5O6cYs9HAtKhQimqaOVNSA3jmM4oJG/kmHxcRQkWjg5qWdi5VNBAfGUpsuJVwq5m5KXEUVDVyqriaiBAzC9ITMOr1tHT2kHOlhsXTk/yCjLG6UF7PqyfysRgNfOn2FUSGWFgxK4WTxVXexObOXgfhVhOnLld7h+gvn5Hs7fLbfbqQ08XVpMZF8rlty2iwdfG7/WeYmRjDwoxEzEY9hdVNFNd6huVPiwob9ZB+IYQQN7dxBUL/9ak1dNqd3Ptfh9BQ0FSNexen8tCG2fzq/SL25Ndg73aiN+nRDZmPoqGoKr+6bzUfX5aBW1P531Nl/NNLp9EHGB10I8rOTPJOIAiwaAJmfC6qacLudHGxot77OI/BNi2YzrS+fJZ7Vs7jpWOX6Oyx8+KhXJ/lwqxm7l41L6j9LkhPoKKxDafLzUtHLwLwxdtWkBwTwV0r5tLY3kVze3fAPCGHS52wQOhyTTOqqnoeJ9LcTmSIhZhwK7dmz2Lv2SJ6HU7ePnfZZ53E6HA2L7o6q3RhXytRVZONbruTelsXOp2OkroWSupafNY1GvR8ZGVwx0gIIcSHx7gCoUirkXUz4smMDaO0qRNVVdmRlcSmmQk8/uo57lmYys8/upw/nirjm6+fDfgEWj0K+x+5jZUZsRh0OpxulU8uz+Cf/nJqTHXqf96Ju69FSX8dWpViwqykx0dR0eiZm2ZxkJMoDudj6xZyrrSWktoWGmyd9Dg8z5QJs5pIi41kxewUn7ly5qXG8+DWZRzJL6eyyUavw0WY1cSsxFg2LvCdWXo4K2el0ONwcb6sDltXL3q95zMBCLOY+ML2FRwvrKSgupGWzh40DaLDLMxNjmPd/PRxv+9+K2alUNbQSkSImZkDHk2yek4qcREhHC+spKalA6fbTWSIhQXpCayfl45xQPC8fn4GBy9cYUF6AqEWE4szppEYFcbp4mpK6lqwdfViNhqYnhDFxgFBpRBCiKlD0bTA80KX5p32K8vM8n0q+HNHinjoljl8+cUT/M+JUlwOF/v/+VYWJ0cz7Vsv89tPrOb+ldPJqWpl7c/2ogvQwpM9LYITj+9A1TS2PfU2eU0drEiP5d2iujE9D0UB0iKt/MOmuRTU2/jv41dGlbSsKJARFUrRd+8e9b6FEEIIceMqzTvtF8uMa4xdTlUrAFvmTENDQ282MDMunGpbNy67k398+TQ/3neRL7x4AiVA15iqasxKjEABXs2t4nh1K+0ON/uLG/wmglIYeb5nBU/eTEqEhX/aMo+PLU33e/xHcCHRzZayLYQQQoixGFfXWGFDB5qmsS4zHg1IibSSHGklt6oVDHrsLpUn3skD+oYlaxooiichWgOrXsGterqwDHrFJ/zoT5TWNA0FMOg86znUvqn1+rYDXN2eQaHXraHDsy9V1dB5Ix8NRVMw66A30IR8ffsy63TXpTtNCCGEEJNvXC1C9R299DjdJIRbMOkUVqRGo1MUTpY3YzDoSQgzU/zdu/nBnYtxOVysn5HAle/dw/0rM/if/28N//vgLZSUN6NqcO/iNFJDzT4tNpoGmqryDxvmUPeTj9Ly04/zy4+tQHOr6NBICjdT8t27eePLm/j0yuk0P/lx5iSE8+IXNgCwfkY8L3x6LaARbTFx5J9upf0/PkHOYzuIMOoBDU3TeP8ft5HzLzvIiAqh+se7mJkQHujtCiGEEOJDZlyBkOZyc7S0Eb1OwapTWJzqeXr3sZJG9IrngZvJkVYirUZAwWzQkRxp5Ym7l3Lf8gxcbpXcxg7+llOB0+Xm6OM7iLcYvb1iegXuWZTG/925BA1o6rTz4JqZ/OSepegAvaKQEhXCxpkJ/NenVgOeJOnWLs9Qaodbpa3Hicvu4pUvbWRRchQHCuvISook51t3YVQUFEUhIdzCzNgwcr/1EcItxoCPcBBCCCHEh8/45uHWNI5caUKvUwgJMbM4OZpuh4uzNa2onl4wdAO7sBQFnaLgcqvM+u6rPPC/x9CZjDz4v8fIb+ggLszMO1/bTrTJgAK4XG5++JHFGPU6dv7mPVb+3z2gaTyyZS4mvd7bfeZ0qyz50ZvEPf4SJY2dfPmPx1H6Wqa++tfTzE2OYmV6LC+eKeP2X+7nz2fLSYm0siAx0lsvRVH44osniHvsr1xp7BjXYRFCCCHEzWF8LUI6hSMlDegUhYyYUBIjLJQ0ddLaZfd5SOZgvztxher2XuxuDQ0Nu6qy9qd7OVfZyuyEcP7ns+tQ3W50KkwLt9LrdHOxzkZzj4Oyli6Meh3Rlr70Jg0qWru5UNtGd98w7/7EIMUTibFmehwGncLpsiYUBV49XwnA/OQo1L51uh1uXj55hS63GzXwQDohhBBCfMiMLxBSdJT1JUwvTY0hKsREYUM7uFXQhk44tvU66R+172nVUXABO369n6rWbrbNTWTXkgx0OjAZdNhdbhxuFU3VaO91oigKIUaDdyiZW9M8Ezpq+I020zSNtCjPs6f+YeNc3v7qdr6xLQsNSI600j9CTENDU9W+bjFJlhZCCCGmgnE/ora5x4EGbJ2TQHyombOVLSgjPNxTQfGLNTSgw6Xy9IECDDodn1mTCS7Vu4Zn+auP3eiPd4IJWbS+/3pcbjrtLqptPezNq+FKU+egwEmZ8BBIVVWGmKpJDKOrqxOHwzHygmLK0zSVjvb2636dqW73yAvdQNwTWF+H3U5Pd/eEbU+IyTTOHCHodrkpa+5k+9wkIq0mcita0A/5OI0Am+gbHu8Z3g75tW1omkZCqAXcniHw/cGJpijo8DyHzOXWgp7ux+lWUYBfv1fAR//7MB99/jCf+P0HvHah2q8FKVgFeRf44NCBYZfp7upi75uvYLf3jmkfg7lcLo68v9+nLO9CLqdPHPXZ5/EPDrFv92sU5l2krraGt3e/NiH7H43DB9+ltOTyyAsO4YP39tPS3DSBNZp6VFUl5+wp3tnzOkcPHZzs6gxpvOdoR3s7hw68jcvlmsBaDa+qooxDB9+dsO0Nvo4n2oXcs1zMPTthdTifc2Zc17cQN5JxtwgpGuzJq8Vo8LSmFDV2jGo+Qr2iYDHocLk1XE4Xa2d6nmpe0dqFW6/Q43QRbjESH2LGZNCRGReKoii09TqCag5SFIXz1Z6JH+cnx6CpGlmJEdT/5KPsyk7Fb8bFCaZN4BC0np5uerq7fMpi4uKYlpjk/ftKcREAW2+7kznzFxASEkra9BkTVodgJaemEhEZNfKC4pqpr62hsb6O9Ru3sXbD5smuzpAm6xwdj4n+1hh8HU+4IL7nrnkdhLhBjfPp854vhN2Xavg/t8ymtqOHSluP90tCw9Pi4/1b0/r+9rTmKIBFr6P433byam4FBr2ev1ucikvV+OX7heitRt64WM3n187kJ/csobSxg3CzgVPlzbQ73IRaNe82r1ZI89mXqmkcudJIc5eD+5al8V5eNd/YsQizQcelqhZ0Op0nP0jrr/GNq7enx68sMSnF5+/urk6iY2IxGo0ARERGEhG56LrUb6CZs+UBppOtq6uTsLBwQkJDJ7sqw5qsc/RGMvg6nqp1EGIyjD8QUuB4WRMut8rx0ibcLjeKzzPFvB1bAfN63JpGt8PFF9bOQlMUep1ufrY/jyPFDegMer7xt7Osyojj75emo6BQ297D3z9/CNW7Hf9mof4SnaKgqdDjcPMfB/L57o5FvPXV7aiqyn8fK6GgsROtb7mJUFF2hZLLhdjtvcTExJE5a7bP6w6HnUsXcmmoq0Wn05GSls78BYtQFB2dHe18cOgga2/ZTGH+RVpbmjEYDMyaM4/06TO4XJjHlctFuN1ubzfCpu13UFJUQHd3FytWr2P/vt3Y7b00NzdRfqWYxUtXgKJw/uwpbrtrp+dT0DSKCvKoqijD6XQQFz+NRdnLMFssADQ3NpB36TxdnR2YTGYSk1PIWpjt8z4uXciho72dNes3Dll++OC7pKZnkDlzNhdzz2GxWnC5XFSUXmH1+o24XC4uF+bT2W7D7XYTFh7B/IWLiImNH/E4q243ly7kUFdbjapqhEdEsGDREiKjPPNY2dpauXQhF1tbKxaLhdlz55OaPt27fnNTI/kXc+ns7MBisTI3ayH5F8+TtSibxKQU3t79GouXrSQxKdm7Tu5Zz0OAs5etBKC6qoLiwnx6ursJi4hg4eKlREV7Hg579tRxoqJj0DSVyvJyHPZeomJiWbJsJSaz5+G3brebooJL1FRV4nQ6iYiMYlH2UsIjIoc9TwDKrhRTWnIZu70Xa0goM2fPJTUtw+cYnTt9grraGjRN5e3dr5GaMZ3o6FgqyktJTc+gKP8SGZkzmTFrDi6Xi4JLF6itqcLtdhEZGc28BYuIjon1vp/omFgUReFKcREOh534+GlkL19FXW01JUUF9PT0EBsXT/ayFZhMvg/4PXTwHZKSU5k9d36A8hTCI6K856jDbmf/vt2s37SV8+dOY7WGsHz1OsrLrlBZdoXu7i5AISY2joWLl2KxWkc8X4Zbt7y0hMaGOtLSMykuKqCrqwOrNYSF2cu8719VVQouXaC6qgJNVUlKSSUsPCLgvjo62jl26CAbtmznYu45WpqbMJpMzF+4mNjYeC6eP0djQz0mk4nZ87K8n1vehVzvdTzc+dHZ0TGmz7BfZXkZxUX52O29xMbGszB7GdaQEL86dHd3UZh3kZbmJhwOBxarlRmz5pBxk7XcCRGMcQdCiqLQaXeS/e9vYet1Qn9+kAKNHb0s/Mmb2Hpd6I16jpY2seDHu2nstoPO80iNXrfK7O+/zo6sZBLCzLxbVE9Fc6f3Aa09qsaqn+1l65xpWA163i6sw6V6WpVq2+0s/Mmb2N0aBpNneRU4V2tjwY930+1043luq8KT7+bx15wKVqbHUtzYwZmKZvQGHQoKt/36AHpFQTMZx3wc6mqquXQ+h3kLFhEVHUNTQz05Z075LHP6+FF0Oh1rb9mM2+3i/LkzGI1GZs/NQlEUXE4n504fZ2H2MmJi42hpbuLk0cPET0tk9twswsIjuJh7llt33BOwDttuv4vjR94nJi6eOfOyPPWqrfFZpij/EtVVFWQvW4nFYqUw/yLnzpxkzfqNOJ1OTp88xszZc0lLn47dbu+7efhKSU3n6OGD9Pb2YLFcvRHV19Ywu2+/AykKlJdeITQ0jOxlKwkNC8PW2kpiUjJRWQvRGwxcuVzI2VMn2Hb7Xd6E+KEUXy6gpbmJ1es2YjKZabe1eQMMu93OiQ8OkZo+nexlK2i3tXEh5wwhoWHExMbR3d3FqeNHmL9gMenTM+lob+fc6RM47PZh9zlQY30d58+dYcGibOLip1FTXcnJY0fYetsODAYjik7H5cJ8UlLTWb9pKzqdwrnTJyjIv8jiJcsBT6DS2dHOoiXLCQkJpbWlyduyOdx50tzYQEHeBZatXEtkZBRdXZ0Bj9fSFaspKsijpamRNbdsAqC2poqOdhuXC/KYPXc+sfEJAJw5eRSH3c7SFaswmy1UlJdy8uhhNmy9lZAQT1d0acllrCEhLFqyHJ2ikHP2FCePHaGnu4ushdmYLWYu5JzlcmE+CxYt8alLSmo6VZXlPoFQV1cnHTYby1etpaO9fcDJ4gk8zpw6TnpGJnF9dQSYMWsO4RGRqKrKhdyz5F3MZdnKNUF9ZkOtqyg6mpuacDqdLFmxipCQUEouF5Jz9hRbtt8BQP6l89RVV7Eweykmk5ny0hKKi/IxGs1++9EpCk6nk5PHjpCWkcmc+Quorqzg/LkzhISEEhkVzep1G2hsqOdizlni46d5f4QMNOT5oTCmzxA8PwBaW5pZuHgpZouFvIvnOX3yKBs2b/fbv16nxxoSwtLMVZhMFpoaG7iUe46YmDjCIwIHgULcrMYdCIGnQ6mstavvUWJXv5TdGlxp6fJ2T/c43Vxp6fQMUfeO/vIERPsK6gBQNc3/Aa2KwnvFDSgoqN6uNgWXpnm2P6g+vS6VKy2dA1ZXQOeZb6iqrQcNDZ1eR3/bUWWbZ/SD5j+YLWhFhXlkzppN5kxPK1B0TCx2u53y0hIAGupqaW9vY+utd3pv2guzl3Lm5DFmzZnnPR4LFi8lNs7TKhIbF09IaChNDfWkZWSOsWZX2e12Sq9cZumK1d4bTPaylezftxtbWxug4XI6mT5jFgaDAbPFQkRkpN92oqJjCAkJo7a6yvt+21pbsNvtQzavq6rKijXrMRg8p1xsfIL3Sxxg9twsqirKsff2jvgr39bWRkJikjcHaeDyV4oLCQkLI2uRpxUrNDSMjvZ2rhQXERMbR1lJMbFxCWRkzgQgIjKKrEVLOHn0cDCHEIDCgktkZM4gve/X8aw582hqqKeyvIzMmbNRgIiISBZmL/Wuk5ySTv6l8wA0NdbTWF/Hxm23ERoaBkBYuOexLiOdJzZbG2HhESRMSwQIeBMdjr23lxWbtnpbrxrqamlpamLLrTu8x3HBoiV02GxcuVzIwuxlKIqCXq9n9bqN6Dy/LEhNn05xYT7rB2wrffoMKivK/PaZkppOYd5F2m1t3s+srqaaqJgY7+czWHpGJjNnz/X+PbglImP6TEouFwT1nodb1/MIRI0Vq9d7u5PT0qdTmHeRrq5ODAYDlWWlLF+1lvi+Yx4bF8+hA++gqip++q7jmXPmeVt7wsLDqSi7gsVqYfFSTyAcGRVNaXERrS3NJCb7XjPDnR9dXZ1j+gwBent72LTtdu82l61cw4F9u6mvq2FaYrJPHcwWC/OyrnZXhoWHc6W4kHZbmwRC4kNn3MnS4Ak01CEGcfWX9wdIQ+UOuzWtbz4gAv7CVTW8r/ttX/NfR9Xom93aN+Bya5pPeaBlR8vlctFhs/l9mQz8gmtpaSIqKsZ7cwNPQOF0OOgZkPsTFub7nDOz2TJho87aba1oqkZ8QqK3zGAwEB4RQUd7G+HhEVisVs6dOk5jfd2ww4OTU9Ooqa70/l1bXUXCtETvzcSHohAVHeMNggZzOZ10dXkCV7c68hDf+IRpVJaVUlpy2btev9bmJqZN8034jImJpd3WBkBba7NPKwNAXHyC9wY/ErfbRXtbm99nHT1gHwChgz9Hi8Xb6tRQV0d0bJz3hjTQSOdJbFw8HTYbeRdyaWttGdWQcUVR0BsM3hsoQGNjPdGxcX7BZ0JiknfUnqJ4upMGHqOQkFDMFovPtiwWa8CWNYvVSkxsnO/5UlNFSmq6fx37fooM/owGsvf2Yrf3jmk4eKB1zRaLz3nrbV3s7cXW2goK3iCo38Bu05Hqr9cbMJnNPueMoiiYrVYcDv/jNdz5MdbPECAqOtZnmyaTiajoGNpaWgK+l36qqtLZ0e75ng/i+hTiZjMhLUJTXf+Xv9ns++vcMuDXur23l9aWZt5+63WfZfQGPQ67HaPJFHDbik7B7Q7wy3MMent70TSNd/e+6VOuqSoOhwOdXs+6DZu5XJjPuTMnAIU587KYPmOW37ZS0tL7cmS6sIaEUldbzfyFi4fct17vO7eU0+HgclE+9bU1uN1ub/N9MKbPmIVer6e8tIS8C7nExsWzZMUqLBYrvb29lBQXUnqleOA79Ebpvb29GAy+wZqiKIEDuADsvXY0TeP0iaM+gbOmacTGxQ25nucmoqJpKnaHHesQrV4jnSdR0TGsXr+R4qJ8jh1+D4vVSvayFUHlVgEYBn0ODnvgulgsFnp7/ZPzvfUZ8Iibq2+SIUcnpaSlU1xUwLysRfT0dNNhs5G8Jm3Y7Q/U0W6juKiApsYGjEaj3+vDGe26iqKg6Dw3fbvD7pfzBKNvifPs0/d4eQ6X//Ea7vyAsX+G/blAA5mt1oA/tDRNo7TkMjVVFXR3dxMaFibzeokPLQmEJoDZ0p+f0uszQmfgl5DZYiEhMYnlq9YG3Mbglo1Axtpi1c9itmAwGLjtzsA5RgDWkFAWL13BoiXLqa6q4MK5M8TGJxA+KDk0NDSMqOhoaqoriYtPxOlw+LQ0jeTU8Q8wGI2sWnsLoWHh2Ht7/QK04aRlZJKWkUl3dxfnz50h/+J5lq5YjdliYcasOQGDN/D82rcPusGrfYGg1xDHWVEUb3C7bsNmwiP8uw2DYTKZ6OwI/Dy7kc4TgJjYOFat3YDL5aQoP49zp0+y7fa7xl6XTv+62O12jMbAwTkEPheHOz8Tk1O5eD6H1pZm2lpbiI2P92n1Go7DYefYkfdIy5jBpm23YTKZqamq9HY1Xqt1wRNMOBye4Hfg++vtHWUr7SiO13Dnx5DLB/EZOgMEMk6HnZCoGL/yovxL1FRXkr1spTdR/v39+4KukxA3kwnpGpvq9HoD4ZGRfonJtdVV3n9HR8fS0uxJyhwrnaIbV+tQRGQUqqoGNVH3QWNzAAAHcUlEQVShoiikpmVgCQmhuzNwkJacmkFNdRV1NVUkJqcE/Svd5XLS2tLM3PkLvV1Igzs9FZ2CFigHY5CQkFDS0qd7bwTR0bHU19UMuXx0dAz1dbU+ZXU1VT6/zC0W/1/Jvb29mC1WdHo9EVFRw+5jJPHx02htbqKnx39m3tGcJwaDkRmz5tDb0zPm8yo2LoHW5ma/1p/a6qphu6dGy2g0Mi0xidrqKmqrq0gO0C02lNaWZjQN5i9Y5G2dGXi+9AcUgc6XkdYdSUREFGjQ2FDvLdM0jbqaqmHWGp/hzo9Agv0MW1uafSadVFWVtpYWv5FlAI0NdUyfMYuY2Lirx1fzPeYBc6SEuAlJIDRBZs2eR2lJESWXPU3wBXkXaGps8L4+LSkZa0gIp44dprG+DltbKxVlVzhx9BCaFtwXijUkFLfLRX1dDd1dXaP+IjJbLKRnzuDcqeNUV1Zga2ultqaKk8cO09nheURB7tnTNDXU09XZQUVZKfaenoAJ0wBJKal0trdTUX4lYL7HUPR6A0aTic4OT5Jsb28PF3J8Z721WKw0NdYHnMa/qqKMsivFtNvasLW1Ul5aQmSkZ+j8jNlzaGttJffsKVpbmmlpbqK4KJ+LuecAyJw5h/Z2G+fPnaa5qZHK8lIK8y/55C9NS0rmSnERTY0NdHV1UlF2hZamRu9kc3PmZVFcWEBxUQG2tlYa6+u4mHuWyvLSoN5/QmIS0bGxnDx6mIb6Os+Q6LJS2lpbRjxPbG1tFFy6QGtLM50dHRQX5RMSFhZ0195g05KSCY+M5NSxD2hubKCj3cbF3HN0drYzc87EzgWVnJJGdVUF7e22Uc1ZY7WGoLrd3hGMtrZWLhfkeV/vH7lYX1fjl3Mz0rojMVsspKRncP7caaorK2isr+PsyWMT+riKwYY7PwIJ+jPUNC7mnsXlcqFpKvkXc7GGhnoT7weyWEO816fb7aIw/xJdA34QWaxW2lqb6ersCPr7S4gblXSNTZDk1DQcDgelJUXY7fnExiWwau0tvPfu1ebklavXk3cxl3OnT+BWVcLDw5k+Y5Z3fpiRhEdEkJKewbnTJ1EUhfUbt4y6nvMXLEKvN1CQdwGH3Y7FaiU5NR1rSCiqqmK2mMm/dJ7uri5MFguLl63AOkT+jtlsJi4+gXZbGzFxweWogOfX5LKVa8i/mEtxUQFGo4EZs+fS3HQ1cJwxay6XLuTQUF/n1+0TEhpGyeUCSooKcLndxCdMY/4CzwgXi8XKmvUbyb94nhNHD6EoOqKiY7zTCYSEhrJyzTryLp6npqqSsPBwlixfxZkBjxboH+Z9/txpHA47YWHhLFmxypugOi0xmUVLllNcVMDlgjwMRiPx0xJH1TW4fNU6CvMucP7caVwuF1FR0cTEeUb3DHeemMwm7PZecs6ewt7bQ3hEJMuDHEIeiKIorFxzCwWXznP29AncbhdRUTGsWb9pVHlbwUhITELL0ZiWmDRk4nwgEZFRzM1ayIkPDvWNZrQyY9ZcLhd6AhqjycT0GTO5dCGHpsYGlq5YHfS6wViwMBsFhUsXckDTSE2fTkp6BgWXLgb/5kdpyPMjQN5WsJ/htOQUQkJCeH//PlTVTVRUjHfeIr/3vCib3HNneO/dfRgMepJS0nxGeaZnzKChrpbDB9/lls3bhpxXSYibgaINMeykNO+0X1lm1gqfv+f84A3K27qGyo+8KSkKZESFUvTduye7KuI6enfPGyxcskxm1xVCiA+x0rzTfrHMOLvGPkQRkI8P6/sS4v+1d/8qbYVxGMef93g8IYcItSaGkhCDdigJGapdAkpBp+CQIVfgLl6Dl+BVeAvFwaF76aZToTiVQrt2CJ737ZAIhRqwfU9Lznm/H8iUITnbw+/8/gAAfuXdI1SmapBUvucBAACLeQWh59Vk0aRxYRkj1dPFY8Mop1f9gZ49MkYMACg3ryD0prshu2hVdEFZ67S79fs4Kcqt3ek+6YAnAKBcvILQqNeSnZZr5bqdZhr1aJgFACAEXkHoYKeh5nr614dKl42R1FxPdbDz9FFwAABQXF5BqJbEupjsyd5nKv6klZO9z3Qx2VMtYb0SAAAh8ApCxkjjQVvD7U3JFbwu5IyG25saD9qlawAHAACP8x6fX40jXZ8dqbtW0ezKd8EqQ85JcuquVXR9dqTVmKsjAACEwrMiZGQkxZHRzflYw05dLrPzisqyByInYySXWQ07dd2cjxVHs+fxvfIOAACKwbv88RAa4sjo6vRQlyf7alQTZfNpssjMXqEtyyeaZ5xsmqlRTXR5sq+r00PF8y8IQQAAhCOXrmBjjJxzqsQrmrzuaNRv6f2nr3p3+0Uf777r249pHj+Ti3qaaHdrQ6PeC7192VSarGhWB3KEIAAAApPbeNRDiDAyqlViHfdbOu4XaR8PIQgAgNDQGQwAAIJFEAIAAMEiCAEAgGARhAAAQLD+qFn68+2Hf/U/AAAA/jvjXNFWQQMAAOSDV2MAACBYBCEAABAsghAAAAgWQQgAAASLIAQAAIJFEAIAAMEiCAEAgGD9BCl2/9wkz5p0AAAAAElFTkSuQmCC;" vertex="1" parent="1">
          <mxGeometry x="10" y="780" width="351.27" height="110" as="geometry" />
        </mxCell>
        <mxCell id="wXIIDTwPPoFRgF2ShjLG-11" value="Add the new Beta app to the Narrative.&amp;nbsp; Label it if you are mixing beta and release" style="rounded=1;whiteSpace=wrap;html=1;strokeWidth=5;fillColor=#d5e8d4;strokeColor=#82b366;" vertex="1" parent="1">
          <mxGeometry x="60" y="710" width="130" height="90" as="geometry" />
        </mxCell>
      </root>
    </mxGraphModel>
  </diagram>
</mxfile>
